<?xml version="1.0" encoding="UTF-8"?>
<svg version="1.1" xmlns="http://www.w3.org/2000/svg" width="1008" height="892">
<path d="M0 0 C12.43271675 10.14598492 19.19617656 24.01095593 21.3125 39.75 C21.81389838 46.34776599 21.49321957 52.4206949 19.75 58.8125 C19.16565942 61.06924716 19.16565942 61.06924716 19.3125 64.75 C22.7793075 64.15586515 25.72716307 63.23514095 28.9375 61.8125 C43.39699904 55.90408657 58.45273015 56.67758631 72.96875 62.12109375 C88.62629169 69.34365446 99.14716036 80.82968568 105.1875 97 C110.02899747 110.91529737 109.91030541 126.05091032 103.625 139.47265625 C101.93268022 142.94042263 100.13218668 146.34740515 98.3125 149.75 C97.64065371 151.08073092 96.97128893 152.4127568 96.3125 153.75 C96.8075 154.36875 97.3025 154.9875 97.8125 155.625 C99.3125 157.75 99.3125 157.75 99.3125 159.75 C100.90578125 159.42515625 100.90578125 159.42515625 102.53125 159.09375 C103.95825528 158.81210422 105.38534313 158.53087662 106.8125 158.25 C107.50859375 158.10691406 108.2046875 157.96382812 108.921875 157.81640625 C123.35800066 155.00938182 137.80573413 157.76425853 150.265625 165.609375 C155.78381128 169.49924402 160.85472296 173.67048037 165.3125 178.75 C165.76109375 179.25660156 166.2096875 179.76320312 166.671875 180.28515625 C175.54965506 191.43718244 178.64480059 207.81841231 177.3125 221.75 C174.87803358 236.39014739 169.73928827 247.11803343 159.3125 257.75 C158.60222656 258.50539063 157.89195312 259.26078125 157.16015625 260.0390625 C155.3125 261.75 155.3125 261.75 153.3125 261.75 C153.85390625 263.12285156 153.85390625 263.12285156 154.40625 264.5234375 C154.8703125 265.71195312 155.334375 266.90046875 155.8125 268.125 C156.2765625 269.30835938 156.740625 270.49171875 157.21875 271.7109375 C158.3125 274.75 158.3125 274.75 158.3125 276.75 C159.3025 276.42 160.2925 276.09 161.3125 275.75 C178.910341 274.79011776 193.11349217 281.27391645 206.34375 292.46875 C217.2139 302.57608246 222.4233573 317.14434795 223.53515625 331.65625 C223.90611924 343.91415753 220.34756185 354.70470622 215.3125 365.75 C214.6525 365.75 213.9925 365.75 213.3125 365.75 C212.95285156 366.83667969 212.95285156 366.83667969 212.5859375 367.9453125 C208.26905055 377.45305737 198.20422923 383.13607865 189.3125 387.75 C189.6425 389.07 189.9725 390.39 190.3125 391.75 C191.52164063 391.64300781 192.73078125 391.53601563 193.9765625 391.42578125 C212.25133785 390.00330617 227.72029931 392.85902001 242.2265625 404.8515625 C253.43241709 415.05014926 261.29636897 427.38411613 262.3125 442.75 C262.92374101 458.0865925 261.07634723 471.45101898 251.58984375 484.03515625 C250.11337795 485.66094074 250.11337795 485.66094074 250.3125 487.75 C252.11098408 488.54600078 252.11098408 488.54600078 254.3125 488.75 C256.30618433 487.47239606 256.30618433 487.47239606 258.125 485.5625 C266.67951245 477.66602697 277.67648032 473.61192738 289.3125 472.75 C290.45138672 472.65525391 290.45138672 472.65525391 291.61328125 472.55859375 C305.87536368 471.90359441 319.85429226 476.94534763 331.5 484.9375 C345.00575409 498.44325409 352.24172112 512.53181664 352.5 531.6875 C352.47625048 535.52067307 352.17285264 539.01262815 351.3125 542.75 C354.53736831 541.36491556 356.30632399 539.84407495 358.5 537.125 C368.97575521 524.95106974 381.15485723 518.30971212 397.3125 516.75 C398.57900391 516.62625 398.57900391 516.62625 399.87109375 516.5 C414.06286934 515.82520532 428.84705859 520.76712984 439.5 530.0625 C452.48866409 542.37828197 459.59369237 555.49228632 460.3125 573.75 C461.570625 574.100625 462.82875 574.45125 464.125 574.8125 C475.4340396 578.63552439 484.32254071 585.89225748 490.3125 596.1875 C493.01116922 605.80150908 490.83866298 613.27533896 486.16796875 621.8515625 C478.40227877 634.37989619 467.35523938 644.88891827 457 655.25 C456.06929687 656.18158936 455.13859375 657.11317871 454.1796875 658.07299805 C449.59029288 662.62505049 444.95588483 667.06033017 440.02856445 671.24609375 C438.20743203 672.84207835 436.50777546 674.52159294 434.8125 676.25 C424.50467339 686.69712156 412.6469781 695.57274515 401.00048828 704.45751953 C399.26462847 705.78665489 397.53578113 707.12446188 395.80859375 708.46484375 C395.23351074 708.91029541 394.65842773 709.35574707 394.06591797 709.81469727 C392.47166903 711.05009057 390.87838141 712.28672416 389.28515625 713.5234375 C386.35797446 715.71593897 383.36631463 717.73857468 380.3125 719.75 C379.11241074 720.57366635 377.9146137 721.40067933 376.71875 722.23046875 C369.04613252 727.54966685 361.31447188 732.73851999 353.4375 737.75 C350.07762274 739.90032144 346.76535892 742.11180283 343.47265625 744.36328125 C341.11553953 745.87643936 338.69263258 747.25252001 336.25561523 748.63208008 C332.73014391 750.66036669 329.27668847 752.80682084 325.8125 754.9375 C317.67456518 759.92394693 309.52270125 764.88331962 301.3125 769.75 C300.2915625 770.3584375 299.270625 770.966875 298.21875 771.59375 C255.10589391 796.77848771 209.09483413 814.76954448 160 823.875 C159.34109772 823.99792419 158.68219543 824.12084839 158.00332642 824.24749756 C138.37028623 827.87631121 118.67530823 830.10347131 98.75 831.25 C96.72596379 831.37183278 94.70195741 831.49416202 92.67797852 831.61694336 C87.31883152 831.93945245 81.95907986 832.25058216 76.59912109 832.55926514 C73.31846342 832.74965392 70.03810926 832.94461047 66.7578125 833.14111328 C61.1753517 833.47536071 55.59250028 833.80223201 50.00930786 834.12402344 C47.93310849 834.24408418 45.85698772 834.3655177 43.78097534 834.48876953 C28.4589584 835.39234554 13.1334456 835.98348096 -2.20475578 836.52302742 C-22.83571619 837.25012727 -43.4483335 838.15160497 -64.0625 839.2578125 C-159.82193652 844.36172687 -159.82193652 844.36172687 -207.4375 844.25 C-208.2982312 844.24906593 -209.1589624 844.24813187 -210.04577637 844.24716949 C-235.48741865 844.21767119 -260.75619096 843.19865382 -286.10565186 840.93859863 C-289.64573335 840.68000305 -293.13974396 840.68177392 -296.6875 840.75 C-296.6875 841.41 -296.6875 842.07 -296.6875 842.75 C-300.11645693 843.89298564 -303.12273812 843.89844697 -306.6875 843.875 C-307.44369629 843.87234131 -308.19989258 843.86968262 -308.97900391 843.86694336 C-330.21498604 843.70695456 -351.48806804 842.98773081 -372.6875 841.75 C-372.6875 841.09 -372.6875 840.43 -372.6875 839.75 C-358.07490878 839.60797698 -343.49764176 839.90141667 -328.89501953 840.39428711 C-328.19309479 840.4172435 -327.49117004 840.44019989 -326.76797485 840.46385193 C-324.86152302 840.52655426 -322.95517052 840.59225727 -321.04882812 840.65820312 C-314.93030145 840.82519096 -308.807683 840.7669296 -302.6875 840.75 C-303.4823027 840.72938507 -304.27710541 840.70877014 -305.09599304 840.68753052 C-381.78761558 838.68901842 -381.78761558 838.68901842 -409.6875 836.75 C-410.78642578 836.67813477 -411.88535156 836.60626953 -413.01757812 836.53222656 C-431.26142195 835.30655656 -456.11310577 833.5490296 -469.6875 819.75 C-475.04510441 812.68709293 -476.51799671 806.57699361 -475.6875 797.75 C-472.23898031 784.95308355 -461.20137085 776.17578317 -451.6875 767.75 C-450.8934375 767.04230469 -450.099375 766.33460938 -449.28125 765.60546875 C-445.47673496 762.24725259 -441.60178909 758.9792885 -437.6875 755.75 C-439.3375 755.75 -440.9875 755.75 -442.6875 755.75 C-442.3575 754.76 -442.0275 753.77 -441.6875 752.75 C-439.125 751.5625 -439.125 751.5625 -436.6875 750.75 C-436.95377197 750.25822266 -437.22004395 749.76644531 -437.49438477 749.25976562 C-442.99047457 739.06946871 -448.29236691 728.88178244 -452.69335938 718.16455078 C-453.40744135 716.43020139 -454.13126188 714.69984969 -454.86132812 712.97216797 C-466.59259992 685.10815866 -476.17353255 655.51110223 -481.6875 625.75 C-481.92130371 624.51088867 -482.15510742 623.27177734 -482.39599609 621.99511719 C-485.69965697 604.30762358 -488.22395146 586.5932811 -490 568.6875 C-490.12183151 567.46682831 -490.12183151 567.46682831 -490.24612427 566.22149658 C-492.24222748 545.91331608 -492.89470032 525.71546718 -492.875 505.3125 C-492.87439575 504.14948364 -492.8737915 502.98646729 -492.87316895 501.78820801 C-492.84501122 481.71174697 -492.33038074 461.76004709 -490.6875 441.75 C-490.62433594 440.97855652 -490.56117188 440.20711304 -490.49609375 439.41229248 C-489.42501452 426.5032282 -488.10847065 413.62479502 -486.6875 400.75 C-486.5854425 399.81377808 -486.48338501 398.87755615 -486.37823486 397.91296387 C-483.37160651 370.41963236 -479.06471049 343.55621342 -472.80908203 316.61425781 C-471.72901117 311.95667649 -470.70139588 307.28870295 -469.68359375 302.6171875 C-465.98045382 285.7281116 -461.70017609 269.06181183 -456.97584534 252.43069458 C-456.76338669 251.68270599 -456.55092804 250.93471741 -456.33203125 250.1640625 C-456.11767929 249.40970917 -455.90332733 248.65535583 -455.68247986 247.87814331 C-453.77046517 241.1151095 -451.96978867 234.32462836 -450.18041992 227.52828979 C-443.11164945 200.68534861 -435.35853026 175.57624868 -422.6875 150.75 C-422.12264893 149.62295654 -422.12264893 149.62295654 -421.54638672 148.47314453 C-413.87048215 133.16914888 -404.39789867 119.08158213 -393.6875 105.75 C-392.90246094 104.76 -392.11742187 103.77 -391.30859375 102.75 C-387.57069079 98.09501425 -383.77666851 93.66692115 -379.46850586 89.53295898 C-377.69187281 87.75437761 -376.06641652 85.90626092 -374.4375 83.9921875 C-370.92515399 79.95581093 -367.2171588 76.21778894 -363.3125 72.5625 C-362.28636597 71.60138306 -362.28636597 71.60138306 -361.23950195 70.62084961 C-353.80671077 63.7739025 -345.83496819 57.7124448 -337.6875 51.75 C-336.84533936 51.1223877 -336.00317871 50.49477539 -335.13549805 49.84814453 C-294.37959714 19.7110989 -245.08537319 1.92903156 -194.6875 -2.25 C-193.92050781 -2.31912598 -193.15351563 -2.38825195 -192.36328125 -2.45947266 C-187.8057092 -2.86456642 -183.2602157 -3.10147675 -178.6875 -3.25 C-177.95402344 -3.27723145 -177.22054688 -3.30446289 -176.46484375 -3.33251953 C-163.66892701 -3.75149621 -150.99638971 -2.9640944 -138.25 -1.9375 C-137.49054077 -1.87864624 -136.73108154 -1.81979248 -135.9486084 -1.75915527 C-121.33952601 -0.60694968 -107.41639324 2.13034057 -93.25 5.9375 C-92.22068359 6.21013672 -91.19136719 6.48277344 -90.13085938 6.76367188 C-87.64863518 7.42174992 -85.16756594 8.08384388 -82.6875 8.75 C-82.30875732 8.28674316 -81.93001465 7.82348633 -81.53979492 7.34619141 C-60.33579196 -18.07736499 -25.53740873 -18.45816107 0 0 Z M-42.6875 16.75 C-41.83091797 17.17732422 -41.83091797 17.17732422 -40.95703125 17.61328125 C-39.83361328 18.17595703 -39.83361328 18.17595703 -38.6875 18.75 C-37.64142578 19.26626953 -37.64142578 19.26626953 -36.57421875 19.79296875 C-29.63854181 23.40247735 -23.89212516 27.45790065 -20.875 34.875 C-18.56452103 40.15316085 -13.79204192 41.72376962 -8.6875 43.75 C-9.31856776 34.91505135 -12.08027032 28.39062499 -18.65234375 22.29296875 C-26.05587654 16.67992566 -33.66646606 16.1919979 -42.6875 16.75 Z M-184.6875 25.75 C-184.6875 26.08 -184.6875 26.41 -184.6875 26.75 C-183.45169189 26.77187378 -183.45169189 26.77187378 -182.19091797 26.79418945 C-141.4438854 27.59598407 -98.6373221 33.49279532 -62.49609375 53.75683594 C-60.56207277 54.81887662 -58.60103882 55.80755546 -56.625 56.7890625 C-36.98998827 66.63833288 -19.02234545 79.8810334 -2.8828125 94.7421875 C-0.8377661 96.61256802 1.25121487 98.40764769 3.375 100.1875 C6.3125 102.75 6.3125 102.75 7.3125 104.75 C7.9725 104.75 8.6325 104.75 9.3125 104.75 C9.57804688 105.34554687 9.84359375 105.94109375 10.1171875 106.5546875 C11.34696248 108.81329384 12.56024053 110.13744356 14.4375 111.875 C18.00166165 115.33649033 21.03338462 119.06089882 24.09375 122.96875 C26.07355791 125.45048104 28.1110902 127.86874181 30.18359375 130.27319336 C36.36116925 137.44937482 42.04494946 144.9279283 47.66748047 152.54296875 C49.38454438 154.84665794 51.12829761 157.12796395 52.87890625 159.40625 C62.35518733 171.78211111 71.00151378 184.56667895 79.3125 197.75 C79.9307666 198.72437012 80.5490332 199.69874023 81.18603516 200.70263672 C88.74096573 212.65323521 95.54645495 224.64767465 101.30078125 237.56542969 C102.38489737 239.90632521 103.56457523 242.1835634 104.75390625 244.47265625 C107.74961908 250.42351436 109.97833237 256.59727835 112.1875 262.875 C112.62022217 264.09767578 113.05294434 265.32035156 113.4987793 266.58007812 C119.2511813 283.04535626 123.93113939 299.75627513 128.0703125 316.69140625 C131.37507125 330.21111575 134.89295532 343.65075019 139.00732422 356.94750977 C140.39874777 361.50533087 141.6633563 366.068102 142.7890625 370.69921875 C149.7848022 399.47173454 159.37669987 427.56503213 173.3125 453.75 C173.69728516 454.47574219 174.08207031 455.20148438 174.47851562 455.94921875 C177.1556222 460.99969298 177.1556222 460.99969298 180.3125 465.75 C180.9725 465.75 181.6325 465.75 182.3125 465.75 C182.9725 467.73 183.6325 469.71 184.3125 471.75 C184.9725 471.75 185.6325 471.75 186.3125 471.75 C186.38210938 472.46542969 186.45171875 473.18085938 186.5234375 473.91796875 C187.54659886 477.5902063 189.3091324 479.31899243 191.9375 482.0625 C192.86007833 483.03839808 193.78195125 484.0149635 194.703125 484.9921875 C195.56421875 485.90226562 196.4253125 486.81234375 197.3125 487.75 C198.44559272 489.05551987 199.5716256 490.36723276 200.6875 491.6875 C214.63353742 507.62582847 230.84719623 519.05165781 249.03271484 529.76391602 C250.81126678 530.81177343 252.58743496 531.86358066 254.36328125 532.91601562 C260.00305458 536.25211441 265.66443627 539.53623229 271.40722656 542.69213867 C274.1172784 544.19683557 276.77103939 545.79461734 279.4375 547.375 C285.7650572 551.0399312 292.28699833 554.26922439 298.875 557.4375 C299.80779785 557.88883301 300.7405957 558.34016602 301.70166016 558.80517578 C308.77452094 562.16598626 315.97003241 565.03466684 323.3125 567.75 C324.35148941 568.13637131 324.35148941 568.13637131 325.41146851 568.5305481 C344.91155913 575.76992836 364.08649043 582.48271707 384.5546875 586.39453125 C396.97097084 588.78199572 409.1469819 592.33799309 421.3125 595.75 C422.18455078 595.99105469 423.05660156 596.23210938 423.95507812 596.48046875 C433.69431661 599.19724703 442.43734118 602.93799983 451.3125 607.75 C450.72015865 610.96199181 449.74506934 612.74640541 447.58203125 615.17578125 C447.02580078 615.80806641 446.46957031 616.44035156 445.89648438 617.09179688 C445.31189453 617.74212891 444.72730469 618.39246094 444.125 619.0625 C442.98550907 620.35011175 441.84618542 621.63787156 440.70703125 622.92578125 C440.14234131 623.5585498 439.57765137 624.19131836 438.99584961 624.84326172 C437.34232726 626.71621452 435.72765966 628.61734845 434.1171875 630.52734375 C432.09052413 632.90030817 430.04664871 635.01914578 427.625 637 C424.18231162 639.92266471 420.97974084 643.03494355 417.8125 646.25 C414.1737226 649.933296 410.4669382 653.46040668 406.5234375 656.81640625 C404.76236132 658.35657005 403.05195562 659.92189372 401.3515625 661.52734375 C395.11609911 667.40756898 388.84921738 672.81324725 381.87109375 677.8125 C379.45986323 679.63840891 377.43020933 681.59985311 375.3125 683.75 C374.6525 684.08 373.9925 684.41 373.3125 684.75 C373.3125 685.41 373.3125 686.07 373.3125 686.75 C372.50039062 686.85634766 372.50039062 686.85634766 371.671875 686.96484375 C368.40930711 688.05056584 366.15629731 690.13482404 363.5625 692.3125 C355.84746481 698.61327327 347.56954007 704.0160894 339.22558594 709.44165039 C338.21657227 710.10156982 337.20755859 710.76148926 336.16796875 711.44140625 C335.25684326 712.03123291 334.34571777 712.62105957 333.40698242 713.22875977 C331.20390903 714.58311758 331.20390903 714.58311758 330.3125 716.75 C334.572007 715.24242168 338.18994881 713.03947556 341.9375 710.5625 C343.19114608 709.74309141 344.44505497 708.92408476 345.69921875 708.10546875 C346.31458496 707.70247559 346.92995117 707.29948242 347.56396484 706.88427734 C349.9369458 705.34492109 352.34520371 703.86402679 354.75 702.375 C361.85856007 697.85516665 368.58242562 692.80871603 375.3125 687.75 C375.86695801 687.33347168 376.42141602 686.91694336 376.99267578 686.48779297 C380.79927703 683.61691846 384.56596895 680.69847224 388.3125 677.75 C388.93237793 677.26305664 389.55225586 676.77611328 390.19091797 676.27441406 C399.78627063 668.70227865 408.82613666 660.70428299 417.68164062 652.28369141 C419.89249177 650.20456462 422.16182943 648.19522871 424.4375 646.1875 C430.14127952 641.09518093 435.493957 635.65575547 440.86206055 630.21484375 C442.19417556 628.86949952 443.53794898 627.53572533 444.8828125 626.203125 C447.45051575 623.6106529 449.92115523 620.95036705 452.375 618.25 C453.21160156 617.3321875 454.04820312 616.414375 454.91015625 615.46875 C455.70292969 614.5715625 456.49570312 613.674375 457.3125 612.75 C458.48619141 611.43515625 458.48619141 611.43515625 459.68359375 610.09375 C460.22113281 609.3203125 460.75867188 608.546875 461.3125 607.75 C460.56837388 604.42485993 460.56837388 604.42485993 457.08203125 602.83984375 C451.25387057 600.11295372 445.12741426 598.24157733 439 596.3125 C437.13311523 595.72045776 437.13311523 595.72045776 435.22851562 595.11645508 C421.10509738 590.68144629 407.03518714 587.01224919 392.50756836 584.19140625 C379.50976507 581.64855126 367.08622095 577.79556631 354.5703125 573.52734375 C351.30606109 572.41450376 348.03592306 571.33857517 344.7421875 570.31640625 C332.45803637 566.4681284 320.91311928 561.306894 309.3125 555.75 C308.5297168 555.37520508 307.74693359 555.00041016 306.94042969 554.61425781 C299.58127327 551.06522968 292.39993431 547.34345102 285.44921875 543.03515625 C283.53949816 541.88653089 281.63571779 540.89355558 279.625 539.9375 C272.93590225 536.68008366 266.6522 532.63092241 260.3125 528.75 C259.64589355 528.34442871 258.97928711 527.93885742 258.29248047 527.52099609 C244.78276883 519.28815752 231.7560255 510.76304805 220.3125 499.75 C219.84102539 499.30430664 219.36955078 498.85861328 218.88378906 498.39941406 C203.76564588 484.06816187 192.09987425 467.10872944 182.3125 448.75 C181.85246582 447.90276367 181.39243164 447.05552734 180.91845703 446.18261719 C166.2388415 418.78130182 157.41057179 388.57771611 150.0234375 358.4921875 C147.9739263 350.22139385 145.56293562 342.05658678 143.1875 333.875 C140.44006146 324.39651418 137.75828147 314.93752694 135.5625 305.3125 C127.11221195 268.54437381 113.10091539 232.3199314 92.3125 200.75 C91.56250958 199.60459247 90.81268429 198.45907681 90.06298828 197.31347656 C80.82421363 183.21713074 71.56069029 169.13984863 61.3125 155.75 C60.88291992 155.18587402 60.45333984 154.62174805 60.01074219 154.04052734 C57.87873657 151.24139011 55.73687911 148.45043946 53.578125 145.671875 C52.20315136 143.89863313 50.83623488 142.11905049 49.484375 140.328125 C45.52472554 135.11026917 41.21719816 130.30983064 36.77734375 125.49609375 C34.55568008 123.02092804 32.48154892 120.49699206 30.4375 117.875 C18.00652684 102.13076145 3.32312051 88.759072 -12.6875 76.75 C-13.2664502 76.31413574 -13.84540039 75.87827148 -14.44189453 75.42919922 C-22.81981049 69.16505274 -31.46081077 63.70216616 -40.6875 58.75 C-41.56180664 58.27739746 -42.43611328 57.80479492 -43.33691406 57.31787109 C-54.21848031 51.45785899 -64.94968174 45.70555456 -76.6875 41.75 C-78.36382578 41.13298781 -80.03954918 40.5143379 -81.71484375 39.89453125 C-98.06163551 33.9933142 -114.58648783 30.53479785 -131.6875 27.75 C-132.57179688 27.60304687 -133.45609375 27.45609375 -134.3671875 27.3046875 C-150.92431551 24.68453593 -167.97931458 25.56192622 -184.6875 25.75 Z M44.3125 87.75 C46.44211348 88.82959572 48.57787938 89.87120693 50.75 90.86328125 C55.77462886 93.21474628 59.1014862 95.06727154 62.3125 99.75 C62.9725 99.75 63.6325 99.75 64.3125 99.75 C64.97916667 101.75 65.64583333 103.75 66.3125 105.75 C66.55355469 106.4615625 66.79460938 107.173125 67.04296875 107.90625 C67.42388672 109.03546875 67.42388672 109.03546875 67.8125 110.1875 C68.07160156 110.95449219 68.33070313 111.72148437 68.59765625 112.51171875 C69.22762752 114.48425175 69.74778431 116.49113723 70.25 118.5 C71.39682622 122.00793902 72.75310927 124.11062831 75.3125 126.75 C75.9725 126.75 76.6325 126.75 77.3125 126.75 C79.70315654 118.70339995 79.2351306 109.62885129 75.69140625 102.03515625 C71.41868483 94.95430065 66.0645887 90.86726362 58.2109375 88.359375 C53.55690707 87.3808996 49.03925941 87.42086395 44.3125 87.75 Z M-342.6875 183.75 C-345.67643544 188.81558537 -345.35498689 194.04474362 -344.6875 199.75 C-342.73568144 206.25000973 -339.45291578 210.88038598 -333.79296875 214.62890625 C-327.90324781 217.76499143 -322.14618513 218.48647434 -315.6875 216.75 C-311.04312086 214.99063914 -307.2345346 213.20731056 -304.6875 208.75 C-305.574375 209.08 -306.46125 209.41 -307.375 209.75 C-314.42947616 211.72869453 -322.67582903 212.18603885 -329.3125 208.8125 C-330.42625 208.131875 -331.54 207.45125 -332.6875 206.75 C-333.6775 206.42 -334.6675 206.09 -335.6875 205.75 C-336.6875 204.125 -336.6875 204.125 -337.6875 201.75 C-338.203125 200.739375 -338.71875 199.72875 -339.25 198.6875 C-341.30904173 193.9246661 -341.41881305 188.87358215 -341.6875 183.75 C-342.0175 183.75 -342.3475 183.75 -342.6875 183.75 Z M-115.6875 183.75 C-118.45198939 189.93401844 -118.85449945 195.96132271 -116.84765625 202.4765625 C-113.80010609 209.26941841 -109.58002009 213.70749161 -102.67578125 216.58984375 C-95.19995183 218.83699876 -89.0393156 217.27745108 -82.25390625 213.78515625 C-80.51652467 212.82441759 -80.51652467 212.82441759 -79.6875 210.75 C-80.38230469 210.90855469 -81.07710938 211.06710938 -81.79296875 211.23046875 C-90.66841557 212.82349767 -97.97255397 212.46468924 -105.6875 207.75 C-106.6775 207.42 -107.6675 207.09 -108.6875 206.75 C-109.6875 205.125 -109.6875 205.125 -110.6875 202.75 C-111.203125 201.76 -111.71875 200.77 -112.25 199.75 C-114.44246082 194.68962327 -114.42850573 189.18887958 -114.6875 183.75 C-115.0175 183.75 -115.3475 183.75 -115.6875 183.75 Z M118.3125 186.75 C118.3125 187.41 118.3125 188.07 118.3125 188.75 C119.98369979 189.85025609 121.70168624 190.87980011 123.4375 191.875 C130.3992746 196.19702716 135.09151197 201.32687497 137.796875 209.20703125 C138.6534484 213.43149549 138.8117223 217.7266545 138.93481445 222.02734375 C139.07162732 226.01860547 139.56899244 229.14395023 141.3125 232.75 C146.06356371 228.8180852 147.90616142 224.0692477 148.63671875 218.1015625 C148.99278677 209.33492224 146.51710883 203.17234906 141 196.4375 C135.6396945 190.67631695 128.92842631 186.92096023 120.9375 186.625 C119.638125 186.686875 119.638125 186.686875 118.3125 186.75 Z M-219.6875 186.75 C-224.61746743 188.60637635 -226.65574005 190.54996075 -229.046875 195.1875 C-229.60503906 196.24710938 -230.16320312 197.30671875 -230.73828125 198.3984375 C-231.57939453 200.05746094 -231.57939453 200.05746094 -232.4375 201.75 C-233.57735161 203.93790309 -234.7179432 206.12542088 -235.859375 208.3125 C-236.3553418 209.28316406 -236.85130859 210.25382812 -237.36230469 211.25390625 C-238.6875 213.75 -238.6875 213.75 -240.6875 216.75 C-232.72013363 214.52654892 -229.25997268 210.673985 -225.24609375 203.69921875 C-222.49336329 198.490418 -220.06855347 193.13692239 -217.6875 187.75 C-218.3475 187.42 -219.0075 187.09 -219.6875 186.75 Z M-293.9375 227.9375 C-296.08396869 231.38718183 -296.61627812 233.69035303 -296.6875 237.75 C-295.47223539 241.88189968 -293.83677676 243.98938629 -290.1875 246.125 C-285.15089724 248.39898856 -280.10458871 248.10848381 -274.6875 247.75 C-276.86286501 246.65538958 -279.0401403 245.58658132 -281.25 244.5625 C-284.47259382 242.16621229 -285.87431078 239.60895246 -286.6875 235.75 C-286.67349261 231.53377687 -286.0186817 227.74354509 -284.6875 223.75 C-288.63425487 223.75 -291.14664193 225.22416577 -293.9375 227.9375 Z M-205.6875 226.75 C-207.0075 228.4 -208.3275 230.05 -209.6875 231.75 C-207.10988575 237.65438733 -202.34356673 240.55911869 -196.5859375 243.140625 C-190.45001457 245.5977742 -190.45001457 245.5977742 -184.0625 247.19921875 C-181.38173178 247.69280614 -179.87187505 248.08845711 -177.6875 249.75 C-176.10466138 252.81788172 -174.8556092 255.76310577 -173.80102539 259.04052734 C-172.22470544 263.92057414 -170.36199419 267.10906284 -166.6875 270.75 C-162.97676495 271.25196294 -162.97676495 271.25196294 -159.6875 270.75 C-159.6875 266.58274588 -160.6149583 264.66641336 -162.59765625 261.1015625 C-163.6875 258.75 -163.6875 258.75 -164.24609375 255.9609375 C-164.97187918 252.61601335 -165.63398227 250.51267745 -167.6875 247.75 C-172.31494343 245.30433217 -177.64000851 244.43127556 -182.70117188 243.26074219 C-192.09625409 240.84499588 -199.03700016 233.40049984 -205.6875 226.75 Z M-156.6875 247.75 C-156.213125 249.19375 -155.73875 250.6375 -155.25 252.125 C-154.98316406 252.93710937 -154.71632813 253.74921875 -154.44140625 254.5859375 C-153.73570271 256.76031799 -153.73570271 256.76031799 -152.6875 258.75 C-152.0275 258.75 -151.3675 258.75 -150.6875 258.75 C-149.3675 255.12 -148.0475 251.49 -146.6875 247.75 C-149.9875 247.75 -153.2875 247.75 -156.6875 247.75 Z M167.3125 305.75 C168.24429168 309.71011465 169.81076763 311.25933576 173.0625 313.4375 C178.3856634 317.17050166 181.9153065 322.52454814 183.95703125 328.69921875 C185.31355444 336.52531408 184.82603532 344.56175802 181.3125 351.75 C180.6525 352.41 179.9925 353.07 179.3125 353.75 C179.63291397 356.35280568 179.63291397 356.35280568 180.3125 358.75 C185.98787153 356.85820949 189.58146989 350.74513763 192.5 345.6953125 C195.55635795 338.61279072 195.3040593 330.77141158 192.8125 323.5625 C189.45922401 316.13570213 183.67647536 310.75172754 176.27734375 307.42578125 C173.28482077 306.39654372 170.4629195 306.01253496 167.3125 305.75 Z M-19.6875 399.75 C-23.75983471 404.87007131 -26.52204413 410.20412043 -29.25 416.125 C-32.96881146 424.05592099 -36.74832901 431.9519641 -40.60546875 439.81640625 C-41.04149918 440.70610107 -41.4775296 441.5957959 -41.92677307 442.51245117 C-43.6952154 446.11957133 -45.46428158 449.72636975 -47.23880005 453.33050537 C-51.84492625 462.68914799 -56.37639946 472.05221507 -60.46990967 481.64854431 C-61.93289057 485.07576138 -63.4900538 488.40285707 -65.25 491.6875 C-76.42283655 513.66804773 -86.65815511 546.09772831 -79.125 570.5 C-74.31178333 582.06181767 -67.68240856 590.85486636 -56.0625 596 C-42.96381533 600.66804123 -30.40532498 601.14868813 -16.6875 600.75 C-16.6875 600.42 -16.6875 600.09 -16.6875 599.75 C-17.61949219 599.72421875 -18.55148437 599.6984375 -19.51171875 599.671875 C-34.28239165 599.01473687 -49.39781671 595.7291806 -60 584.625 C-71.33326953 570.82494079 -72.8538295 555.87909647 -71.6875 538.75 C-69.21550215 516.34663662 -58.73172014 493.30187242 -48.5625 473.4375 C-44.81013106 466.01812946 -41.13059666 458.57225588 -37.5625 451.0625 C-34.18117952 443.94608791 -30.76934108 436.8455266 -27.3203125 429.76171875 C-26.93906219 428.97847733 -26.55781189 428.1952359 -26.16500854 427.38825989 C-24.25797088 423.47166455 -22.34866863 419.55618831 -20.43701172 415.6418457 C-19.72879119 414.18833814 -19.02061851 412.73480726 -18.3125 411.28125 C-17.99105011 410.62481003 -17.66960022 409.96837006 -17.33840942 409.29203796 C-15.32743836 405.15965145 -13.46853525 400.98678785 -11.6875 396.75 C-14.9611527 396.75 -16.90798445 398.06049055 -19.6875 399.75 Z M-397.1875 421.9140625 C-399.26806793 424.46059096 -399.83194104 426.42841427 -399.94921875 429.6875 C-399.11617217 436.2524044 -394.50086225 441.55550937 -390.75 446.76953125 C-387.77886782 451.06304234 -385.054746 455.50175801 -382.32763672 459.953125 C-379.94682759 463.81773812 -377.43760215 467.52874948 -374.77246094 471.20239258 C-373.47033322 473.05977052 -372.40476578 474.98022773 -371.375 477 C-369.5526521 480.35960457 -367.54661887 483.38348555 -365.25 486.4375 C-361.08857532 492.0415519 -357.31549227 497.86595868 -353.5625 503.75 C-352.68380249 505.12031372 -352.68380249 505.12031372 -351.78735352 506.51831055 C-348.31585808 511.99140657 -345.09948571 517.54769369 -342.03613281 523.25878906 C-340.90686343 525.34478921 -339.74338283 527.39366409 -338.52734375 529.4296875 C-330.53939429 542.84681821 -322.95473722 558.72904581 -324.6875 574.75 C-325.6875 578.375 -325.6875 578.375 -326.6875 580.75 C-321.70006118 579.47414356 -319.02887482 577.66418193 -315.6875 573.75 C-311.24678237 560.4278471 -319.50584278 545.00443182 -325.3515625 533.29296875 C-332.27327635 519.73864751 -340.52884779 507.17204682 -348.89355469 494.47705078 C-351.32086903 490.78718942 -353.72711258 487.08403174 -356.125 483.375 C-356.54942383 482.71927002 -356.97384766 482.06354004 -357.41113281 481.38793945 C-360.14455357 477.15795578 -362.86042497 472.91697215 -365.5703125 468.671875 C-366.25536865 467.5988916 -366.9404248 466.5259082 -367.64624023 465.42041016 C-369.03942306 463.23807503 -370.43216996 461.05546156 -371.82446289 458.87255859 C-376.04625209 452.26811519 -380.31582696 445.70225931 -384.76977539 439.25146484 C-388.57605691 433.66440245 -390.17447911 429.56770756 -389.6875 422.75 C-388.6875 419.8125 -388.6875 419.8125 -387.6875 417.75 C-392.518137 417.75 -393.76449901 418.77139349 -397.1875 421.9140625 Z M200.3125 420.75 C202.48843474 422.92593474 204.19945555 423.64842157 207 424.875 C214.85348318 428.76207754 219.63706995 434.64280435 222.6875 442.828125 C223.72189314 447.66391295 223.33523604 452.43574964 222.96484375 457.33203125 C223.40983784 461.70697313 224.98703504 463.01781048 228.3125 465.75 C232.84706197 458.42992139 234.51735332 452.34310483 233.3125 443.75 C231.55390301 436.5914758 228.07538077 430.41617455 222.3125 425.75 C215.14863433 421.59718083 208.54544694 419.9303482 200.3125 420.75 Z M289.3125 502.75 C291.90218864 504.47645909 294.23902178 505.62109507 297.0625 506.875 C303.86208259 510.25496744 308.24898925 514.91314195 311.125 521.9375 C313.44318472 527.16114289 318.25010665 528.74050035 323.3125 530.75 C322.88134406 521.43703165 320.20068907 514.6893787 313.27734375 508.29296875 C305.79013342 502.4133503 298.59294085 502.23362308 289.3125 502.75 Z M397.3125 545.75 C397.3125 546.41 397.3125 547.07 397.3125 547.75 C397.9415625 547.95753906 398.570625 548.16507813 399.21875 548.37890625 C405.83602291 550.76072587 413.00793124 554.14086248 416.3125 560.75 C418.47717461 561.37669199 420.67114524 561.90427374 422.875 562.375 C424.07253906 562.63539063 425.27007813 562.89578125 426.50390625 563.1640625 C427.43074219 563.35742188 428.35757813 563.55078125 429.3125 563.75 C424.58190001 555.16080002 419.24290151 549.88157783 409.95703125 546.4296875 C405.72536788 545.34208126 401.64438018 545.41819641 397.3125 545.75 Z M-430.5 586.5 C-433.79576072 591.39655878 -433.54522157 596.01597247 -432.6875 601.75 C-430.39071374 606.00330788 -428.14664077 607.22115903 -423.6875 608.75 C-421.25180979 609.14262175 -421.25180979 609.14262175 -418.71142578 609.25244141 C-417.74496124 609.3123526 -416.7784967 609.37226379 -415.78274536 609.43399048 C-414.74326752 609.48928925 -413.70378967 609.54458801 -412.6328125 609.6015625 C-411.54024139 609.66532074 -410.44767029 609.72907898 -409.32199097 609.79476929 C-407.00053864 609.9281785 -404.6788396 610.05735182 -402.35693359 610.18261719 C-398.88695255 610.37095891 -395.41817259 610.57494767 -391.94921875 610.78125 C-377.51561964 611.60852561 -363.14354088 611.93765898 -348.6875 611.75 C-348.6875 611.42 -348.6875 611.09 -348.6875 610.75 C-349.48850128 610.70654953 -350.28950256 610.66309906 -351.11477661 610.61833191 C-358.67780544 610.20571351 -366.23996113 609.78036202 -373.8014698 609.3408308 C-377.68858531 609.11532977 -381.57584797 608.8946946 -385.46386719 608.68530273 C-389.21877436 608.48289797 -392.97273896 608.26755108 -396.7264061 608.04335976 C-398.15580256 607.96024302 -399.58547447 607.88172649 -401.01538467 607.80797386 C-403.02411871 607.70356403 -405.03188417 607.58100573 -407.03955078 607.45776367 C-408.18094513 607.39336594 -409.32233948 607.3289682 -410.49832153 607.26261902 C-415.43436408 606.46921429 -418.71318452 604.82687501 -422.0625 601.125 C-424.68733234 595.67342515 -424.28726916 590.49876396 -422.6875 584.75 C-426.12110355 584.25948521 -427.5184346 584.64480375 -430.5 586.5 Z M323.78515625 718.953125 C323.08447021 719.43346191 322.38378418 719.91379883 321.66186523 720.40869141 C320.90719971 720.93382324 320.15253418 721.45895508 319.375 722 C311.62928886 727.29696388 303.71258948 732.20060899 295.59985352 736.91503906 C294.79217529 737.3890918 293.98449707 737.86314453 293.15234375 738.3515625 C292.43425537 738.76744629 291.71616699 739.18333008 290.97631836 739.61181641 C289.1551618 740.65990881 289.1551618 740.65990881 288.3125 742.75 C294.25718169 740.51931874 299.53539754 737.26267243 305 734.0625 C306.03833984 733.46244141 307.07667969 732.86238281 308.14648438 732.24414062 C319.99321305 725.52155685 319.99321305 725.52155685 330.3125 716.75 C327.00844585 716.75 326.39239898 717.13407048 323.78515625 718.953125 Z M280.75 745.625 C279.75871094 746.15867187 278.76742187 746.69234375 277.74609375 747.2421875 C275.20908458 748.51951569 275.20908458 748.51951569 274.3125 750.75 C277.4713274 749.56543972 280.52524705 748.21399962 283.5625 746.75 C284.24828125 746.42 284.9340625 746.09 285.640625 745.75 C287.487128 744.84910688 287.487128 744.84910688 288.3125 742.75 C285.31673454 742.75 283.36161593 744.20172039 280.75 745.625 Z M272.3125 750.75 C271.9825 751.41 271.6525 752.07 271.3125 752.75 C272.3025 752.42 273.2925 752.09 274.3125 751.75 C273.6525 751.42 272.9925 751.09 272.3125 750.75 Z M-18.875 766.375 C-23.30615555 770.61993594 -27.73964089 774.70429424 -32.5625 778.5 C-40.00846469 784.47008794 -49.45032376 792.50825288 -51.140625 802.40234375 C-51.40204796 804.85490388 -51.58834765 807.28606399 -51.6875 809.75 C-47.2325 809.255 -47.2325 809.255 -42.6875 808.75 C-42.67332031 808.06035156 -42.65914063 807.37070312 -42.64453125 806.66015625 C-42.05667777 795.0778539 -36.83407315 787.72946395 -28.6875 779.75 C-26.0747571 777.51225296 -23.40664315 775.36349443 -20.7109375 773.2265625 C-17.22927837 770.37466083 -13.92121236 767.37480832 -10.625 764.3125 C-10.06466064 763.79196045 -9.50432129 763.2714209 -8.92700195 762.73510742 C-6.81826048 760.76714333 -4.72718871 758.78968871 -2.6875 756.75 C-9.6984885 756.75 -14.17387791 761.78467877 -18.875 766.375 Z M-418.6875 777.75 C-421.6575 780.225 -421.6575 780.225 -424.6875 782.75 C-412.18367705 798.36944262 -412.18367705 798.36944262 -395.6875 808.75 C-392.00543209 808.97470317 -388.37064249 808.92694813 -384.6875 808.75 C-385.37585938 808.20472656 -386.06421875 807.65945313 -386.7734375 807.09765625 C-396.6198586 799.16508376 -405.88234474 790.82378712 -414.6875 781.75 C-416.01857536 780.41441252 -417.35109094 779.08025049 -418.6875 777.75 Z " fill="#BBDCD2" transform="translate(508.6875,27.25)"/>
<path d="M0 0 C12.43271675 10.14598492 19.19617656 24.01095593 21.3125 39.75 C21.81389838 46.34776599 21.49321957 52.4206949 19.75 58.8125 C19.16565942 61.06924716 19.16565942 61.06924716 19.3125 64.75 C22.7793075 64.15586515 25.72716307 63.23514095 28.9375 61.8125 C43.39699904 55.90408657 58.45273015 56.67758631 72.96875 62.12109375 C88.62629169 69.34365446 99.14716036 80.82968568 105.1875 97 C110.02899747 110.91529737 109.91030541 126.05091032 103.625 139.47265625 C101.93268022 142.94042263 100.13218668 146.34740515 98.3125 149.75 C97.64065371 151.08073092 96.97128893 152.4127568 96.3125 153.75 C96.8075 154.36875 97.3025 154.9875 97.8125 155.625 C99.3125 157.75 99.3125 157.75 99.3125 159.75 C100.90578125 159.42515625 100.90578125 159.42515625 102.53125 159.09375 C103.95825528 158.81210422 105.38534313 158.53087662 106.8125 158.25 C107.50859375 158.10691406 108.2046875 157.96382812 108.921875 157.81640625 C123.35800066 155.00938182 137.80573413 157.76425853 150.265625 165.609375 C155.78381128 169.49924402 160.85472296 173.67048037 165.3125 178.75 C165.76109375 179.25660156 166.2096875 179.76320312 166.671875 180.28515625 C175.54965506 191.43718244 178.64480059 207.81841231 177.3125 221.75 C174.87803358 236.39014739 169.73928827 247.11803343 159.3125 257.75 C158.60222656 258.50539063 157.89195312 259.26078125 157.16015625 260.0390625 C155.3125 261.75 155.3125 261.75 153.3125 261.75 C153.85390625 263.12285156 153.85390625 263.12285156 154.40625 264.5234375 C154.8703125 265.71195312 155.334375 266.90046875 155.8125 268.125 C156.2765625 269.30835938 156.740625 270.49171875 157.21875 271.7109375 C158.3125 274.75 158.3125 274.75 158.3125 276.75 C159.3025 276.42 160.2925 276.09 161.3125 275.75 C178.910341 274.79011776 193.11349217 281.27391645 206.34375 292.46875 C217.2139 302.57608246 222.4233573 317.14434795 223.53515625 331.65625 C223.90611924 343.91415753 220.34756185 354.70470622 215.3125 365.75 C214.6525 365.75 213.9925 365.75 213.3125 365.75 C212.95285156 366.83667969 212.95285156 366.83667969 212.5859375 367.9453125 C208.26905055 377.45305737 198.20422923 383.13607865 189.3125 387.75 C189.6425 389.07 189.9725 390.39 190.3125 391.75 C191.52164063 391.64300781 192.73078125 391.53601563 193.9765625 391.42578125 C212.25133785 390.00330617 227.72029931 392.85902001 242.2265625 404.8515625 C253.43241709 415.05014926 261.29636897 427.38411613 262.3125 442.75 C262.92374101 458.0865925 261.07634723 471.45101898 251.58984375 484.03515625 C250.11337795 485.66094074 250.11337795 485.66094074 250.3125 487.75 C252.11098408 488.54600078 252.11098408 488.54600078 254.3125 488.75 C256.30618433 487.47239606 256.30618433 487.47239606 258.125 485.5625 C266.67951245 477.66602697 277.67648032 473.61192738 289.3125 472.75 C290.45138672 472.65525391 290.45138672 472.65525391 291.61328125 472.55859375 C305.87536368 471.90359441 319.85429226 476.94534763 331.5 484.9375 C345.00575409 498.44325409 352.24172112 512.53181664 352.5 531.6875 C352.47625048 535.52067307 352.17285264 539.01262815 351.3125 542.75 C354.53736831 541.36491556 356.30632399 539.84407495 358.5 537.125 C368.97575521 524.95106974 381.15485723 518.30971212 397.3125 516.75 C398.57900391 516.62625 398.57900391 516.62625 399.87109375 516.5 C414.06286934 515.82520532 428.84705859 520.76712984 439.5 530.0625 C452.48866409 542.37828197 459.59369237 555.49228632 460.3125 573.75 C461.570625 574.100625 462.82875 574.45125 464.125 574.8125 C475.4340396 578.63552439 484.32254071 585.89225748 490.3125 596.1875 C493.01116922 605.80150908 490.83866298 613.27533896 486.16796875 621.8515625 C478.40227877 634.37989619 467.35523938 644.88891827 457 655.25 C456.06929687 656.18158936 455.13859375 657.11317871 454.1796875 658.07299805 C449.59029288 662.62505049 444.95588483 667.06033017 440.02856445 671.24609375 C438.20743203 672.84207835 436.50777546 674.52159294 434.8125 676.25 C424.50467339 686.69712156 412.6469781 695.57274515 401.00048828 704.45751953 C399.26462847 705.78665489 397.53578113 707.12446188 395.80859375 708.46484375 C395.23351074 708.91029541 394.65842773 709.35574707 394.06591797 709.81469727 C392.47166903 711.05009057 390.87838141 712.28672416 389.28515625 713.5234375 C386.35797446 715.71593897 383.36631463 717.73857468 380.3125 719.75 C379.11241074 720.57366635 377.9146137 721.40067933 376.71875 722.23046875 C369.04613252 727.54966685 361.31447188 732.73851999 353.4375 737.75 C350.07762274 739.90032144 346.76535892 742.11180283 343.47265625 744.36328125 C341.11553953 745.87643936 338.69263258 747.25252001 336.25561523 748.63208008 C332.73014391 750.66036669 329.27668847 752.80682084 325.8125 754.9375 C317.67456518 759.92394693 309.52270125 764.88331962 301.3125 769.75 C300.2915625 770.3584375 299.270625 770.966875 298.21875 771.59375 C255.10589391 796.77848771 209.09483413 814.76954448 160 823.875 C159.34109772 823.99792419 158.68219543 824.12084839 158.00332642 824.24749756 C138.37028623 827.87631121 118.67530823 830.10347131 98.75 831.25 C96.72596379 831.37183278 94.70195741 831.49416202 92.67797852 831.61694336 C87.31883152 831.93945245 81.95907986 832.25058216 76.59912109 832.55926514 C73.31846342 832.74965392 70.03810926 832.94461047 66.7578125 833.14111328 C61.1753517 833.47536071 55.59250028 833.80223201 50.00930786 834.12402344 C47.93310849 834.24408418 45.85698772 834.3655177 43.78097534 834.48876953 C28.4589584 835.39234554 13.1334456 835.98348096 -2.20475578 836.52302742 C-22.83571619 837.25012727 -43.4483335 838.15160497 -64.0625 839.2578125 C-159.82193652 844.36172687 -159.82193652 844.36172687 -207.4375 844.25 C-208.2982312 844.24906593 -209.1589624 844.24813187 -210.04577637 844.24716949 C-235.48741865 844.21767119 -260.75619096 843.19865382 -286.10565186 840.93859863 C-289.64573335 840.68000305 -293.13974396 840.68177392 -296.6875 840.75 C-296.6875 841.41 -296.6875 842.07 -296.6875 842.75 C-300.11645693 843.89298564 -303.12273812 843.89844697 -306.6875 843.875 C-307.44369629 843.87234131 -308.19989258 843.86968262 -308.97900391 843.86694336 C-330.21498604 843.70695456 -351.48806804 842.98773081 -372.6875 841.75 C-372.6875 841.09 -372.6875 840.43 -372.6875 839.75 C-358.07490878 839.60797698 -343.49764176 839.90141667 -328.89501953 840.39428711 C-328.19309479 840.4172435 -327.49117004 840.44019989 -326.76797485 840.46385193 C-324.86152302 840.52655426 -322.95517052 840.59225727 -321.04882812 840.65820312 C-314.93030145 840.82519096 -308.807683 840.7669296 -302.6875 840.75 C-303.4823027 840.72938507 -304.27710541 840.70877014 -305.09599304 840.68753052 C-381.78761558 838.68901842 -381.78761558 838.68901842 -409.6875 836.75 C-410.78642578 836.67813477 -411.88535156 836.60626953 -413.01757812 836.53222656 C-431.26142195 835.30655656 -456.11310577 833.5490296 -469.6875 819.75 C-475.04510441 812.68709293 -476.51799671 806.57699361 -475.6875 797.75 C-472.23898031 784.95308355 -461.20137085 776.17578317 -451.6875 767.75 C-450.8934375 767.04230469 -450.099375 766.33460938 -449.28125 765.60546875 C-445.47673496 762.24725259 -441.60178909 758.9792885 -437.6875 755.75 C-439.3375 755.75 -440.9875 755.75 -442.6875 755.75 C-442.3575 754.76 -442.0275 753.77 -441.6875 752.75 C-439.125 751.5625 -439.125 751.5625 -436.6875 750.75 C-436.95377197 750.25822266 -437.22004395 749.76644531 -437.49438477 749.25976562 C-442.99047457 739.06946871 -448.29236691 728.88178244 -452.69335938 718.16455078 C-453.40744135 716.43020139 -454.13126188 714.69984969 -454.86132812 712.97216797 C-466.59259992 685.10815866 -476.17353255 655.51110223 -481.6875 625.75 C-481.92130371 624.51088867 -482.15510742 623.27177734 -482.39599609 621.99511719 C-485.69965697 604.30762358 -488.22395146 586.5932811 -490 568.6875 C-490.12183151 567.46682831 -490.12183151 567.46682831 -490.24612427 566.22149658 C-492.24222748 545.91331608 -492.89470032 525.71546718 -492.875 505.3125 C-492.87439575 504.14948364 -492.8737915 502.98646729 -492.87316895 501.78820801 C-492.84501122 481.71174697 -492.33038074 461.76004709 -490.6875 441.75 C-490.62433594 440.97855652 -490.56117188 440.20711304 -490.49609375 439.41229248 C-489.42501452 426.5032282 -488.10847065 413.62479502 -486.6875 400.75 C-486.5854425 399.81377808 -486.48338501 398.87755615 -486.37823486 397.91296387 C-483.37160651 370.41963236 -479.06471049 343.55621342 -472.80908203 316.61425781 C-471.72901117 311.95667649 -470.70139588 307.28870295 -469.68359375 302.6171875 C-465.98045382 285.7281116 -461.70017609 269.06181183 -456.97584534 252.43069458 C-456.76338669 251.68270599 -456.55092804 250.93471741 -456.33203125 250.1640625 C-456.11767929 249.40970917 -455.90332733 248.65535583 -455.68247986 247.87814331 C-453.77046517 241.1151095 -451.96978867 234.32462836 -450.18041992 227.52828979 C-443.11164945 200.68534861 -435.35853026 175.57624868 -422.6875 150.75 C-422.12264893 149.62295654 -422.12264893 149.62295654 -421.54638672 148.47314453 C-413.87048215 133.16914888 -404.39789867 119.08158213 -393.6875 105.75 C-392.90246094 104.76 -392.11742187 103.77 -391.30859375 102.75 C-387.57069079 98.09501425 -383.77666851 93.66692115 -379.46850586 89.53295898 C-377.69187281 87.75437761 -376.06641652 85.90626092 -374.4375 83.9921875 C-370.92515399 79.95581093 -367.2171588 76.21778894 -363.3125 72.5625 C-362.28636597 71.60138306 -362.28636597 71.60138306 -361.23950195 70.62084961 C-353.80671077 63.7739025 -345.83496819 57.7124448 -337.6875 51.75 C-336.84533936 51.1223877 -336.00317871 50.49477539 -335.13549805 49.84814453 C-294.37959714 19.7110989 -245.08537319 1.92903156 -194.6875 -2.25 C-193.92050781 -2.31912598 -193.15351563 -2.38825195 -192.36328125 -2.45947266 C-187.8057092 -2.86456642 -183.2602157 -3.10147675 -178.6875 -3.25 C-177.95402344 -3.27723145 -177.22054688 -3.30446289 -176.46484375 -3.33251953 C-163.66892701 -3.75149621 -150.99638971 -2.9640944 -138.25 -1.9375 C-137.49054077 -1.87864624 -136.73108154 -1.81979248 -135.9486084 -1.75915527 C-121.33952601 -0.60694968 -107.41639324 2.13034057 -93.25 5.9375 C-92.22068359 6.21013672 -91.19136719 6.48277344 -90.13085938 6.76367188 C-87.64863518 7.42174992 -85.16756594 8.08384388 -82.6875 8.75 C-82.30875732 8.28674316 -81.93001465 7.82348633 -81.53979492 7.34619141 C-60.33579196 -18.07736499 -25.53740873 -18.45816107 0 0 Z M-42.6875 16.75 C-41.83091797 17.17732422 -41.83091797 17.17732422 -40.95703125 17.61328125 C-39.83361328 18.17595703 -39.83361328 18.17595703 -38.6875 18.75 C-37.64142578 19.26626953 -37.64142578 19.26626953 -36.57421875 19.79296875 C-29.63854181 23.40247735 -23.89212516 27.45790065 -20.875 34.875 C-18.56452103 40.15316085 -13.79204192 41.72376962 -8.6875 43.75 C-9.31856776 34.91505135 -12.08027032 28.39062499 -18.65234375 22.29296875 C-26.05587654 16.67992566 -33.66646606 16.1919979 -42.6875 16.75 Z M-265.6875 42.75 C-265.6875 43.41 -265.6875 44.07 -265.6875 44.75 C-266.615625 44.894375 -267.54375 45.03875 -268.5 45.1875 C-271.69475111 45.67100111 -271.69475111 45.67100111 -274.6875 46.75 C-274.6875 47.41 -274.6875 48.07 -274.6875 48.75 C-275.84507812 49.00007813 -277.00265625 49.25015625 -278.1953125 49.5078125 C-282.68071174 50.63654933 -286.51186078 52.42388149 -290.5625 54.625 C-291.28791992 55.01502197 -292.01333984 55.40504395 -292.76074219 55.80688477 C-306.19341731 63.18679533 -318.81394548 72.07634006 -330.6875 81.75 C-331.50565186 82.41370605 -331.50565186 82.41370605 -332.34033203 83.09082031 C-362.53846099 107.78177104 -390.73328403 140.87100065 -404.6875 177.75 C-405.82831785 180.7650186 -407.11909083 183.60374316 -408.609375 186.45703125 C-410.89357862 190.97140584 -412.44476724 195.61277447 -413.9375 200.4375 C-414.205625 201.26572266 -414.47375 202.09394531 -414.75 202.94726562 C-416.01244623 206.96970273 -417.07014553 210.48002379 -416.6875 214.75 C-417.6775 215.08 -418.6675 215.41 -419.6875 215.75 C-420.88382621 218.65578548 -420.88382621 218.65578548 -421.75 222.1875 C-421.92208984 222.82494141 -422.09417969 223.46238281 -422.27148438 224.11914062 C-423.41610594 228.44084866 -424.32780369 232.77644505 -425.12890625 237.171875 C-425.78128038 240.18283253 -426.7021185 243.06070947 -427.625 246 C-429.47927661 252.23773199 -430.36223992 258.35741094 -431.125 264.8125 C-432.04542504 272.49811414 -433.44795611 278.93506415 -436.5546875 286.05078125 C-437.89391321 289.24183285 -438.62674324 292.35321469 -439.23046875 295.75 C-439.6875 297.75 -439.6875 297.75 -440.62890625 299.86328125 C-442.18866619 304.11664876 -442.73235665 308.47347251 -443.4375 312.9375 C-444.62614385 320.1580424 -445.99419046 327.26783331 -447.75585938 334.37060547 C-454.58769237 361.95345878 -458.89504754 390.65751039 -460.51367188 419.02441406 C-460.87525889 424.69401718 -461.44607961 430.34893866 -461.99145508 436.00341797 C-464.07673072 458.94365197 -463.96930484 481.98661738 -464 505 C-464.00159245 505.90027924 -464.00318489 506.80055847 -464.00482559 507.7281189 C-464.05211704 539.22501537 -463.04035981 569.97448227 -457.35839844 601.03149414 C-456.77855801 604.24530404 -456.24805101 607.46023604 -455.75 610.6875 C-450.65221165 640.86964374 -441.26434692 671.44720111 -429.6875 699.75 C-429.29046875 700.75289062 -428.8934375 701.75578125 -428.484375 702.7890625 C-425.31611048 710.61514874 -421.6331509 718.12707254 -417.77441406 725.62939453 C-416.67895134 727.76667872 -415.60117774 729.91232887 -414.5234375 732.05859375 C-407.57768624 745.72165823 -399.33147149 757.65457132 -388.6875 768.75 C-387.77471869 769.73826195 -386.8619593 770.72654415 -385.94921875 771.71484375 C-370.20508979 788.44612351 -349.41401512 797.32475601 -327.6875 803.75 C-326.70040039 804.04293945 -325.71330078 804.33587891 -324.69628906 804.63769531 C-311.17009514 808.59405525 -297.76758454 811.89396056 -283.73887634 813.40083313 C-281.55273128 813.65099219 -279.37025274 813.93404418 -277.19100952 814.23852539 C-263.15813668 816.11994757 -249.17473203 816.02313009 -235.0390625 815.98046875 C-232.40636213 815.97927409 -229.77366132 815.97882439 -227.14096069 815.9790802 C-221.66295945 815.97815168 -216.18501453 815.96956923 -210.70703125 815.95581055 C-204.3821945 815.93998327 -198.05741873 815.93481667 -191.73256361 815.9355461 C-185.61362439 815.93615629 -179.49470807 815.93094809 -173.37577438 815.92275429 C-170.78337091 815.91957261 -168.19096566 815.91760138 -165.59856033 815.91686058 C-161.99227069 815.91469839 -158.38605826 815.90596012 -154.77978516 815.89526367 C-153.70970718 815.89571686 -152.63962921 815.89617004 -151.53712463 815.89663696 C-150.55635452 815.89237198 -149.57558441 815.88810699 -148.56509399 815.88371277 C-147.28937247 815.881199 -147.28937247 815.881199 -145.9878788 815.87863445 C-143.75193427 815.75360309 -141.84294618 815.32893066 -139.6875 814.75 C-137.6119402 814.61300489 -135.53291505 814.5254975 -133.45361328 814.46875 C-131.5611235 814.41364258 -131.5611235 814.41364258 -129.63040161 814.35742188 C-128.95886173 814.33993896 -128.28732185 814.32245605 -127.59543228 814.30444336 C-125.48461734 814.24939509 -123.37402094 814.18887715 -121.26339722 814.12695312 C-116.77989667 813.99640431 -112.29621865 813.87279561 -107.8125 813.75 C-102.62175896 813.60759742 -97.43112691 813.46231746 -92.24065781 813.31030273 C-90.16801316 813.25100705 -88.09527716 813.19668213 -86.02249146 813.14257812 C-84.1205452 813.0874707 -84.1205452 813.0874707 -82.18017578 813.03125 C-81.06861115 813.00095703 -79.95704651 812.97066406 -78.8117981 812.93945312 C-75.70729507 812.75120035 -72.74852652 812.2863035 -69.6875 811.75 C-66.93587143 811.57870296 -64.19106689 811.43288965 -61.4375 811.3125 C-55.0394523 810.99242479 -48.91773809 810.32669416 -42.6875 808.75 C-42.67332031 808.06035156 -42.65914063 807.37070312 -42.64453125 806.66015625 C-42.05667777 795.0778539 -36.83407315 787.72946395 -28.6875 779.75 C-26.06615187 777.5048828 -23.39039308 775.35112003 -20.6796875 773.21484375 C-17.92106381 770.94240048 -15.35996622 768.57248851 -12.7890625 766.09594727 C-5.74165453 759.33701154 0.67750312 753.53822928 10.9375 753.4375 C12.3974339 753.51611183 13.85710677 753.61065384 15.3125 753.75 C15.415625 754.3275 15.51875 754.905 15.625 755.5 C16.18498835 757.83098258 16.18498835 757.83098258 17.83203125 759.640625 C19.71497151 762.32344226 19.80672788 764.25302846 20 767.5 C20.06574219 768.48484375 20.13148438 769.4696875 20.19921875 770.484375 C20.23660156 771.23203125 20.27398438 771.9796875 20.3125 772.75 C19.6525 772.75 18.9925 772.75 18.3125 772.75 C17.755625 773.7709375 17.755625 773.7709375 17.1875 774.8125 C15.0450843 778.16895127 12.64345747 780.2458891 9.62109375 782.796875 C7.13711318 784.8983814 4.72367995 787.06544867 2.3125 789.25 C-1.40487466 792.61224796 -5.16856629 795.90831283 -8.99609375 799.14453125 C-10.81459365 800.87063623 -12.23909688 802.70806166 -13.6875 804.75 C-7.72082856 807.05787119 -2.61740879 808.19925133 3.76953125 808.02734375 C4.57421341 808.01638168 5.37889557 808.00541962 6.20796204 807.99412537 C17.4848685 807.77925558 28.74572495 807.01911618 40 806.3125 C44.42038672 806.03985275 48.8409781 805.77075061 53.26171875 805.50390625 C54.34882645 805.43787201 55.43593414 805.37183777 56.5559845 805.30380249 C63.98018729 804.86224737 71.40435031 804.51946502 78.8359375 804.23046875 C148.3695129 801.49956306 218.21890583 787.04189996 278.0625 749.73828125 C281.3125 747.75 281.3125 747.75 284.17016602 746.32714844 C289.3574571 743.72362886 294.27767171 740.67629485 299.25 737.6875 C300.37156494 737.01428711 301.49312988 736.34107422 302.64868164 735.64746094 C309.20001119 731.69254788 315.648796 727.64000643 321.96899414 723.3269043 C326.78009985 720.05698908 331.71266479 717.01392903 336.6875 714 C346.99350819 707.74825265 356.84638346 701.01153408 366.62402344 693.96533203 C368.13463376 692.8780246 369.64909595 691.7960733 371.1640625 690.71484375 C378.15358032 685.69434939 384.93289496 680.42886296 391.66064453 675.06542969 C393.14330483 673.88473597 394.63183076 672.71141695 396.12109375 671.5390625 C402.98211242 666.05432544 409.36372596 660.12278071 415.74609375 654.09765625 C418.5981866 651.40772504 421.49840216 648.78250834 424.4375 646.1875 C430.14127952 641.09518093 435.493957 635.65575547 440.86206055 630.21484375 C442.19417556 628.86949952 443.53794898 627.53572533 444.8828125 626.203125 C447.45051575 623.6106529 449.92115523 620.95036705 452.375 618.25 C453.21160156 617.3321875 454.04820312 616.414375 454.91015625 615.46875 C455.70292969 614.5715625 456.49570312 613.674375 457.3125 612.75 C458.48619141 611.43515625 458.48619141 611.43515625 459.68359375 610.09375 C460.22113281 609.3203125 460.75867188 608.546875 461.3125 607.75 C460.56837388 604.42485993 460.56837388 604.42485993 457.08203125 602.83984375 C451.25387057 600.11295372 445.12741426 598.24157733 439 596.3125 C437.13311523 595.72045776 437.13311523 595.72045776 435.22851562 595.11645508 C421.10509738 590.68144629 407.03518714 587.01224919 392.50756836 584.19140625 C379.50976507 581.64855126 367.08622095 577.79556631 354.5703125 573.52734375 C351.30606109 572.41450376 348.03592306 571.33857517 344.7421875 570.31640625 C332.45803637 566.4681284 320.91311928 561.306894 309.3125 555.75 C308.5297168 555.37520508 307.74693359 555.00041016 306.94042969 554.61425781 C299.58127327 551.06522968 292.39993431 547.34345102 285.44921875 543.03515625 C283.53949816 541.88653089 281.63571779 540.89355558 279.625 539.9375 C272.93590225 536.68008366 266.6522 532.63092241 260.3125 528.75 C259.31259033 528.14164307 259.31259033 528.14164307 258.29248047 527.52099609 C244.78276883 519.28815752 231.7560255 510.76304805 220.3125 499.75 C219.84102539 499.30430664 219.36955078 498.85861328 218.88378906 498.39941406 C203.76564588 484.06816187 192.09987425 467.10872944 182.3125 448.75 C181.85246582 447.90276367 181.39243164 447.05552734 180.91845703 446.18261719 C166.2388415 418.78130182 157.41057179 388.57771611 150.0234375 358.4921875 C147.9739263 350.22139385 145.56293562 342.05658678 143.1875 333.875 C140.44006146 324.39651418 137.75828147 314.93752694 135.5625 305.3125 C127.11221195 268.54437381 113.10091539 232.3199314 92.3125 200.75 C91.56250958 199.60459247 90.81268429 198.45907681 90.06298828 197.31347656 C80.82421363 183.21713074 71.56069029 169.13984863 61.3125 155.75 C60.66812988 154.90381104 60.66812988 154.90381104 60.01074219 154.04052734 C57.87873657 151.24139011 55.73687911 148.45043946 53.578125 145.671875 C52.20315136 143.89863313 50.83623488 142.11905049 49.484375 140.328125 C45.52472554 135.11026917 41.21719816 130.30983064 36.77734375 125.49609375 C34.55568008 123.02092804 32.48154892 120.49699206 30.4375 117.875 C18.00652684 102.13076145 3.32312051 88.759072 -12.6875 76.75 C-13.2664502 76.31413574 -13.84540039 75.87827148 -14.44189453 75.42919922 C-22.81981049 69.16505274 -31.46081077 63.70216616 -40.6875 58.75 C-41.56180664 58.27739746 -42.43611328 57.80479492 -43.33691406 57.31787109 C-54.21848031 51.45785899 -64.94968174 45.70555456 -76.6875 41.75 C-78.36382578 41.13298781 -80.03954918 40.5143379 -81.71484375 39.89453125 C-98.06163551 33.9933142 -114.58648783 30.53479785 -131.6875 27.75 C-132.57179688 27.60304687 -133.45609375 27.45609375 -134.3671875 27.3046875 C-178.39475573 20.33736189 -224.06534031 28.44685234 -265.6875 42.75 Z M44.3125 87.75 C46.44211348 88.82959572 48.57787938 89.87120693 50.75 90.86328125 C55.77462886 93.21474628 59.1014862 95.06727154 62.3125 99.75 C62.9725 99.75 63.6325 99.75 64.3125 99.75 C64.97916667 101.75 65.64583333 103.75 66.3125 105.75 C66.55355469 106.4615625 66.79460938 107.173125 67.04296875 107.90625 C67.42388672 109.03546875 67.42388672 109.03546875 67.8125 110.1875 C68.07160156 110.95449219 68.33070313 111.72148437 68.59765625 112.51171875 C69.22762752 114.48425175 69.74778431 116.49113723 70.25 118.5 C71.39682622 122.00793902 72.75310927 124.11062831 75.3125 126.75 C75.9725 126.75 76.6325 126.75 77.3125 126.75 C79.70315654 118.70339995 79.2351306 109.62885129 75.69140625 102.03515625 C71.41868483 94.95430065 66.0645887 90.86726362 58.2109375 88.359375 C53.55690707 87.3808996 49.03925941 87.42086395 44.3125 87.75 Z M118.3125 186.75 C118.3125 187.41 118.3125 188.07 118.3125 188.75 C119.98369979 189.85025609 121.70168624 190.87980011 123.4375 191.875 C130.3992746 196.19702716 135.09151197 201.32687497 137.796875 209.20703125 C138.6534484 213.43149549 138.8117223 217.7266545 138.93481445 222.02734375 C139.07162732 226.01860547 139.56899244 229.14395023 141.3125 232.75 C146.06356371 228.8180852 147.90616142 224.0692477 148.63671875 218.1015625 C148.99278677 209.33492224 146.51710883 203.17234906 141 196.4375 C135.6396945 190.67631695 128.92842631 186.92096023 120.9375 186.625 C119.638125 186.686875 119.638125 186.686875 118.3125 186.75 Z M167.3125 305.75 C168.24429168 309.71011465 169.81076763 311.25933576 173.0625 313.4375 C178.3856634 317.17050166 181.9153065 322.52454814 183.95703125 328.69921875 C185.31355444 336.52531408 184.82603532 344.56175802 181.3125 351.75 C180.6525 352.41 179.9925 353.07 179.3125 353.75 C179.63291397 356.35280568 179.63291397 356.35280568 180.3125 358.75 C185.98787153 356.85820949 189.58146989 350.74513763 192.5 345.6953125 C195.55635795 338.61279072 195.3040593 330.77141158 192.8125 323.5625 C189.45922401 316.13570213 183.67647536 310.75172754 176.27734375 307.42578125 C173.28482077 306.39654372 170.4629195 306.01253496 167.3125 305.75 Z M200.3125 420.75 C202.48843474 422.92593474 204.19945555 423.64842157 207 424.875 C214.85348318 428.76207754 219.63706995 434.64280435 222.6875 442.828125 C223.72189314 447.66391295 223.33523604 452.43574964 222.96484375 457.33203125 C223.40983784 461.70697313 224.98703504 463.01781048 228.3125 465.75 C232.84706197 458.42992139 234.51735332 452.34310483 233.3125 443.75 C231.55390301 436.5914758 228.07538077 430.41617455 222.3125 425.75 C215.14863433 421.59718083 208.54544694 419.9303482 200.3125 420.75 Z M289.3125 502.75 C291.90218864 504.47645909 294.23902178 505.62109507 297.0625 506.875 C303.86208259 510.25496744 308.24898925 514.91314195 311.125 521.9375 C313.44318472 527.16114289 318.25010665 528.74050035 323.3125 530.75 C322.88134406 521.43703165 320.20068907 514.6893787 313.27734375 508.29296875 C305.79013342 502.4133503 298.59294085 502.23362308 289.3125 502.75 Z M397.3125 545.75 C397.3125 546.41 397.3125 547.07 397.3125 547.75 C397.9415625 547.95753906 398.570625 548.16507813 399.21875 548.37890625 C405.83602291 550.76072587 413.00793124 554.14086248 416.3125 560.75 C418.47717461 561.37669199 420.67114524 561.90427374 422.875 562.375 C424.07253906 562.63539063 425.27007813 562.89578125 426.50390625 563.1640625 C427.43074219 563.35742188 428.35757813 563.55078125 429.3125 563.75 C424.58190001 555.16080002 419.24290151 549.88157783 409.95703125 546.4296875 C405.72536788 545.34208126 401.64438018 545.41819641 397.3125 545.75 Z M-418.6875 777.75 C-421.6575 780.225 -421.6575 780.225 -424.6875 782.75 C-412.18367705 798.36944262 -412.18367705 798.36944262 -395.6875 808.75 C-392.00543209 808.97470317 -388.37064249 808.92694813 -384.6875 808.75 C-385.37585938 808.20472656 -386.06421875 807.65945313 -386.7734375 807.09765625 C-396.6198586 799.16508376 -405.88234474 790.82378712 -414.6875 781.75 C-416.01857536 780.41441252 -417.35109094 779.08025049 -418.6875 777.75 Z " fill="#000000" transform="translate(508.6875,27.25)"/>
<path d="M0 0 C3.4285785 2.02008139 6.20847086 4.41694171 8 8 C9.24259686 20.63306812 2.4471432 31.30582578 -3.34521484 42.06005859 C-5.62406261 46.30796664 -7.73519516 50.50605054 -9.5 55 C-11.96252677 61.26185378 -15.16392586 67.07921304 -18.34106445 72.99853516 C-21.15803525 78.28635709 -23.59483722 83.59684675 -25.7890625 89.17578125 C-27.18488912 92.43120915 -28.84227263 95.46681657 -30.5625 98.5625 C-33.22847137 103.39132015 -35.3398912 108.13608768 -37.078125 113.3671875 C-38 116 -38 116 -39.4140625 119.23046875 C-41.28614897 123.53720134 -42.71058759 127.96326576 -44.125 132.4375 C-44.38925781 133.24509766 -44.65351563 134.05269531 -44.92578125 134.88476562 C-48.13372768 144.98898268 -50.93480179 158.6721405 -46.3125 168.625 C-43.04934211 173.98344875 -38.98701929 176.41500491 -33 178 C-9.56844055 180.68743544 14.86545347 175.77234933 38.0222168 172.66430664 C60.70485822 169.62291493 60.70485822 169.62291493 68 174 C71.14878675 177.39100112 72.25628584 180.02459542 72.4375 184.5625 C72.24147357 188.45035754 71.58495431 190.96936391 69 194 C64.6283114 197.21570323 60.17573887 198.05026122 54.953125 199.0234375 C53.63359833 199.27738785 53.63359833 199.27738785 52.28741455 199.53646851 C42.82468885 201.30516985 33.30912829 202.51833866 23.75 203.625 C21.94742541 203.83802819 20.14485383 204.05108187 18.34228516 204.26416016 C-40.03498114 211.10010464 -40.03498114 211.10010464 -60 197 C-69.3784973 188.70306716 -76.02541702 177.28353073 -77.21948242 164.68408203 C-78.64184876 135.04995895 -67.19742919 106.71129449 -53.875 80.6875 C-50.12261928 73.26810617 -46.44394207 65.82186751 -42.875 58.3125 C-38.36168926 48.83790307 -33.83034447 39.37220418 -29.26422119 29.92294312 C-28.51232236 28.36502405 -27.76208346 26.80630263 -27.01361084 25.24673462 C-13.60353187 -2.68685622 -13.60353187 -2.68685622 0 0 Z " fill="#010202" transform="translate(513,420)"/>
<path d="M0 0 C8.9669683 3.58678732 14.49019341 15.66422706 19.375 23.4375 C20.78140814 25.65568606 22.18878147 27.8732268 23.59765625 30.08984375 C23.95733994 30.65653778 24.31702362 31.22323181 24.68760681 31.80709839 C28.67188013 38.07565297 32.73955887 44.28883322 36.8125 50.5 C38.23569069 52.67316817 39.65886814 54.84634501 41.08203125 57.01953125 C41.75057129 58.03998535 42.41911133 59.06043945 43.10791016 60.11181641 C58.61448555 83.78185343 58.61448555 83.78185343 65 95 C65.44907715 95.78890625 65.8981543 96.5778125 66.36083984 97.390625 C72.84070574 108.91431423 77.99909472 120.23415465 81.45043945 133.01489258 C81.95857064 134.85035001 82.54631432 136.66326517 83.140625 138.47265625 C84.18486668 142.75879368 84.25705795 146.67302734 84.1875 151.0625 C84.1865332 152.22749023 84.1865332 152.22749023 84.18554688 153.41601562 C84.1527911 157.71430163 83.84627427 161.76862866 83 166 C82.34 166 81.68 166 81 166 C80.690625 167.27875 80.38125 168.5575 80.0625 169.875 C77.09958609 178.5854182 70.82362214 184.40843564 62.75 188.5 C60.84768859 189.36560202 58.93144816 190.20152422 57 191 C56.24460937 191.33644531 55.48921875 191.67289063 54.7109375 192.01953125 C39.6319391 197.47317477 24.27798707 197.35059913 8.51123047 196.29150391 C4.07954267 195.99642874 -0.35463312 195.76040789 -4.78985596 195.52534485 C-9.05934868 195.29690782 -13.32796725 195.05434991 -17.59649658 194.80862427 C-19.73152325 194.68672057 -21.86674009 194.56810101 -24.00213623 194.45285034 C-27.02972354 194.28653477 -30.05575417 194.10256432 -33.08203125 193.9140625 C-33.99347397 193.86706711 -34.90491669 193.82007172 -35.84397888 193.77165222 C-42.19112873 193.35105277 -46.8768687 192.35265901 -51.3125 187.4375 C-54.4283586 182.93681535 -54.50258341 179.3795039 -54 174 C-52.875 171.0625 -52.875 171.0625 -51 169 C-47.875 167.8125 -47.875 167.8125 -45 167 C-44.505 166.01 -44.505 166.01 -44 165 C-32.73159566 164.74161621 -21.61627352 165.17786538 -10.375 166 C0.28068296 166.74318991 10.91485792 167.26414734 21.59783936 167.35449219 C23.0113761 167.3679617 24.42486749 167.38825552 25.8381958 167.41601562 C35.15792148 167.58593775 44.86104319 167.48284818 52.23730469 161.04833984 C55.00069217 157.8371458 55.35617018 154.75518896 55.265625 150.59765625 C52.60698064 124.59767827 34.71503431 100.85488848 20.79394531 79.72705078 C18.36663097 76.03718942 15.96038742 72.33403174 13.5625 68.625 C13.13807617 67.96927002 12.71365234 67.31354004 12.27636719 66.63793945 C9.54294643 62.40795578 6.82707503 58.16697215 4.1171875 53.921875 C3.43213135 52.8488916 2.7470752 51.7759082 2.04125977 50.67041016 C0.64807694 48.48807503 -0.74466996 46.30546156 -2.13696289 44.12255859 C-6.35875209 37.51811519 -10.62832696 30.95225931 -15.08227539 24.50146484 C-18.85306689 18.96649659 -20.60476405 14.77335738 -20 8 C-18.90169466 4.97966032 -18.00450334 3.49300777 -15.08984375 2.0625 C-13.07656011 1.30249456 -11.05233541 0.6448952 -9 0 C-5.84760408 -1.57619796 -3.38428252 -0.68832865 0 0 Z " fill="#020302" transform="translate(138,442)"/>
<path d="M0 0 C4.44113617 1.81500321 6.48752187 3.85210424 8.44921875 8.24609375 C8.82119385 9.16733032 8.82119385 9.16733032 9.20068359 10.10717773 C12.53979765 18.01437117 17.89614979 29.77052735 25.73713684 33.9190979 C30.84239934 35.88896806 35.25510077 36.40319966 40.69921875 36.3359375 C42.3365926 36.34843788 43.97396242 36.36147443 45.61132812 36.375 C48.15907915 36.37894046 50.70643612 36.37489193 53.25415039 36.36035156 C55.73642985 36.35177802 58.21708281 36.37344686 60.69921875 36.3984375 C61.45764572 36.38509369 62.21607269 36.37174988 62.9974823 36.35800171 C66.97471339 36.41343838 68.7680751 36.81165029 71.89379883 39.35009766 C75.0989065 43.38258156 76.46158894 45.67798047 76.31640625 50.93359375 C75.78872738 54.37979282 74.26925994 56.42408331 72 59 C70.33607955 59.67349161 68.66967972 60.3409159 67 61 C65.81971716 63.15097933 65.81971716 63.15097933 65 66 C62.54477636 72.06857165 59.60750105 77.5456554 56 83 C55.54625 83.825 55.0925 84.65 54.625 85.5 C53 87 53 87 49.625 87.375 C45.45150505 86.94325914 42.38274527 86.56613323 39.52734375 83.33203125 C37.66225717 80.48431594 36.51802263 77.61964531 35.3125 74.4375 C34.87550781 73.30183594 34.43851562 72.16617188 33.98828125 70.99609375 C33 68 33 68 33 65 C32.01773438 64.87044922 32.01773438 64.87044922 31.015625 64.73828125 C15.99660366 62.42603079 5.33773263 55.86787277 -5 45 C-5.556875 45.78375 -6.11375 46.5675 -6.6875 47.375 C-9.17239436 50.1956909 -10.54237875 50.76513527 -14 52 C-15.051875 52.70125 -16.10375 53.4025 -17.1875 54.125 C-20 56 -20 56 -22 56 C-22 56.66 -22 57.32 -22 58 C-34.76840238 63.79579555 -46.53722029 65.27860664 -60.4375 65.375 C-61.65872559 65.38885742 -62.87995117 65.40271484 -64.13818359 65.41699219 C-71.73133746 65.37725388 -77.25757822 65.03439604 -83.3125 60.125 C-86.40737975 56.22774402 -87.19987895 53.36044083 -86.8125 48.4375 C-86.29646023 44.91904699 -85.90584129 42.30463274 -83 40 C-79.8125 39.75 -79.8125 39.75 -77 40 C-77 39.34 -77 38.68 -77 38 C-73.70951253 36.90317084 -71.31729766 36.90506603 -67.85546875 36.9296875 C-48.17038789 37.3975943 -48.17038789 37.3975943 -31 29 C-27.80365625 25.75027264 -26.04376684 22.17815009 -24.08886719 18.09863281 C-23.40956775 16.68248861 -22.7266761 15.2680629 -22.04052734 13.85522461 C-21.3617382 12.4411071 -20.7021616 11.01755802 -20.06494141 9.58422852 C-15.92757063 0.7367029 -9.3972422 -1.55484123 0 0 Z M44 65 C44.474375 66.44375 44.94875 67.8875 45.4375 69.375 C45.70433594 70.18710937 45.97117187 70.99921875 46.24609375 71.8359375 C46.95179729 74.01031799 46.95179729 74.01031799 48 76 C48.66 76 49.32 76 50 76 C51.32 72.37 52.64 68.74 54 65 C50.7 65 47.4 65 44 65 Z " fill="#020202" transform="translate(308,210)"/>
<path d="M0 0 C6.34732399 3.69181089 11.29040741 9.30872222 13.625 16.3125 C14.56674737 24.39807383 13.31036615 30.60737702 8.625 37.3125 C4.36468469 41.9998173 -0.01736835 44.9427736 -6.42578125 45.6484375 C-15.19547902 45.75346382 -20.36472927 44.5936306 -27.125 39.0625 C-32.73898945 32.20095733 -34.90486939 25.25866692 -34.375 16.3125 C-33.42271817 13.38649438 -32.28357543 11.84007286 -30.375 9.3125 C-29.7975 8.44625 -29.22 7.58 -28.625 6.6875 C-21.21582066 -1.13330042 -10.16842964 -4.80337248 0 0 Z " fill="#010101" transform="translate(200.375,193.6875)"/>
<path d="M0 0 C6.34732399 3.69181089 11.29040741 9.30872222 13.625 16.3125 C14.55958068 25.79619578 12.57948402 31.71914117 6.8125 39.125 C2.85811987 43.41217449 -0.70783119 45.03964386 -6.4296875 45.625 C-15.14760638 45.94714019 -20.4365223 44.53489084 -27.125 39.0625 C-32.50734454 32.4840789 -34.12479298 27.09503661 -33.81640625 18.5 C-32.86433649 11.62487679 -29.76631392 7.12270188 -24.375 2.875 C-17.09772559 -2.2748454 -8.28584511 -3.88349856 0 0 Z " fill="#010101" transform="translate(427.375,194.6875)"/>
<path d="M0 0 C4.34970016 1.65753137 7.0904542 4.91191921 10.25 8.1875 C19.56695866 18.02020313 19.56695866 18.02020313 31 25 C31 25.66 31 26.32 31 27 C24.06388677 27.18394728 17.47543242 26.69042552 10.625 25.625 C9.70960449 25.48707031 8.79420898 25.34914063 7.85107422 25.20703125 C6.04603068 24.93341388 4.24147975 24.65652194 2.4375 24.37597656 C0.36675228 24.05657036 -1.70698595 23.7566487 -3.78125 23.4609375 C-9.3210374 22.63556513 -13.97985444 21.51007278 -19 19 C-16.80998309 14.82573958 -14.330954 12.38353681 -10.625 9.5 C-6.82706311 6.52861136 -3.35623846 3.46607899 0 0 Z " fill="#B6D6CD" transform="translate(82,810)"/>
<path d="M0 0 C8.7521291 3.3060319 12.89507272 8.77677434 17 17 C19.48436655 24.43822321 18.50377915 32.90196082 15.94921875 40.16015625 C14.88670156 42.21960316 13.78482261 43.52717723 12 45 C11.34 45 10.68 45 10 45 C8.8935762 40.36017064 7.79104736 35.71943806 6.69189453 31.07788086 C6.3185773 29.50374259 5.94425398 27.92984253 5.56884766 26.35620117 C3.48221025 17.606235 1.4559029 8.88246604 0 0 Z " fill="#EAE58F" transform="translate(676,337)"/>
<path d="M0 0 C9.48713055 2.30589979 15.30398542 6.90054074 20.4375 15.1875 C23.56615255 20.60083616 24.12504459 24.49554086 24.0625 30.75 C24.05347656 31.92046875 24.04445313 33.0909375 24.03515625 34.296875 C24.02355469 35.18890625 24.01195312 36.0809375 24 37 C22.68 37 21.36 37 20 37 C12.60505806 28.91077312 7.94424851 17.59236125 3.01806641 7.89428711 C1.91433722 5.76890222 1.91433722 5.76890222 0 3 C0 2.01 0 1.02 0 0 Z " fill="#F0E994" transform="translate(709,449)"/>
<path d="M0 0 C8.55853328 2.96516114 16.08466417 8.72430734 20.29296875 16.859375 C21.66796875 20.421875 21.66796875 20.421875 21.66796875 22.421875 C16.79041271 21.81336898 12.99028906 19.72280335 8.73046875 17.421875 C7.99062744 17.02685791 7.25078613 16.63184082 6.48852539 16.22485352 C-0.69754063 12.32999804 -7.5462744 7.9708055 -14.33203125 3.421875 C-9.98653433 -1.12114451 -5.98749758 -1.48433776 0 0 Z " fill="#EAE590" transform="translate(800.33203125,530.578125)"/>
<path d="M0 0 C7.31657064 4.39247407 12.78238125 9.78464374 15.5 17.9375 C11.23451883 17.4020807 8.11161034 16.44563421 4.3828125 14.3203125 C3.44566406 13.79566406 2.50851562 13.27101563 1.54296875 12.73046875 C0.58003906 12.18003906 -0.38289063 11.62960938 -1.375 11.0625 C-7.64008054 7.50298731 -13.66194785 4.24918193 -20.5 1.9375 C-20.5 1.2775 -20.5 0.6175 -20.5 -0.0625 C-12.91667024 -3.44791507 -7.47441055 -3.78207738 0 0 Z " fill="#E8E28F" transform="translate(474.5,47.0625)"/>
<path d="M0 0 C9.39769373 4.43247233 15.72755033 10.29567983 19.35546875 20.19140625 C20.55563515 25.42122227 20.30061215 30.67248465 20 36 C19.01 36 18.02 36 17 36 C16.76925781 35.49251221 16.53851562 34.98502441 16.30078125 34.4621582 C11.86927675 24.77043159 7.36543638 15.43526259 1.43359375 6.56640625 C0 4 0 4 0 0 Z " fill="#EEE893" transform="translate(628,216)"/>
<path d="M0 0 C6.98383457 1.63146955 12.84842883 3.83497825 18 9 C18.33 9.99 18.66 10.98 19 12 C19.66 12 20.32 12 21 12 C24.85167232 18.6800221 26.81895467 24.26442661 27 32 C23.53705291 30.8456843 22.98869557 29.99431621 20.875 27.125 C17.3882302 22.49321045 13.76346643 17.99849495 10.078125 13.5234375 C8.85205785 12.03464167 7.6310783 10.5415874 6.421875 9.0390625 C4.38837908 6.52781754 2.72160323 4.81440215 0 3 C0 2.01 0 1.02 0 0 Z " fill="#EAE592" transform="translate(552,115)"/>
<path d="M0 0 C5.57877899 2.37868184 10.08516022 5.99177299 14.125 10.5 C14.125 11.16 14.125 11.82 14.125 12.5 C7.06894337 12.00483813 0.53188659 10.36949115 -6.25390625 8.48828125 C-10.43859204 7.34618254 -14.63137647 6.39339443 -18.875 5.5 C-18.875 4.51 -18.875 3.52 -18.875 2.5 C-12.22232288 -1.84460547 -7.68057853 -2.65911838 0 0 Z " fill="#E5E08D" transform="translate(910.875,575.5)"/>
<path d="M0 0 C0.99 0 1.98 0 3 0 C3 4.29 3 8.58 3 13 C2.01 12.67 1.02 12.34 0 12 C0 8.04 0 4.08 0 0 Z " fill="#F9F397" transform="translate(730,473)"/>
<path d="M0 0 C1.8046875 1.52734375 1.8046875 1.52734375 3 3 C1.80503906 2.98259766 1.80503906 2.98259766 0.5859375 2.96484375 C-7.25478989 2.88148443 -7.25478989 2.88148443 -15 4 C-10.68810449 -0.59935521 -6.01168841 -1.13101256 0 0 Z " fill="#434F4B" transform="translate(513,420)"/>
<path d="M0 0 C1.57548135 3.15096271 0.41461193 6.17694037 -0.25 9.5 C-0.37246094 10.18964844 -0.49492188 10.87929687 -0.62109375 11.58984375 C-0.98059571 13.41582897 -1.48331986 15.21212268 -2 17 C-2.99 17.66 -3.98 18.32 -5 19 C-3.25 3.25 -3.25 3.25 0 0 Z " fill="#697C76" transform="translate(90,242)"/>
<path d="M0 0 C-0.33 0.66 -0.66 1.32 -1 2 C-1.680625 1.649375 -2.36125 1.29875 -3.0625 0.9375 C-6.76340704 -0.24364054 -9.21446905 0.25641356 -13 1 C-13.969375 1.185625 -14.93875 1.37125 -15.9375 1.5625 C-16.618125 1.706875 -17.29875 1.85125 -18 2 C-13.0443363 -3.42763167 -6.34917222 -3.07838653 0 0 Z " fill="#697C76" transform="translate(142,442)"/>
<path d="M0 0 C0.66 0 1.32 0 2 0 C1.125 4.75 1.125 4.75 0 7 C-0.66 7 -1.32 7 -2 7 C-2.33 8.65 -2.66 10.3 -3 12 C-3.66 11.67 -4.32 11.34 -5 11 C-3.35 7.37 -1.7 3.74 0 0 Z " fill="#8EA59E" transform="translate(362,275)"/>
<path d="M0 0 C0 0.66 0 1.32 0 2 C-0.66 2 -1.32 2 -2 2 C-2.33 2.99 -2.66 3.98 -3 5 C-3.66 5 -4.32 5 -5 5 C-5.33 6.65 -5.66 8.3 -6 10 C-6.66 10 -7.32 10 -8 10 C-6.83833955 5.74057835 -5.25202969 0 0 0 Z " fill="#7C918B" transform="translate(379,270)"/>
<path d="M0 0 C0 3 0 3 -2.5 5.6875 C-3.325 6.450625 -4.15 7.21375 -5 8 C-5.66 7.67 -6.32 7.34 -7 7 C-2.25 1.125 -2.25 1.125 0 0 Z " fill="#000000" transform="translate(62,784)"/>
<path d="M0 0 C-2.75 1.625 -2.75 1.625 -6 3 C-8.375 2.1875 -8.375 2.1875 -10 1 C-3.71428571 -1.42857143 -3.71428571 -1.42857143 0 0 Z " fill="#CFEBE3" transform="translate(747,797)"/>
<path d="" fill="#000000" transform="translate(0,0)"/>
</svg>
