<?xml version="1.0" standalone="no"?>
<!DOCTYPE svg PUBLIC "-//W3C//DTD SVG 20010904//EN"
 "http://www.w3.org/TR/2001/REC-SVG-20010904/DTD/svg10.dtd">
<svg version="1.0" xmlns="http://www.w3.org/2000/svg"
 width="626.000000pt" height="264.000000pt" viewBox="0 0 626.000000 264.000000"
 preserveAspectRatio="xMidYMid meet">

<g transform="translate(0.000000,264.000000) scale(0.100000,-0.100000)"
fill="#000000" stroke="none">
<path d="M879 1891 l-24 -19 -3 -395 -3 -395 25 -29 24 -28 294 -3 c271 -3
296 -1 316 15 32 27 37 64 12 96 l-21 27 -235 0 -234 0 0 130 0 130 211 2 212
3 20 26 c15 22 17 33 10 55 -15 45 -54 53 -265 53 l-188 1 0 104 0 103 225 5
c252 6 265 10 265 74 0 62 -10 64 -331 64 -267 0 -288 -1 -310 -19z"/>
<path d="M3664 1887 l-29 -25 -3 -386 c-3 -434 -1 -447 60 -464 42 -12 89 6
105 39 8 16 13 74 13 170 l0 147 148 4 c125 3 155 7 198 27 102 45 154 128
154 244 0 79 -16 129 -58 177 -67 79 -88 85 -338 88 l-221 3 -29 -24z m404
-131 c62 -32 80 -134 35 -194 -28 -38 -76 -50 -190 -51 l-103 -1 0 136 0 137
113 -5 c80 -3 121 -9 145 -22z"/>
<path d="M5210 1892 c-24 -20 -38 -80 -39 -173 -1 -43 -3 -47 -30 -52 -80 -16
-80 -117 1 -117 l25 0 5 -215 c6 -245 14 -275 81 -308 51 -26 173 -25 225 0
48 23 64 63 37 93 -15 17 -29 20 -81 18 -41 -2 -67 1 -76 10 -10 10 -14 65
-16 207 l-3 195 43 0 c56 0 88 22 88 60 0 38 -32 60 -87 60 l-43 0 0 85 c0 94
-11 128 -47 144 -34 16 -57 14 -83 -7z"/>
<path d="M1642 1657 c-12 -13 -22 -36 -22 -51 0 -25 167 -452 211 -537 23 -46
45 -59 97 -59 32 0 45 6 65 29 31 37 230 534 230 574 0 60 -79 89 -120 45 -12
-13 -56 -118 -99 -235 -43 -117 -80 -210 -82 -208 -2 1 -38 98 -80 214 -43
116 -85 220 -95 231 -24 28 -77 27 -105 -3z"/>
<path d="M2502 1661 c-75 -26 -122 -68 -161 -144 -29 -57 -35 -80 -39 -150
-10 -196 96 -334 273 -356 149 -18 285 32 331 121 17 33 18 70 2 86 -21 21
-72 14 -98 -13 -49 -52 -115 -86 -168 -87 -77 0 -127 32 -157 105 -32 78 -40
75 184 79 184 3 202 5 228 24 24 18 28 29 31 77 6 109 -76 224 -185 261 -62
21 -175 20 -241 -3z m197 -118 c37 -28 59 -63 67 -105 l6 -38 -152 0 -152 0 7
33 c20 92 79 141 159 133 22 -3 51 -13 65 -23z"/>
<path d="M3107 1668 c-32 -25 -37 -67 -37 -326 0 -225 2 -261 18 -292 18 -37
49 -48 98 -36 42 11 49 40 54 231 5 153 9 187 27 226 28 62 62 76 142 59 32
-7 67 -9 79 -6 29 10 48 60 33 92 -22 49 -147 82 -204 53 -12 -6 -37 -27 -54
-47 -28 -32 -33 -34 -33 -16 0 37 -38 74 -74 74 -18 0 -40 -6 -49 -12z"/>
<path d="M4591 1669 c-148 -45 -235 -205 -210 -385 25 -178 138 -274 324 -275
127 -1 231 44 273 120 26 46 27 64 6 85 -27 27 -67 19 -115 -23 -24 -21 -58
-45 -76 -55 -43 -22 -120 -21 -163 3 -39 21 -80 89 -80 133 l0 28 173 0 c177
0 239 8 264 32 39 39 18 164 -40 239 -17 23 -57 56 -87 73 -48 27 -65 31 -145
33 -49 1 -105 -2 -124 -8z m151 -109 c45 -13 83 -59 96 -118 l10 -42 -149 0
c-147 0 -149 0 -149 22 0 45 39 106 83 127 48 24 58 25 109 11z"/>
<path d="M763 635 c-3 -9 11 -40 33 -73 31 -46 40 -69 44 -117 4 -52 8 -60 25
-60 17 0 21 8 25 55 4 44 14 68 48 118 24 35 41 70 38 78 -10 27 -36 14 -67
-36 -17 -27 -34 -50 -39 -50 -4 0 -22 23 -40 50 -32 51 -56 63 -67 35z"/>
<path d="M1706 635 c-8 -21 -8 -218 0 -239 3 -9 12 -16 20 -16 20 0 34 33 34
79 l0 40 53 3 c38 2 52 7 52 18 0 11 -14 16 -52 18 -53 3 -53 3 -53 37 l0 34
63 3 c47 2 62 7 62 18 0 23 -170 28 -179 5z"/>
<path d="M3243 630 c-85 -51 -83 -200 3 -236 69 -29 156 -3 170 50 13 53 -21
61 -51 13 -34 -54 -97 -49 -121 9 -42 100 57 196 118 114 23 -32 45 -39 54
-16 14 37 -47 86 -108 86 -18 0 -47 -9 -65 -20z"/>
<path d="M4714 635 c-7 -18 3 -35 21 -35 15 0 24 19 18 38 -6 17 -32 15 -39
-3z"/>
<path d="M1018 565 c-57 -31 -56 -140 2 -170 50 -26 107 -15 137 24 16 21 16
101 0 122 -30 39 -91 50 -139 24z m100 -57 c18 -38 -2 -82 -39 -86 -32 -4 -52
19 -52 58 0 62 65 82 91 28z"/>
<path d="M1216 565 c-10 -28 -7 -125 5 -148 22 -41 61 -49 104 -21 23 15 25
15 25 -1 0 -10 6 -15 18 -13 14 3 17 17 20 96 2 78 0 93 -14 99 -23 9 -34 -14
-34 -78 0 -57 -12 -79 -41 -79 -26 0 -33 17 -39 90 -4 49 -9 66 -21 68 -9 2
-19 -4 -23 -13z"/>
<path d="M1444 567 c-3 -8 -4 -52 -2 -98 3 -76 5 -84 23 -84 17 0 21 8 25 65
6 81 14 94 51 86 32 -6 46 8 29 29 -15 18 -51 20 -67 4 -8 -8 -13 -8 -17 0
-10 15 -36 14 -42 -2z"/>
<path d="M1930 552 c-24 -24 -30 -39 -30 -72 0 -33 6 -48 30 -72 28 -28 36
-30 78 -25 59 7 92 41 92 97 0 56 -33 90 -92 97 -42 5 -50 3 -78 -25z m104
-28 c34 -33 10 -104 -34 -104 -27 0 -50 27 -50 60 0 33 23 60 50 60 10 0 26
-7 34 -16z"/>
<path d="M2147 573 c-4 -3 -7 -46 -7 -95 0 -71 3 -90 15 -95 23 -8 27 0 32 59
7 95 10 100 46 96 24 -2 33 1 35 14 4 23 -42 35 -65 17 -13 -11 -17 -11 -20
-1 -5 13 -25 16 -36 5z"/>
<path d="M2333 570 c-25 -10 -53 -58 -53 -90 0 -53 49 -100 105 -100 35 0 74
20 81 42 9 29 -3 34 -35 15 -39 -23 -67 -21 -86 6 l-16 22 68 5 c65 5 68 6 71
32 7 58 -68 95 -135 68z m83 -47 c17 -17 17 -18 -9 -21 -15 -2 -39 -2 -54 0
-26 3 -26 4 -9 21 10 9 26 17 36 17 10 0 26 -8 36 -17z"/>
<path d="M2495 569 c-4 -5 8 -46 25 -89 51 -127 70 -130 118 -16 37 87 41 119
15 114 -12 -2 -26 -26 -41 -68 -26 -73 -30 -79 -36 -59 -34 96 -50 129 -61
129 -8 0 -17 -5 -20 -11z"/>
<path d="M2745 568 c-11 -6 -26 -18 -32 -26 -14 -17 -17 -89 -7 -117 8 -21 56
-45 89 -45 39 0 85 27 85 50 0 23 -17 25 -44 5 -35 -27 -86 -13 -86 22 0 9 17
13 59 13 68 0 87 14 72 53 -19 50 -87 72 -136 45z m85 -48 c10 -19 8 -20 -35
-20 -46 0 -54 7 -33 28 19 19 56 14 68 -8z"/>
<path d="M2934 567 c-3 -8 -4 -52 -2 -98 3 -76 5 -84 23 -84 18 0 20 8 23 65
3 71 15 92 46 88 32 -4 50 10 35 28 -14 17 -51 18 -68 2 -11 -10 -14 -10 -18
0 -6 16 -32 16 -39 -1z"/>
<path d="M3501 566 c-13 -7 -30 -24 -37 -37 -55 -100 76 -200 157 -120 83 83
-17 214 -120 157z m87 -38 c16 -16 16 -80 0 -96 -29 -29 -88 3 -88 48 0 45 59
77 88 48z"/>
<path d="M3694 567 c-3 -8 -4 -52 -2 -98 3 -76 5 -84 23 -84 17 0 21 8 25 65
6 74 13 90 40 90 22 0 29 -19 32 -100 3 -47 6 -55 23 -55 18 0 21 8 25 69 4
50 10 72 22 79 31 20 48 -8 48 -80 0 -49 4 -65 16 -70 24 -9 34 15 34 90 0 54
-4 71 -20 87 -23 23 -58 26 -85 6 -16 -11 -22 -11 -46 3 -24 13 -33 14 -61 3
-21 -8 -34 -9 -36 -2 -5 15 -32 12 -38 -3z"/>
<path d="M4027 573 c-4 -3 -7 -64 -7 -135 0 -109 2 -130 16 -135 22 -8 34 14
34 66 0 42 1 43 18 28 26 -24 66 -21 99 7 24 21 28 32 28 76 0 44 -4 55 -28
76 -32 27 -63 31 -94 9 -19 -13 -22 -13 -27 0 -6 15 -28 20 -39 8z m133 -65
c13 -25 13 -31 0 -55 -19 -34 -45 -40 -71 -17 -24 21 -25 61 -2 86 23 25 54
19 73 -14z"/>
<path d="M4282 564 c-24 -17 -30 -54 -8 -54 7 0 19 7 26 16 15 17 71 16 77 -3
3 -7 -13 -16 -39 -23 -76 -19 -88 -27 -88 -59 0 -56 58 -80 109 -44 22 15 25
15 37 -2 18 -25 48 -12 40 18 -3 12 -6 46 -6 75 0 67 -22 92 -83 92 -23 0 -53
-7 -65 -16z m98 -104 c0 -23 -40 -46 -65 -36 -9 3 -15 14 -13 23 3 15 24 24
71 32 4 0 7 -8 7 -19z"/>
<path d="M4484 567 c-3 -8 -4 -52 -2 -98 3 -76 5 -84 23 -84 17 0 21 8 25 65
6 76 13 90 45 90 28 0 33 -15 37 -100 3 -47 6 -55 23 -55 18 0 20 8 23 77 2
67 0 80 -18 98 -24 24 -67 26 -92 4 -16 -16 -18 -16 -24 0 -7 19 -33 21 -40 3z"/>
<path d="M4717 573 c-4 -3 -7 -46 -7 -95 0 -72 3 -90 16 -95 9 -3 20 0 25 8
10 16 12 149 3 173 -6 16 -26 21 -37 9z"/>
<path d="M4829 551 c-23 -23 -29 -38 -29 -71 0 -33 6 -48 29 -71 62 -61 171
-16 171 71 0 87 -109 132 -171 71z m111 -43 c13 -25 13 -31 0 -55 -17 -31 -53
-41 -76 -23 -17 15 -19 81 -2 98 21 21 61 10 78 -20z"/>
<path d="M5042 483 c3 -84 6 -98 21 -101 14 -3 17 5 17 50 0 60 17 101 44 106
29 6 41 -15 46 -86 4 -51 9 -67 20 -67 12 0 16 17 18 80 3 72 1 82 -19 98 -26
21 -58 22 -86 2 -19 -13 -22 -13 -27 0 -3 8 -12 15 -21 15 -13 0 -15 -14 -13
-97z"/>
</g>
</svg>
