<?xml version="1.0" encoding="UTF-8"?>
<svg version="1.1" xmlns="http://www.w3.org/2000/svg" width="1007" height="893">
<path d="M0 0 C17.13019228 0.26976681 32.31233752 7.67694014 44.125 19.8125 C54.0410712 32.08606851 59.07205686 47.47708002 58.25 63.1875 C57.6558111 68.5418764 56.32842755 73.23903369 54.375 78.25 C56.84007914 79.16052473 57.94280911 79.44096807 60.390625 78.359375 C61.12796875 77.91078125 61.8653125 77.4621875 62.625 77 C75.50918105 70.20686773 90.13245699 70.08763072 103.9375 73.875 C112.53152179 76.72925693 120.57711054 81.24027164 127.375 87.25 C127.375 87.91 127.375 88.57 127.375 89.25 C128.035 89.25 128.695 89.25 129.375 89.25 C139.7698511 100.72179514 146.14324986 116.42401988 145.625 132.00390625 C144.40284826 142.98417577 141.52172391 153.63832599 135 162.6875 C133.15997619 165.03604054 133.15997619 165.03604054 133.5 167.3125 C133.78875 167.951875 134.0775 168.59125 134.375 169.25 C135.04508845 170.91529388 135.71211326 172.58182633 136.375 174.25 C137.24640625 174.0334375 138.1178125 173.816875 139.015625 173.59375 C155.19133085 169.81241616 170.48555481 170.29303882 185.421875 178.3203125 C193.64667271 183.69471735 201.20288219 190.86985976 206.375 199.25 C206.82359375 199.971875 207.2721875 200.69375 207.734375 201.4375 C215.79060671 215.84393788 215.90394251 231.95426115 211.578125 247.4375 C209.13190428 255.18916045 205.46435286 261.92269644 200.375 268.25 C199.715 268.25 199.055 268.25 198.375 268.25 C198.148125 268.8275 197.92125 269.405 197.6875 270 C196.04461977 272.8163661 193.97966773 274.33077114 191.375 276.25 C191.57996094 276.91386719 191.78492188 277.57773437 191.99609375 278.26171875 C192.26550781 279.14472656 192.53492188 280.02773438 192.8125 280.9375 C193.21275391 282.24267578 193.21275391 282.24267578 193.62109375 283.57421875 C194.33844529 286.12025921 194.892541 288.6503423 195.375 291.25 C196.035 290.92 196.695 290.59 197.375 290.25 C209.96057209 288.57008775 225.19890728 292.94019867 235.375 300.25 C248.90654499 310.95890919 257.63319566 323.98143798 260.0546875 341.328125 C261.80127958 357.26045277 257.31049021 372.5959788 247.6875 385.375 C241.73877164 392.51347403 234.58889754 397.96448824 226.375 402.25 C226.705 403.57 227.035 404.89 227.375 406.25 C229.00695312 406.10691406 229.00695312 406.10691406 230.671875 405.9609375 C250.20385056 404.41301115 265.96294432 408.59713288 281.55859375 420.984375 C291.93037807 430.44635368 298.79440108 445.08620496 299.78515625 458.984375 C300.42544597 473.90298221 297.52696889 485.79749065 288.6328125 498.078125 C288.21773437 498.79484375 287.80265625 499.5115625 287.375 500.25 C287.705 501.24 288.035 502.23 288.375 503.25 C291.89670497 502.65123137 293.75199105 501.30903574 296.4375 499 C306.82071561 490.76096062 320.69977106 486.34888909 334.0234375 486.97265625 C352.72152627 489.17791257 366.48177249 496.87930826 378.6875 511.0625 C386.59628409 521.33593065 389.75077581 533.3618817 389.5625 546.125 C389.56185547 546.97835937 389.56121094 547.83171875 389.56054688 548.7109375 C389.51599493 554.96801013 389.51599493 554.96801013 388.375 557.25 C391.65599409 555.84896549 393.44914935 554.25653684 395.6875 551.5 C406.99822132 538.31207914 420.72725611 533.07134819 437.60546875 530.97265625 C451.48303763 530.23291377 466.69396713 536.17296691 477.06640625 545.1015625 C489.20005146 556.39344891 495.2108895 568.98825535 497.375 585.25 C497.375 586.24 497.375 587.23 497.375 588.25 C498.138125 588.45625 498.90125 588.6625 499.6875 588.875 C509.89017564 592.67938753 520.73832593 598.5284951 525.875 608.5625 C529.37158823 617.15827939 529.21042543 623.78643643 525.75 632.4375 C521.2727119 641.59558929 514.13460374 648.90218513 507.19921875 656.23828125 C504.9300658 658.63928329 502.75807016 661.10143645 500.625 663.625 C497.87227683 666.80680471 494.88268519 669.4881539 491.67578125 672.203125 C488.78824977 674.7719985 486.08833222 677.49948148 483.375 680.25 C479.56998842 684.09730907 475.72712156 687.79879116 471.59765625 691.30078125 C469.81086443 692.86775685 468.08692133 694.46292628 466.37109375 696.10546875 C458.13076493 703.97260079 449.48187846 710.97227326 440.34570312 717.77148438 C438.58351194 719.09356438 436.84149154 720.43577222 435.109375 721.796875 C412.7465687 739.34307686 388.59004106 754.4279397 364.375 769.25 C362.70945068 770.27262939 362.70945068 770.27262939 361.01025391 771.31591797 C347.61318928 779.53956436 334.2171851 787.7326244 320.36376953 795.17333984 C318.41696793 796.22727982 316.48718011 797.3076899 314.55859375 798.39453125 C290.11594449 811.99394635 263.87477107 821.37149561 237.25415039 829.66271973 C235.59634333 830.18082482 233.94148473 830.70834407 232.28710938 831.23730469 C219.69026615 835.22952087 206.79875339 837.60978983 193.8125 839.9375 C193.01533569 840.08256989 192.21817139 840.22763977 191.39685059 840.37710571 C159.81460168 846.06407357 127.80346309 847.37375704 95.81949234 849.05805206 C92.14373643 849.25231287 88.46813757 849.44932775 84.79257202 849.64715576 C52.17792594 851.40090899 19.56263748 852.99415334 -13.0769043 854.20043945 C-15.99270071 854.30874896 -18.90847038 854.41774864 -21.82421875 854.52734375 C-22.54165442 854.55424349 -23.25909008 854.58114323 -23.99826622 854.60885811 C-35.90817167 855.06003921 -47.80661515 855.66396445 -59.70703125 856.31640625 C-94.50229892 858.20933021 -129.20800182 859.63552618 -164.06164551 859.62561417 C-166.6295632 859.62501355 -169.19746484 859.62750532 -171.76538086 859.63021851 C-195.40127627 859.6392885 -218.88223237 858.73469314 -242.45339966 856.96209717 C-243.67542084 856.87067444 -244.89744202 856.77925171 -246.15649414 856.68505859 C-247.77389244 856.55990372 -247.77389244 856.55990372 -249.42396545 856.43222046 C-252.83081566 856.23828384 -256.21337185 856.22003405 -259.625 856.25 C-259.625 856.91 -259.625 857.57 -259.625 858.25 C-263.05395693 859.39298564 -266.06023812 859.39844697 -269.625 859.375 C-270.38119629 859.37234131 -271.13739258 859.36968262 -271.91650391 859.36694336 C-293.15248604 859.20695456 -314.42556804 858.48773081 -335.625 857.25 C-335.625 856.59 -335.625 855.93 -335.625 855.25 C-323.745 855.25 -311.865 855.25 -299.625 855.25 C-303.64300781 855.12882813 -307.66101563 855.00765625 -311.80078125 854.8828125 C-315.0923269 854.78021435 -318.38383125 854.6764461 -321.67531586 854.57191467 C-325.1012512 854.46342255 -328.52721632 854.3567843 -331.95336914 854.25537109 C-382.85590299 852.7342107 -382.85590299 852.7342107 -400 848.9375 C-401.53817383 848.61048096 -401.53817383 848.61048096 -403.10742188 848.27685547 C-415.13922602 845.61693182 -427.60611272 842.40736252 -435.28515625 832 C-439.33485061 824.96097693 -440.04441422 817.68961846 -437.99609375 809.83984375 C-434.57049755 801.12991979 -427.9312851 794.01060614 -420.83203125 788.1015625 C-418.14944141 785.85103581 -415.58012308 783.49214946 -413 781.125 C-409.28137597 777.73220812 -405.53468102 774.42001164 -401.625 771.25 C-403.275 770.92 -404.925 770.59 -406.625 770.25 C-404.625 767.25 -404.625 767.25 -402 766.5625 C-400.824375 766.4078125 -400.824375 766.4078125 -399.625 766.25 C-400.39070313 764.87908203 -400.39070313 764.87908203 -401.171875 763.48046875 C-434.41260663 702.94931453 -450.46984791 633.7976712 -454.625 565.25 C-454.69548553 564.11256348 -454.69548553 564.11256348 -454.76739502 562.95214844 C-455.60883497 549.05315221 -455.86608752 535.17286231 -455.875 521.25 C-455.87600708 520.13927124 -455.87701416 519.02854248 -455.87805176 517.88415527 C-455.84753028 467.23466142 -452.02161569 416.46336966 -443.0456543 366.59735107 C-442.62400964 364.24447354 -442.21067367 361.89025525 -441.79882812 359.53564453 C-434.90818581 320.37803683 -424.65892499 281.92057426 -413.82519531 243.68969727 C-411.72721526 236.28257959 -409.76437119 228.86849455 -408 221.375 C-397.96910692 179.79964558 -375.64058226 141.18223438 -347.625 109.25 C-347.026875 108.55261719 -346.42875 107.85523437 -345.8125 107.13671875 C-344.10495356 105.15415882 -342.3697025 103.19996161 -340.625 101.25 C-339.98957275 100.53094482 -339.98957275 100.53094482 -339.34130859 99.79736328 C-333.34878414 93.03598664 -327.31570189 86.86688476 -320.1796875 81.27734375 C-317.86367626 79.43940823 -315.71983597 77.51882996 -313.5625 75.5 C-284.42194541 49.41868512 -245.3405206 29.78522845 -207.625 20.25 C-206.7376416 20.01474609 -205.8502832 19.77949219 -204.93603516 19.53710938 C-197.53874428 17.5803507 -190.11064215 15.83520786 -182.625 14.25 C-181.60728516 14.0339209 -180.58957031 13.8178418 -179.54101562 13.59521484 C-163.1792311 10.30456201 -146.94301521 9.86103091 -130.3125 9.8125 C-128.8087532 9.80310394 -128.8087532 9.80310394 -127.27462769 9.79351807 C-107.66491046 9.71605134 -88.5295318 11.71047046 -69.4375 16.25 C-68.35404297 16.4975 -67.27058594 16.745 -66.15429688 17 C-58.95460577 18.65648975 -51.7864688 20.43611501 -44.625 22.25 C-44.17821899 21.31293213 -44.17821899 21.31293213 -43.72241211 20.35693359 C-38.95045354 11.19519779 -26.63846029 6.16305733 -17.4375 2.9375 C-11.53459996 1.1018885 -6.16205583 0.42496937 0 0 Z M-6.625 30.25 C-4.53226278 31.31320672 -2.43613226 32.33446849 -0.29296875 33.29296875 C7.15155459 36.72800078 13.00621217 40.59037401 16.1875 48.375 C18.49797897 53.65316085 23.27045808 55.22376962 28.375 57.25 C28.10196626 48.78595398 25.57540369 42.37387811 19.4453125 36.35546875 C11.36986325 29.89825155 3.35407578 29.97988968 -6.625 30.25 Z M-135.625 39.25 C-135.625 39.58 -135.625 39.91 -135.625 40.25 C-133.80742187 40.30607422 -133.80742187 40.30607422 -131.953125 40.36328125 C-110.87455541 41.13499288 -91.00818795 44.89878919 -70.625 50.25 C-69.27027588 50.60384766 -69.27027588 50.60384766 -67.88818359 50.96484375 C-54.82623921 54.44475217 -42.78910526 59.39159005 -30.625 65.25 C-29.25523065 65.89457867 -27.88544016 66.53911242 -26.515625 67.18359375 C-9.75518073 75.19428441 5.61252747 84.76905011 19.72363281 96.85449219 C21.88694767 98.68262757 24.12836882 100.40084119 26.375 102.125 C38.64274161 111.9557155 49.47540442 123.07210106 59.375 135.25 C60.19742188 136.25289063 61.01984375 137.25578125 61.8671875 138.2890625 C63.37101966 140.12707959 64.87125257 141.96804977 66.3671875 143.8125 C68.13833127 145.96268232 69.95408751 148.05049304 71.8125 150.125 C76.10459866 154.99525807 80.02313547 160.14817123 83.92675781 165.33056641 C84.90920531 166.63265714 85.89567346 167.9317221 86.88574219 169.22802734 C125.39048208 219.70432772 151.16978553 273.85497153 166.23260498 335.60983276 C169.43238446 348.72722454 172.92084943 361.74847751 176.5625 374.75 C176.80876129 375.63190002 177.05502258 376.51380005 177.30874634 377.42242432 C190.92673492 426.12637127 206.21138286 473.4834275 241.90771484 510.71533203 C243.29066898 512.16179621 244.65572437 513.62531258 246.01953125 515.08984375 C258.06033366 527.67221149 272.16048019 536.5845438 287.26660156 545.04638672 C290.04604622 546.63307757 292.73996063 548.34089967 295.4375 550.0625 C306.1043083 556.67025736 317.25451545 562.45153973 328.375 568.25 C329.46151855 568.81976562 330.54803711 569.38953125 331.66748047 569.9765625 C348.1775177 578.54932145 364.88563756 584.90062283 382.59996033 590.4233551 C387.03101967 591.80605141 391.41247215 593.30226026 395.796875 594.828125 C403.14113303 597.28836508 410.54381348 598.96519851 418.12194824 600.53128052 C441.4055795 605.3751513 464.89006397 610.81800794 486.375 621.25 C487.365 621.58 488.355 621.91 489.375 622.25 C486.60779089 627.78441822 483.09404744 632.00276586 478.88671875 636.52734375 C476.90507746 638.67540593 474.98600563 640.85020197 473.078125 643.0625 C469.36528013 647.32010202 465.4424169 651.33075523 461.4375 655.3125 C460.77298828 655.98087891 460.10847656 656.64925781 459.42382812 657.33789062 C455.4532773 661.30073912 451.36505858 665.06125582 447.11791992 668.7253418 C445.15410138 670.44323602 443.3097304 672.24599762 441.5 674.125 C438.59145022 677.14177489 438.59145022 677.14177489 436.375 678.25 C436.375 678.91 436.375 679.57 436.375 680.25 C435.84003906 680.47171875 435.30507813 680.6934375 434.75390625 680.921875 C431.56832308 682.7003615 429.01737532 685.0821584 426.3125 687.5 C418.50222971 694.3313803 410.21499355 700.42602135 401.80517578 706.49316406 C399.41332377 708.22229477 397.03172711 709.96470116 394.65234375 711.7109375 C386.86679184 717.4075624 379.01524914 722.89256561 370.85546875 728.0390625 C366.85742398 730.56085268 362.92861009 733.18429282 359 735.8125 C358.33846924 736.25489014 357.67693848 736.69728027 356.99536133 737.15307617 C355.45459985 738.18442711 353.91469951 739.21706433 352.375 740.25 C353.035 740.58 353.695 740.91 354.375 741.25 C356.24271821 740.43355472 356.24271821 740.43355472 358.28515625 739.1015625 C359.09782959 738.59923096 359.91050293 738.09689941 360.74780273 737.5793457 C361.63540283 737.01691162 362.52300293 736.45447754 363.4375 735.875 C364.82207397 735.00717896 364.82207397 735.00717896 366.23461914 734.12182617 C377.81624615 726.79873224 389.11177555 719.05058513 400.375 711.25 C401.10364258 710.74839355 401.83228516 710.24678711 402.58300781 709.72998047 C411.62966099 703.49003881 420.13703232 696.68671723 428.609375 689.6953125 C430.92061299 687.80336989 433.27227109 685.96495466 435.625 684.125 C440.8679813 679.93759397 445.78173509 675.40552886 450.68310547 670.82861328 C452.51496256 669.11940867 454.35295022 667.41694724 456.19140625 665.71484375 C462.12991953 660.2062514 468.02386193 654.68395824 473.69140625 648.89453125 C475.32875154 647.29517541 477.03052774 645.87196747 478.8125 644.4375 C482.81477201 641.09163706 485.91522492 637.0817155 489.15234375 633.01171875 C491.70889047 629.83513082 494.40532292 626.81329859 497.16015625 623.80859375 C498.57992046 622.31644935 498.57992046 622.31644935 498.375 620.25 C496.23668503 619.16994863 494.09080369 618.1119911 491.9375 617.0625 C491.36451172 616.77052734 490.79152344 616.47855469 490.20117188 616.17773438 C476.38914472 609.52219797 460.51025113 606.73850882 445.7265625 603.08618164 C420.57252363 596.86744089 395.67761866 590.32560825 371.375 581.25 C370.42077148 580.89421875 369.46654297 580.5384375 368.48339844 580.171875 C363.00343256 578.08505762 357.67000551 575.76719221 352.375 573.25 C350.93616455 572.5686499 350.93616455 572.5686499 349.46826172 571.87353516 C334.33495103 564.64013538 319.71853618 556.68182276 305.34814453 548.03808594 C302.2996366 546.20467552 299.24190558 544.38731236 296.18359375 542.5703125 C283.0615887 534.73062137 270.86671545 526.73215192 259.62890625 516.29296875 C257.38531581 514.20447857 257.38531581 514.20447857 254.86328125 512.31640625 C252.17865828 510.08694698 250.16390691 507.73417841 248 505 C245.42143246 501.76830845 242.83251807 498.63455045 240 495.625 C234.79160882 489.73830671 230.77290012 482.90292758 226.625 476.25244141 C225.59496891 474.60237989 224.54954097 472.96193997 223.5 471.32421875 C219.38443034 464.64631125 216.10304444 457.6123747 212.8125 450.5 C212.36519531 449.53634521 211.91789062 448.57269043 211.45703125 447.57983398 C205.46741429 434.40201991 200.74623115 420.84719247 196.61328125 406.98828125 C196.40425989 406.29326319 196.19523853 405.59824512 195.97988319 404.88216591 C191.07750832 388.57078637 186.59510134 372.14712796 182.17211914 355.70050049 C181.35120065 352.65312415 180.52505021 349.60717652 179.69884968 346.56122875 C172.70801949 320.7801498 172.70801949 320.7801498 169.6796875 308.25 C167.4223447 298.99643325 164.50314869 290.03267109 161.3125 281.0625 C161.03320648 280.27072357 160.75391296 279.47894714 160.46615601 278.66317749 C155.39305954 264.34678348 149.48361138 250.69014785 142.375 237.25 C141.73183838 236.02144287 141.73183838 236.02144287 141.07568359 234.76806641 C131.79039616 217.15753882 120.84819268 200.50013535 109.375 184.25 C108.86855957 183.5295752 108.36211914 182.80915039 107.84033203 182.06689453 C100.52874553 171.69474858 92.86068973 161.71509932 84.76757812 151.94238281 C82.91786922 149.69445467 81.11462447 147.41116617 79.3125 145.125 C70.78507884 134.4478088 61.72470749 124.21109187 52.375 114.25 C51.76269531 113.59515625 51.15039062 112.9403125 50.51953125 112.265625 C46.39478542 107.99391673 41.87244554 104.27864689 37.24609375 100.5625 C35.40913329 99.08293457 33.58710661 97.58450936 31.78515625 96.0625 C18.68058128 85.02706844 4.48231396 76.24904192 -10.625 68.25 C-11.73746094 67.64671875 -12.84992188 67.0434375 -13.99609375 66.421875 C-31.22721564 57.39504493 -49.61957274 50.38570845 -68.625 46.25 C-69.594375 46.03504883 -70.56375 45.82009766 -71.5625 45.59863281 C-93.14205949 40.87136056 -113.54693902 38.86282235 -135.625 39.25 Z M80.375 101.25 C82.45166228 102.31214607 84.52325414 103.31278109 86.671875 104.22265625 C94.50524321 107.70276728 100.52744041 112.9251172 104.3125 120.75 C105.19654317 123.66214221 105.5149174 125.71806401 105.6875 128.6875 C106.09398465 134.06418336 108.88015998 137.32765661 112.375 141.25 C114.51478616 140.46751414 114.51478616 140.46751414 114.98046875 138.5703125 C116.4843331 129.72580332 116.08178826 121.02816703 111.375 113.25 C106.666523 106.99011238 101.07820449 102.92134896 93.375 101.25 C89.01636592 100.96038976 84.73442349 101.00401372 80.375 101.25 Z M-99.625 163.25 C-102.01098167 166.82897251 -102.41079503 168.96590055 -102.625 173.25 C-100.73746163 179.43693131 -98.08896443 182.34744082 -92.46337891 185.43725586 C-89.82335576 186.7812629 -87.16605514 188.0834137 -84.5 189.375 C-82.52260126 190.34725941 -80.54605385 191.32125199 -78.5703125 192.296875 C-77.57676758 192.78736328 -76.58322266 193.27785156 -75.55957031 193.78320312 C-71.12935772 195.99757228 -66.75047018 198.30481515 -62.375 200.625 C-61.19562866 201.24568359 -61.19562866 201.24568359 -59.99243164 201.87890625 C-56.81265427 203.55315499 -53.64528566 205.23872737 -50.50390625 206.984375 C-45.24481763 209.83404859 -41.63576637 211.0013458 -35.625 210.25 C-34.635 209.26 -34.635 209.26 -33.625 208.25 C-34.37370361 207.8782666 -35.12240723 207.5065332 -35.89379883 207.12353516 C-88.58970801 180.93497167 -88.58970801 180.93497167 -92.625 174.25 C-92.953125 171.8125 -92.953125 171.8125 -92.875 169.25 C-92.85953125 168.404375 -92.8440625 167.55875 -92.828125 166.6875 C-92.64012019 164.43144231 -92.24830092 162.42149996 -91.625 160.25 C-95.25827194 160.25 -96.67235927 161.20586411 -99.625 163.25 Z M-312.625 187.25 C-315.32472368 191.338153 -315.91884408 194.19154376 -315.1875 198.9375 C-314.24858435 202.25198538 -313.5943165 203.2806835 -311.0625 205.8125 C-306.74589125 207.6176273 -303.23213084 207.61857047 -298.625 207.25 C-299.04652344 206.77949219 -299.46804688 206.30898437 -299.90234375 205.82421875 C-300.45019531 205.20160156 -300.99804688 204.57898438 -301.5625 203.9375 C-302.10777344 203.32261719 -302.65304687 202.70773438 -303.21484375 202.07421875 C-306.34401208 198.02623645 -306.24691408 193.13646775 -305.625 188.25 C-304.53317873 185.63248962 -303.23376311 183.61287082 -301.625 181.25 C-305.82511697 181.25 -309.50188437 184.67399951 -312.625 187.25 Z M-188.625 203.25 C-191.01460795 206.67570932 -192.86801044 210.33943371 -194.75 214.0625 C-195.7709915 216.02861587 -196.79436823 217.99349525 -197.8203125 219.95703125 C-198.29758789 220.87564941 -198.77486328 221.79426758 -199.26660156 222.74072266 C-200.88265083 225.72594092 -202.66182159 228.48370315 -204.625 231.25 C-200.20215755 230.72966559 -196.8341844 229.31794891 -193.625 226.25 C-187.54975308 218.40689832 -183.62554255 209.26034051 -179.625 200.25 C-183.67694616 200.25 -185.23543773 200.94194843 -188.625 203.25 Z M154.375 200.25 C155.03676281 203.31315833 155.03676281 203.31315833 157.1953125 204.35546875 C157.95585938 204.71253906 158.71640625 205.06960937 159.5 205.4375 C167.47320753 209.70931389 171.91449484 215.70361047 174.7421875 224.24609375 C175.66450974 228.62427773 175.48091153 232.82508808 175.31640625 237.27734375 C175.39561902 241.29607175 176.43548602 243.77503746 178.375 247.25 C182.79549846 243.74408743 184.21860704 239.60460216 185.375 234.25 C186.43214133 225.00715625 184.12598714 217.55530799 178.375 210.25 C172.92885101 204.48203312 167.30587057 200.72970277 159.25 200.078125 C157.62404324 200.06501245 155.99770734 200.14642294 154.375 200.25 Z M-257.4375 241.9375 C-259.16143852 245.29464343 -259.85607021 248.50955101 -259.625 252.25 C-257.27084774 257.1466367 -254.33928998 259.65293071 -249.625 262.25 C-246.73628296 262.58686606 -244.25407495 262.72131714 -241.3828125 262.640625 C-240.23025467 262.63213531 -240.23025467 262.63213531 -239.05441284 262.62347412 C-236.61895379 262.60122173 -234.18500843 262.55105041 -231.75 262.5 C-230.0911672 262.47992042 -228.43231116 262.4616722 -226.7734375 262.4453125 C-222.72338201 262.40139406 -218.67444694 262.33244763 -214.625 262.25 C-214.625 261.92 -214.625 261.59 -214.625 261.25 C-215.3456665 261.2406543 -216.06633301 261.23130859 -216.80883789 261.22167969 C-220.10239705 261.16769993 -223.39457799 261.08410573 -226.6875 261 C-227.82123047 260.98582031 -228.95496094 260.97164063 -230.12304688 260.95703125 C-236.77260484 260.76316659 -241.27702586 260.3444268 -246.625 256.25 C-249.95867036 250.83278566 -249.90069238 247.23594114 -248.625 241.25 C-247.5625 238.75 -247.5625 238.75 -246.625 237.25 C-251.03733209 237.25 -254.21946306 238.94139665 -257.4375 241.9375 Z M-168.625 240.25 C-170.275 241.9 -171.925 243.55 -173.625 245.25 C-170.39578532 252.72057127 -162.57943972 256.02657567 -155.50390625 259.1953125 C-152.57892764 260.26687861 -149.81206532 260.7767416 -146.75 261.3125 C-143.17126704 262.19701639 -141.99583573 262.66343772 -140 265.8203125 C-139.16226224 267.90942104 -138.38755221 270.02484336 -137.67578125 272.16015625 C-135.98260933 277.13896291 -133.34496348 281.53003652 -129.625 285.25 C-125.36027274 285.74329585 -125.36027274 285.74329585 -121.75 283.75 C-121.37875 283.255 -121.0075 282.76 -120.625 282.25 C-121.23730469 281.59128906 -121.84960938 280.93257813 -122.48046875 280.25390625 C-124.35096231 277.63385243 -125.02264572 276.36649722 -125.80078125 273.40234375 C-127.46556092 267.00358417 -127.46556092 267.00358417 -130.625 261.25 C-134.32045633 259.3230529 -137.81122004 258.53701774 -141.875 257.87109375 C-153.26577691 255.98449632 -160.76821821 248.10678179 -168.625 240.25 Z M-120.625 261.25 C-118.975 265.54 -117.325 269.83 -115.625 274.25 C-112.70982581 271.33482581 -111.84426746 269.79771015 -110.4375 266.0625 C-109.839375 264.474375 -109.24125 262.88625 -108.625 261.25 C-112.585 261.25 -116.545 261.25 -120.625 261.25 Z M204.375 319.25 C204.25864895 321.54781554 204.25864895 321.54781554 205.375 324.25 C207.06904602 325.73606216 207.06904602 325.73606216 209.125 327.125 C216.47692607 332.30685845 219.6182978 338.48000208 221.375 347.25 C222.40899202 354.52577311 220.32227624 360.62158758 217.375 367.25 C216.88 367.745 216.88 367.745 216.375 368.25 C216.33436168 369.91617115 216.332279 371.58388095 216.375 373.25 C222.27294589 370.84713315 226.50660777 365.78896431 229.375 360.25 C231.88689438 350.61463078 232.21282882 341.80264552 227.1875 333 C222.15085416 325.68873991 215.71178282 321.31735656 206.9375 319.5625 C205.6690625 319.4078125 205.6690625 319.4078125 204.375 319.25 Z M15.375 415.25 C13.94398869 417.67527158 12.71644901 419.98019793 11.5390625 422.51953125 C11.19944489 423.22511673 10.85982727 423.93070221 10.50991821 424.65766907 C9.80289207 426.12844162 9.10093279 427.60166011 8.40393066 429.07720947 C7.13246519 431.7621602 5.8276792 434.4300218 4.52146912 437.09819031 C2.92046646 440.37286759 1.33603396 443.65555372 -0.25 446.9375 C-1.29976464 449.10913251 -2.34954839 451.28075576 -3.3993988 453.4523468 C-4.10850033 454.9191435 -4.8174547 456.38601136 -5.52626038 457.85295105 C-7.77473668 462.50311318 -10.04044312 467.144491 -12.31640625 471.78125 C-18.36276671 484.12196434 -24.1906025 496.53117003 -29.6875 509.125 C-30.21174561 510.31826904 -30.73599121 511.51153809 -31.27612305 512.7409668 C-41.30302463 536.00513047 -48.9827264 562.12670876 -41.625 587.25 C-36.21502993 600.63599846 -27.35878725 606.91771667 -14.53320312 612.48291016 C-5.34587509 616.17617841 4.65144006 615.46960361 14.375 615.25 C14.375 614.92 14.375 614.59 14.375 614.25 C13.25222656 614.07984375 12.12945312 613.9096875 10.97265625 613.734375 C-4.79600985 611.23132825 -4.79600985 611.23132825 -11.625 607.25 C-12.38039063 606.81816406 -13.13578125 606.38632812 -13.9140625 605.94140625 C-24.58920146 599.35423856 -30.54627996 590.19807097 -33.9375 578.1875 C-40.77594101 540.74205603 -18.72408492 502.09554136 -2.75 469.875 C-0.7087869 465.74324719 1.32955531 461.61008229 3.3671875 457.4765625 C4.11509552 455.96041351 4.11509552 455.96041351 4.87811279 454.41363525 C8.40041615 447.26165954 11.87802618 440.08926076 15.3203125 432.8984375 C15.75624725 431.98873199 16.19218201 431.07902649 16.6413269 430.14175415 C19.62965192 423.87891967 22.52301632 417.57601277 25.375 411.25 C20.57650239 411.05183371 18.82064627 411.76588393 15.375 415.25 Z M-359.875 435.375 C-362.0598701 438.96442945 -362.93857172 442.08831527 -362.625 446.25 C-359.75729092 452.92638521 -355.75956485 458.83859193 -351.74588013 464.87619019 C-349.82012376 467.77339729 -347.90861787 470.67998542 -345.99609375 473.5859375 C-345.61561386 474.16337204 -345.23513397 474.74080658 -344.84312439 475.33573914 C-341.72360715 480.07842601 -338.6898712 484.87015112 -335.6875 489.6875 C-331.99168824 495.61617112 -328.16435234 501.43769954 -324.24171448 507.21899414 C-285.12378941 564.90536779 -285.12378941 564.90536779 -287.625 588.25 C-288.17014029 590.65231315 -288.84417022 592.90751066 -289.625 595.25 C-284.56482644 594.8035141 -282.19194486 592.654811 -278.625 589.25 C-273.76287291 574.66361874 -283.29584662 557.65965619 -289.68359375 544.83203125 C-296.81416822 531.00934773 -305.34949206 517.90702102 -314.0703125 505.04296875 C-318.83744087 498.00190881 -323.41572341 490.8340438 -328.03759766 483.69726562 C-329.52465421 481.40470105 -331.01710501 479.11576746 -332.51171875 476.828125 C-334.77054154 473.36714771 -337.01136855 469.8951661 -339.23828125 466.41357422 C-340.20539926 464.9046658 -341.17711794 463.39870051 -342.15234375 461.89501953 C-343.69993085 459.50175905 -345.22685324 457.09637077 -346.75 454.6875 C-347.2238916 453.96159668 -347.6977832 453.23569336 -348.18603516 452.48779297 C-351.20621444 447.65126648 -352.46260918 443.9817945 -352.625 438.25 C-351.97616674 435.56392106 -350.91724041 433.73110159 -349.625 431.25 C-354.08040574 431.25 -356.62472232 432.3052933 -359.875 435.375 Z M237.375 435.25 C238.68881629 437.87763258 239.79607058 437.95509168 242.5 439 C251.43942619 442.88794092 255.77159792 448.22660472 259.375 457.25 C260.63113434 460.904209 260.34005863 464.2904181 260.1875 468.125 C260.12106155 473.92326445 260.39243279 477.01852234 264.375 481.25 C269.87874277 475.01242486 270.85494887 469.48815785 270.68359375 461.34375 C269.84141368 452.90062828 265.87329415 445.68734817 259.375 440.25 C252.20624215 435.66779242 245.77682284 434.51870014 237.375 435.25 Z M325.375 517.25 C327.46453508 518.31638342 329.55298747 519.32691921 331.70703125 520.2578125 C339.57074807 523.79958102 344.88113505 528.36204643 348.1875 536.4375 C350.50568472 541.66114289 355.31260665 543.24050035 360.375 545.25 C359.93886468 536.09115823 357.3089959 529.6683632 350.5 523.375 C342.24532407 516.78654569 335.75606017 516.86125017 325.375 517.25 Z M432.375 561.25 C432.375 561.58 432.375 561.91 432.375 562.25 C432.92027344 562.39695312 433.46554687 562.54390625 434.02734375 562.6953125 C440.5105634 564.62365476 447.88594067 567.47031731 451.74609375 573.33203125 C454.03287147 576.02461605 456.15343111 576.2668669 459.5625 577 C460.64917969 577.24234375 461.73585938 577.4846875 462.85546875 577.734375 C463.68691406 577.90453125 464.51835938 578.0746875 465.375 578.25 C462.97866 571.72165317 459.46657481 567.05501026 453.1875 563.875 C448.3479022 561.67952171 444.52900002 561.13849541 439.1875 561.1875 C437.91519531 561.19652344 436.64289062 561.20554687 435.33203125 561.21484375 C434.35621094 561.22644531 433.38039063 561.23804688 432.375 561.25 Z M-390.6875 600.5 C-391.37972656 600.91765625 -392.07195312 601.3353125 -392.78515625 601.765625 C-395.95329428 604.32165993 -396.55715387 606.63938484 -397 610.625 C-396.55015417 614.97350969 -395.42290424 616.92276253 -392.625 620.25 C-388.74916614 623.075625 -385.78751494 623.69272839 -381.03393555 623.95776367 C-379.71874435 624.03762009 -378.40355316 624.1174765 -377.04850769 624.19975281 C-375.61959591 624.2728415 -374.19066572 624.34557125 -372.76171875 624.41796875 C-371.28580954 624.50225078 -369.80996442 624.58766209 -368.33418274 624.67414856 C-364.45316556 624.89826116 -360.57142708 625.10579996 -356.68933105 625.3102417 C-353.53579534 625.47908567 -350.38298174 625.65962176 -347.23013592 625.8408308 C-343.44921382 626.05793881 -339.66801617 626.27000871 -335.88671875 626.48046875 C-334.81723275 626.54008821 -334.81723275 626.54008821 -333.72614098 626.60091209 C-329.36004438 626.84155531 -324.9936531 627.05986025 -320.625 627.25 C-319.74969635 627.28872223 -318.8743927 627.32744446 -317.9725647 627.36734009 C-315.62932231 627.45642807 -315.62932231 627.45642807 -312.625 627.25 C-311.965 626.59 -311.305 625.93 -310.625 625.25 C-311.78558678 625.20028549 -311.78558678 625.20028549 -312.96961975 625.14956665 C-320.28175882 624.83484467 -327.59347389 624.51200391 -334.90485477 624.18017006 C-338.66319833 624.00987758 -342.42162501 623.84266395 -346.18041992 623.68261719 C-349.81176814 623.52788131 -353.44266226 623.36488737 -357.07339287 623.19630051 C-358.45464631 623.1335923 -359.83603542 623.07379836 -361.21754646 623.01704788 C-378.18886431 622.31541939 -378.18886431 622.31541939 -383.5 617.8125 C-386.28645617 614.45236168 -386.76427449 612.04488531 -386.75 607.8125 C-386.75257813 607.05066406 -386.75515625 606.28882813 -386.7578125 605.50390625 C-386.62584085 603.26426971 -386.3611409 601.36989942 -385.625 599.25 C-384.965 598.92 -384.305 598.59 -383.625 598.25 C-386.93682831 598.25 -387.93802564 598.79378413 -390.6875 600.5 Z M350.375 741.25 C347.65662429 742.70185353 347.65662429 742.70185353 344.75 744.6875 C343.74710938 745.34621094 342.74421875 746.00492188 341.7109375 746.68359375 C340.55464844 747.45896484 340.55464844 747.45896484 339.375 748.25 C340.365 748.745 340.365 748.745 341.375 749.25 C344.09337571 747.79814647 344.09337571 747.79814647 347 745.8125 C348.00289062 745.15378906 349.00578125 744.49507812 350.0390625 743.81640625 C351.19535156 743.04103516 351.19535156 743.04103516 352.375 742.25 C351.715 741.92 351.055 741.59 350.375 741.25 Z M337.375 749.25 C336.385 750.24 335.395 751.23 334.375 752.25 C336.025 751.59 337.675 750.93 339.375 750.25 C338.715 749.92 338.055 749.59 337.375 749.25 Z M332.375 752.25 C332.045 752.91 331.715 753.57 331.375 754.25 C332.365 753.92 333.355 753.59 334.375 753.25 C333.715 752.92 333.055 752.59 332.375 752.25 Z M327.375 755.25 C327.045 755.91 326.715 756.57 326.375 757.25 C327.365 756.92 328.355 756.59 329.375 756.25 C328.715 755.92 328.055 755.59 327.375 755.25 Z M324.375 757.25 C323.385 758.24 322.395 759.23 321.375 760.25 C323.025 759.59 324.675 758.93 326.375 758.25 C325.715 757.92 325.055 757.59 324.375 757.25 Z M318.375 760.25 C315.19211646 762.12178116 315.19211646 762.12178116 312.375 764.25 C313.365 764.745 313.365 764.745 314.375 765.25 C316.8500171 764.13568235 319.05383419 762.66849022 321.375 761.25 C320.385 760.92 319.395 760.59 318.375 760.25 Z M310.375 765.25 C309.385 766.24 308.395 767.23 307.375 768.25 C309.025 767.59 310.675 766.93 312.375 766.25 C311.715 765.92 311.055 765.59 310.375 765.25 Z M21.6796875 777.7578125 C20.55922445 778.92157847 19.44781103 780.09409958 18.34375 781.2734375 C16.05377037 783.57250435 13.60238933 785.54343068 11.0625 787.5625 C5.43128075 792.09381122 0.40238887 797.06818621 -4.625 802.25 C-5.49898438 803.08789062 -6.37296875 803.92578125 -7.2734375 804.7890625 C-9.36541109 806.97833719 -10.61914347 808.66107274 -11.875 811.375 C-12.18953125 812.03757812 -12.5040625 812.70015625 -12.828125 813.3828125 C-14.5850581 817.49954789 -14.70893929 820.80121737 -14.625 825.25 C-10.17 824.755 -10.17 824.755 -5.625 824.25 C-5.62242187 823.58355469 -5.61984375 822.91710937 -5.6171875 822.23046875 C-5.15805579 811.28782975 -0.59970167 803.46340062 7.3203125 796.06640625 C7.99835938 795.46699219 8.67640625 794.86757813 9.375 794.25 C9.99117188 793.70214844 10.60734375 793.15429688 11.2421875 792.58984375 C12.52069381 791.4678351 13.80476727 790.35214485 15.09375 789.2421875 C17.97680478 786.72445131 20.80310038 784.14838464 23.625 781.5625 C24.38635254 780.8667688 24.38635254 780.8667688 25.16308594 780.15698242 C27.96683971 777.58347743 30.70623826 774.9632411 33.375 772.25 C29.06997224 772.25 24.82311379 774.96204626 21.6796875 777.7578125 Z M-387.625 797.25 C-386.0223892 801.20498103 -383.29529803 803.92316363 -380.3125 806.875 C-379.78994629 807.39553955 -379.26739258 807.9160791 -378.72900391 808.45239258 C-367.44218153 819.8606427 -367.44218153 819.8606427 -353 824.3125 C-351.99710938 824.30347656 -350.99421875 824.29445313 -349.9609375 824.28515625 C-348.80464844 824.26775391 -348.80464844 824.26775391 -347.625 824.25 C-350.15248431 821.6378901 -352.70618244 819.34897285 -355.625 817.1875 C-364.2518269 810.55038606 -372.14780138 803.20881943 -379.1015625 794.83203125 C-379.60429687 794.30996094 -380.10703125 793.78789063 -380.625 793.25 C-383.75823425 793.25 -385.30520784 795.29649081 -387.625 797.25 Z " fill="#BBDCD2" transform="translate(471.625,13.75)"/>
<path d="M0 0 C17.13019228 0.26976681 32.31233752 7.67694014 44.125 19.8125 C54.0410712 32.08606851 59.07205686 47.47708002 58.25 63.1875 C57.6558111 68.5418764 56.32842755 73.23903369 54.375 78.25 C56.84007914 79.16052473 57.94280911 79.44096807 60.390625 78.359375 C61.12796875 77.91078125 61.8653125 77.4621875 62.625 77 C75.50918105 70.20686773 90.13245699 70.08763072 103.9375 73.875 C112.53152179 76.72925693 120.57711054 81.24027164 127.375 87.25 C127.375 87.91 127.375 88.57 127.375 89.25 C128.035 89.25 128.695 89.25 129.375 89.25 C139.7698511 100.72179514 146.14324986 116.42401988 145.625 132.00390625 C144.40284826 142.98417577 141.52172391 153.63832599 135 162.6875 C133.15997619 165.03604054 133.15997619 165.03604054 133.5 167.3125 C133.78875 167.951875 134.0775 168.59125 134.375 169.25 C135.04508845 170.91529388 135.71211326 172.58182633 136.375 174.25 C137.24640625 174.0334375 138.1178125 173.816875 139.015625 173.59375 C155.19133085 169.81241616 170.48555481 170.29303882 185.421875 178.3203125 C193.64667271 183.69471735 201.20288219 190.86985976 206.375 199.25 C206.82359375 199.971875 207.2721875 200.69375 207.734375 201.4375 C215.79060671 215.84393788 215.90394251 231.95426115 211.578125 247.4375 C209.13190428 255.18916045 205.46435286 261.92269644 200.375 268.25 C199.715 268.25 199.055 268.25 198.375 268.25 C198.148125 268.8275 197.92125 269.405 197.6875 270 C196.04461977 272.8163661 193.97966773 274.33077114 191.375 276.25 C191.57996094 276.91386719 191.78492188 277.57773437 191.99609375 278.26171875 C192.26550781 279.14472656 192.53492188 280.02773438 192.8125 280.9375 C193.21275391 282.24267578 193.21275391 282.24267578 193.62109375 283.57421875 C194.33844529 286.12025921 194.892541 288.6503423 195.375 291.25 C196.035 290.92 196.695 290.59 197.375 290.25 C209.96057209 288.57008775 225.19890728 292.94019867 235.375 300.25 C248.90654499 310.95890919 257.63319566 323.98143798 260.0546875 341.328125 C261.80127958 357.26045277 257.31049021 372.5959788 247.6875 385.375 C241.73877164 392.51347403 234.58889754 397.96448824 226.375 402.25 C226.705 403.57 227.035 404.89 227.375 406.25 C229.00695312 406.10691406 229.00695312 406.10691406 230.671875 405.9609375 C250.20385056 404.41301115 265.96294432 408.59713288 281.55859375 420.984375 C291.93037807 430.44635368 298.79440108 445.08620496 299.78515625 458.984375 C300.42544597 473.90298221 297.52696889 485.79749065 288.6328125 498.078125 C288.21773437 498.79484375 287.80265625 499.5115625 287.375 500.25 C287.705 501.24 288.035 502.23 288.375 503.25 C291.89670497 502.65123137 293.75199105 501.30903574 296.4375 499 C306.82071561 490.76096062 320.69977106 486.34888909 334.0234375 486.97265625 C352.72152627 489.17791257 366.48177249 496.87930826 378.6875 511.0625 C386.59628409 521.33593065 389.75077581 533.3618817 389.5625 546.125 C389.56185547 546.97835937 389.56121094 547.83171875 389.56054688 548.7109375 C389.51599493 554.96801013 389.51599493 554.96801013 388.375 557.25 C391.65599409 555.84896549 393.44914935 554.25653684 395.6875 551.5 C406.99822132 538.31207914 420.72725611 533.07134819 437.60546875 530.97265625 C451.48303763 530.23291377 466.69396713 536.17296691 477.06640625 545.1015625 C489.20005146 556.39344891 495.2108895 568.98825535 497.375 585.25 C497.375 586.24 497.375 587.23 497.375 588.25 C498.138125 588.45625 498.90125 588.6625 499.6875 588.875 C509.89017564 592.67938753 520.73832593 598.5284951 525.875 608.5625 C529.37158823 617.15827939 529.21042543 623.78643643 525.75 632.4375 C521.2727119 641.59558929 514.13460374 648.90218513 507.19921875 656.23828125 C504.9300658 658.63928329 502.75807016 661.10143645 500.625 663.625 C497.87227683 666.80680471 494.88268519 669.4881539 491.67578125 672.203125 C488.78824977 674.7719985 486.08833222 677.49948148 483.375 680.25 C479.56998842 684.09730907 475.72712156 687.79879116 471.59765625 691.30078125 C469.81086443 692.86775685 468.08692133 694.46292628 466.37109375 696.10546875 C458.13076493 703.97260079 449.48187846 710.97227326 440.34570312 717.77148438 C438.58351194 719.09356438 436.84149154 720.43577222 435.109375 721.796875 C412.7465687 739.34307686 388.59004106 754.4279397 364.375 769.25 C362.70945068 770.27262939 362.70945068 770.27262939 361.01025391 771.31591797 C347.61318928 779.53956436 334.2171851 787.7326244 320.36376953 795.17333984 C318.41696793 796.22727982 316.48718011 797.3076899 314.55859375 798.39453125 C290.11594449 811.99394635 263.87477107 821.37149561 237.25415039 829.66271973 C235.59634333 830.18082482 233.94148473 830.70834407 232.28710938 831.23730469 C219.69026615 835.22952087 206.79875339 837.60978983 193.8125 839.9375 C193.01533569 840.08256989 192.21817139 840.22763977 191.39685059 840.37710571 C159.81460168 846.06407357 127.80346309 847.37375704 95.81949234 849.05805206 C92.14373643 849.25231287 88.46813757 849.44932775 84.79257202 849.64715576 C52.17792594 851.40090899 19.56263748 852.99415334 -13.0769043 854.20043945 C-15.99270071 854.30874896 -18.90847038 854.41774864 -21.82421875 854.52734375 C-22.54165442 854.55424349 -23.25909008 854.58114323 -23.99826622 854.60885811 C-35.90817167 855.06003921 -47.80661515 855.66396445 -59.70703125 856.31640625 C-94.50229892 858.20933021 -129.20800182 859.63552618 -164.06164551 859.62561417 C-166.6295632 859.62501355 -169.19746484 859.62750532 -171.76538086 859.63021851 C-195.40127627 859.6392885 -218.88223237 858.73469314 -242.45339966 856.96209717 C-243.67542084 856.87067444 -244.89744202 856.77925171 -246.15649414 856.68505859 C-247.77389244 856.55990372 -247.77389244 856.55990372 -249.42396545 856.43222046 C-252.83081566 856.23828384 -256.21337185 856.22003405 -259.625 856.25 C-259.625 856.91 -259.625 857.57 -259.625 858.25 C-263.05395693 859.39298564 -266.06023812 859.39844697 -269.625 859.375 C-270.38119629 859.37234131 -271.13739258 859.36968262 -271.91650391 859.36694336 C-293.15248604 859.20695456 -314.42556804 858.48773081 -335.625 857.25 C-335.625 856.59 -335.625 855.93 -335.625 855.25 C-323.745 855.25 -311.865 855.25 -299.625 855.25 C-303.64300781 855.12882813 -307.66101563 855.00765625 -311.80078125 854.8828125 C-315.0923269 854.78021435 -318.38383125 854.6764461 -321.67531586 854.57191467 C-325.1012512 854.46342255 -328.52721632 854.3567843 -331.95336914 854.25537109 C-382.85590299 852.7342107 -382.85590299 852.7342107 -400 848.9375 C-401.53817383 848.61048096 -401.53817383 848.61048096 -403.10742188 848.27685547 C-415.13922602 845.61693182 -427.60611272 842.40736252 -435.28515625 832 C-439.33485061 824.96097693 -440.04441422 817.68961846 -437.99609375 809.83984375 C-434.57049755 801.12991979 -427.9312851 794.01060614 -420.83203125 788.1015625 C-418.14944141 785.85103581 -415.58012308 783.49214946 -413 781.125 C-409.28137597 777.73220812 -405.53468102 774.42001164 -401.625 771.25 C-403.275 770.92 -404.925 770.59 -406.625 770.25 C-404.625 767.25 -404.625 767.25 -402 766.5625 C-400.824375 766.4078125 -400.824375 766.4078125 -399.625 766.25 C-400.39070313 764.87908203 -400.39070313 764.87908203 -401.171875 763.48046875 C-434.41260663 702.94931453 -450.46984791 633.7976712 -454.625 565.25 C-454.69548553 564.11256348 -454.69548553 564.11256348 -454.76739502 562.95214844 C-455.60883497 549.05315221 -455.86608752 535.17286231 -455.875 521.25 C-455.87600708 520.13927124 -455.87701416 519.02854248 -455.87805176 517.88415527 C-455.84753028 467.23466142 -452.02161569 416.46336966 -443.0456543 366.59735107 C-442.62400964 364.24447354 -442.21067367 361.89025525 -441.79882812 359.53564453 C-434.90818581 320.37803683 -424.65892499 281.92057426 -413.82519531 243.68969727 C-411.72721526 236.28257959 -409.76437119 228.86849455 -408 221.375 C-397.96910692 179.79964558 -375.64058226 141.18223438 -347.625 109.25 C-347.026875 108.55261719 -346.42875 107.85523437 -345.8125 107.13671875 C-344.10495356 105.15415882 -342.3697025 103.19996161 -340.625 101.25 C-339.98957275 100.53094482 -339.98957275 100.53094482 -339.34130859 99.79736328 C-333.34878414 93.03598664 -327.31570189 86.86688476 -320.1796875 81.27734375 C-317.86367626 79.43940823 -315.71983597 77.51882996 -313.5625 75.5 C-284.42194541 49.41868512 -245.3405206 29.78522845 -207.625 20.25 C-206.7376416 20.01474609 -205.8502832 19.77949219 -204.93603516 19.53710938 C-197.53874428 17.5803507 -190.11064215 15.83520786 -182.625 14.25 C-181.60728516 14.0339209 -180.58957031 13.8178418 -179.54101562 13.59521484 C-163.1792311 10.30456201 -146.94301521 9.86103091 -130.3125 9.8125 C-128.8087532 9.80310394 -128.8087532 9.80310394 -127.27462769 9.79351807 C-107.66491046 9.71605134 -88.5295318 11.71047046 -69.4375 16.25 C-68.35404297 16.4975 -67.27058594 16.745 -66.15429688 17 C-58.95460577 18.65648975 -51.7864688 20.43611501 -44.625 22.25 C-44.17821899 21.31293213 -44.17821899 21.31293213 -43.72241211 20.35693359 C-38.95045354 11.19519779 -26.63846029 6.16305733 -17.4375 2.9375 C-11.53459996 1.1018885 -6.16205583 0.42496937 0 0 Z M-6.625 30.25 C-4.53226278 31.31320672 -2.43613226 32.33446849 -0.29296875 33.29296875 C7.15155459 36.72800078 13.00621217 40.59037401 16.1875 48.375 C18.49797897 53.65316085 23.27045808 55.22376962 28.375 57.25 C28.10196626 48.78595398 25.57540369 42.37387811 19.4453125 36.35546875 C11.36986325 29.89825155 3.35407578 29.97988968 -6.625 30.25 Z M-172.625 41.25 C-173.68170898 41.38607666 -173.68170898 41.38607666 -174.75976562 41.52490234 C-181.14136356 41.82272507 -181.14136356 41.82272507 -186.625 44.25 C-188.97688904 44.69797886 -191.32648209 45.10631374 -193.6875 45.5 C-199.70385021 46.56701982 -205.5367452 47.94442416 -211.375 49.75 C-212.04152588 49.95141602 -212.70805176 50.15283203 -213.39477539 50.36035156 C-217.03278803 51.52399262 -219.61492777 52.96160492 -222.625 55.25 C-225.421875 56.19921875 -225.421875 56.19921875 -228.375 56.9375 C-229.35984375 57.18886719 -230.3446875 57.44023438 -231.359375 57.69921875 C-232.10703125 57.88097656 -232.8546875 58.06273438 -233.625 58.25 C-233.625 58.91 -233.625 59.57 -233.625 60.25 C-234.42808594 60.32863281 -235.23117188 60.40726563 -236.05859375 60.48828125 C-240.66970141 61.473129 -244.49332572 63.32252769 -248.6875 65.4375 C-249.98892944 66.09202148 -249.98892944 66.09202148 -251.31665039 66.75976562 C-266.40450896 74.564157 -280.47977994 84.5164353 -293.625 95.25 C-294.43662598 95.90935547 -294.43662598 95.90935547 -295.26464844 96.58203125 C-308.9836916 107.79736878 -321.82080681 120.18029073 -332.625 134.25 C-333.63832841 135.52422901 -334.65273393 136.79760189 -335.66796875 138.0703125 C-360.21139029 169.12904244 -376.28222298 205.52434517 -385.97363281 243.76123047 C-386.60143432 246.15995933 -387.28275722 248.53442502 -387.9921875 250.91015625 C-390.63017591 259.78907495 -392.47807109 268.50348376 -393.63745117 277.70361328 C-393.79177612 278.89833252 -393.79177612 278.89833252 -393.94921875 280.1171875 C-394.03260498 280.81956543 -394.11599121 281.52194336 -394.2019043 282.24560547 C-394.67619062 284.49251299 -395.55632098 286.22664146 -396.625 288.25 C-396.92119625 289.61579383 -397.1669613 290.99302862 -397.375 292.375 C-398.13126612 296.52538847 -399.32044223 300.31675212 -400.75561523 304.265625 C-404.49767331 314.62789898 -406.0167269 324.75169663 -407.29833984 335.65820312 C-408.34434421 343.95744257 -409.56857496 352.43960829 -412.83374023 360.18017578 C-416.87333736 370.74719351 -418.03570791 382.36024747 -419.5625 393.5 C-419.69095306 394.42388519 -419.81940613 395.34777039 -419.95175171 396.2996521 C-423.12740954 419.44711116 -424.64916077 442.7307752 -426.05502319 466.04273987 C-426.11590118 467.02290573 -426.17677917 468.00307159 -426.23950195 469.01293945 C-426.29024368 469.85951614 -426.34098541 470.70609283 -426.39326477 471.57832336 C-426.56881923 473.60229166 -426.833738 475.61875772 -427.14001465 477.62710571 C-427.62921548 481.28149008 -427.7588081 484.76786677 -427.77026367 488.45336914 C-427.77362228 489.13772034 -427.7769809 489.82207153 -427.78044128 490.52716064 C-427.78989595 492.77984472 -427.7918938 495.03245357 -427.79296875 497.28515625 C-427.79619268 498.88480151 -427.79955755 500.4844465 -427.80305481 502.08409119 C-427.80903794 505.44726234 -427.81089631 508.81040788 -427.81030273 512.17358398 C-427.81022252 515.55840522 -427.81699338 518.94308811 -427.83081055 522.32788086 C-427.89917383 539.34697254 -427.8333858 556.31906815 -426.73828125 573.30859375 C-426.66054977 574.53908951 -426.5828183 575.76958527 -426.50273132 577.03736877 C-426.10357309 582.48583149 -425.45821044 587.07871296 -423.625 592.25 C-423.26196289 594.42138672 -423.26196289 594.42138672 -423.09765625 596.4296875 C-423.02933594 597.18540039 -422.96101563 597.94111328 -422.890625 598.71972656 C-422.82359375 599.5134668 -422.7565625 600.30720703 -422.6875 601.125 C-421.97825938 608.65632155 -420.83280006 615.95742495 -419.3515625 623.37109375 C-418.36501089 628.63800639 -417.69895771 633.92022626 -417.0546875 639.23828125 C-416.71089803 642.29074606 -416.71089803 642.29074606 -415.625 645.25 C-414.965 645.25 -414.305 645.25 -413.625 645.25 C-413.67527344 646.38953125 -413.72554688 647.5290625 -413.77734375 648.703125 C-413.76796111 653.46116684 -412.64122098 657.49943277 -411.1875 662 C-410.92598145 662.83764893 -410.66446289 663.67529785 -410.39501953 664.53833008 C-409.80971495 666.40375783 -409.21857368 668.26736119 -408.62255859 670.12939453 C-407.52258691 673.57037302 -406.44295367 677.01744469 -405.36328125 680.46484375 C-404.57661896 682.95607619 -403.78886557 685.44696437 -403 687.9375 C-402.62818604 689.11860352 -402.25637207 690.29970703 -401.87329102 691.51660156 C-399.80574987 697.9693493 -397.48135504 704.11191906 -394.625 710.25 C-393.87974341 711.95456206 -393.14040652 713.66172152 -392.40625 715.37109375 C-392.03113281 716.24443359 -391.65601563 717.11777344 -391.26953125 718.01757812 C-390.89183594 718.89865234 -390.51414062 719.77972656 -390.125 720.6875 C-389.55845703 722.00331055 -389.55845703 722.00331055 -388.98046875 723.34570312 C-386.74395857 728.56038409 -384.5856473 733.79789635 -382.51269531 739.07983398 C-381.36258643 741.89152756 -380.03932028 744.56279148 -378.625 747.25 C-377.965 747.25 -377.305 747.25 -376.625 747.25 C-376.39941406 748.07113281 -376.17382812 748.89226563 -375.94140625 749.73828125 C-374.32510178 754.05002522 -372.08868927 757.6067221 -369.5625 761.4375 C-369.06790283 762.19071533 -368.57330566 762.94393066 -368.0637207 763.7199707 C-356.89631645 780.50612688 -343.21686217 795.20906487 -325.625 805.25 C-324.73312988 805.76288574 -324.73312988 805.76288574 -323.82324219 806.28613281 C-309.22830516 814.41906842 -292.56958857 818.56173781 -276.625 823.25 C-275.38806396 823.61697998 -274.15112793 823.98395996 -272.87670898 824.36206055 C-269.58984377 825.25960006 -266.70987337 825.5506095 -263.3125 825.6875 C-256.95938833 826.06558103 -250.80858476 826.94136107 -244.5456543 828.05834961 C-243.11641682 828.31274892 -241.68587271 828.55989458 -240.25424194 828.80046082 C-238.50146586 829.10014473 -236.75197838 829.41974191 -235.00645447 829.75912476 C-222.61920724 831.89625332 -210.15806336 831.51984918 -197.62890625 831.48046875 C-195.10652185 831.47927402 -192.58413699 831.47882441 -190.06175232 831.4790802 C-184.79431815 831.47752289 -179.52693616 831.46954177 -174.25952148 831.45581055 C-168.21105248 831.44009927 -162.16264711 831.43481256 -156.11415917 831.4355461 C-150.24408052 831.43616133 -144.37402275 831.43089941 -138.50395012 831.42275429 C-136.02949075 831.41959656 -133.55502958 831.41760707 -131.08056831 831.41686058 C-111.24130061 832.19240249 -111.24130061 832.19240249 -91.68571472 829.73782349 C-88.6444275 829.0178736 -85.65759935 829.00302821 -82.53662109 828.89282227 C-81.83033569 828.86662811 -81.12405029 828.84043396 -80.3963623 828.81344604 C-78.86538511 828.75709188 -77.33433779 828.70261836 -75.8032341 828.6498127 C-73.37202239 828.56549008 -70.94109699 828.47523168 -68.51016235 828.38328552 C-61.59904161 828.12280354 -54.68759723 827.87178089 -47.77587891 827.62768555 C-43.54347332 827.47779676 -39.31142326 827.31993457 -35.07948685 827.15736198 C-33.47461629 827.09731706 -31.86962941 827.0402956 -30.26453781 826.98648262 C-21.90688602 826.70579133 -13.76990171 826.34539324 -5.625 824.25 C-5.61025635 823.51861816 -5.5955127 822.78723633 -5.58032227 822.03369141 C-5.27891144 812.29143391 -1.52222647 804.93251586 5.25 798 C6.60806361 796.73161984 7.98276661 795.48077666 9.375 794.25 C9.99117188 793.70214844 10.60734375 793.15429688 11.2421875 792.58984375 C12.52567223 791.46346608 13.81637903 790.34527749 15.11328125 789.234375 C17.3737371 787.25110803 19.5656348 785.20378846 21.75537109 783.14306641 C35.80663455 770.00828548 35.80663455 770.00828548 43.4375 769.625 C48.28989986 769.92827499 52.41450051 771.41664005 56.375 774.25 C57.75726016 777.01452033 57.47025387 779.2961363 57.4375 782.375 C57.42847656 783.47070312 57.41945313 784.56640625 57.41015625 785.6953125 C57.39275391 786.95988281 57.39275391 786.95988281 57.375 788.25 C56.715 788.25 56.055 788.25 55.375 788.25 C53.94502108 789.70326531 53.94502108 789.70326531 52.4375 791.625 C46.63013777 798.46074929 39.75372226 804.18969804 33 810.0625 C29.99172958 812.6869993 27.07057253 815.30171755 24.375 818.25 C24.375 818.91 24.375 819.57 24.375 820.25 C29.78500122 822.51621555 33.86421882 823.63778373 39.80859375 823.5546875 C40.93278969 823.53932449 40.93278969 823.53932449 42.07969666 823.52365112 C55.13326716 823.25333039 68.18026573 822.31939968 81.20965576 821.5123291 C84.86675066 821.28689792 88.52420743 821.06751801 92.18164062 820.84765625 C97.98859447 820.4978682 103.7952867 820.14402459 109.60180664 819.78710938 C115.60067461 819.41840905 121.5998763 819.05571561 127.59936523 818.69726562 C129.84534407 818.56268632 132.09131904 818.42804247 134.33729362 818.29339218 C135.75737337 818.20847152 137.17747396 818.12389869 138.59759712 818.03970718 C171.55377317 816.08507469 205.03637497 810.87420304 236.375 800.25 C237.54264893 799.85651367 237.54264893 799.85651367 238.73388672 799.45507812 C270.16233454 788.7418186 300.00830658 774.4715513 328.375 757.25 C330.1471127 756.18095193 331.9192495 755.1119438 333.69140625 754.04296875 C339.60084869 750.46952168 345.49023452 746.86390464 351.375 743.25 C352.3542041 742.65026367 353.3334082 742.05052734 354.34228516 741.43261719 C370.00329132 731.82251306 385.27355367 721.71593719 400.375 711.25 C401.09929199 710.75129395 401.82358398 710.25258789 402.56982422 709.73876953 C411.62101789 703.49585496 420.13284012 696.69017665 428.609375 689.6953125 C430.92061299 687.80336989 433.27227109 685.96495466 435.625 684.125 C440.8679813 679.93759397 445.78173509 675.40552886 450.68310547 670.82861328 C452.51496256 669.11940867 454.35295022 667.41694724 456.19140625 665.71484375 C462.12991953 660.2062514 468.02386193 654.68395824 473.69140625 648.89453125 C475.32875154 647.29517541 477.03052774 645.87196747 478.8125 644.4375 C482.81477201 641.09163706 485.91522492 637.0817155 489.15234375 633.01171875 C491.70889047 629.83513082 494.40532292 626.81329859 497.16015625 623.80859375 C498.57992046 622.31644935 498.57992046 622.31644935 498.375 620.25 C496.23668503 619.16994863 494.09080369 618.1119911 491.9375 617.0625 C491.36451172 616.77052734 490.79152344 616.47855469 490.20117188 616.17773438 C476.38914472 609.52219797 460.51025113 606.73850882 445.7265625 603.08618164 C420.57252363 596.86744089 395.67761866 590.32560825 371.375 581.25 C370.42077148 580.89421875 369.46654297 580.5384375 368.48339844 580.171875 C363.00343256 578.08505762 357.67000551 575.76719221 352.375 573.25 C350.93616455 572.5686499 350.93616455 572.5686499 349.46826172 571.87353516 C334.33495103 564.64013538 319.71853618 556.68182276 305.34814453 548.03808594 C302.2996366 546.20467552 299.24190558 544.38731236 296.18359375 542.5703125 C283.0615887 534.73062137 270.86671545 526.73215192 259.62890625 516.29296875 C257.38531581 514.20447857 257.38531581 514.20447857 254.86328125 512.31640625 C252.17865828 510.08694698 250.16390691 507.73417841 248 505 C245.42143246 501.76830845 242.83251807 498.63455045 240 495.625 C234.79160882 489.73830671 230.77290012 482.90292758 226.625 476.25244141 C225.59496891 474.60237989 224.54954097 472.96193997 223.5 471.32421875 C219.38443034 464.64631125 216.10304444 457.6123747 212.8125 450.5 C212.36519531 449.53634521 211.91789063 448.57269043 211.45703125 447.57983398 C205.46741429 434.40201991 200.74623115 420.84719247 196.61328125 406.98828125 C196.29974921 405.94575416 196.29974921 405.94575416 195.97988319 404.88216591 C191.07750832 388.57078637 186.59510134 372.14712796 182.17211914 355.70050049 C181.35120065 352.65312415 180.52505021 349.60717652 179.69884968 346.56122875 C172.70801949 320.7801498 172.70801949 320.7801498 169.6796875 308.25 C167.4223447 298.99643325 164.50314869 290.03267109 161.3125 281.0625 C161.03320648 280.27072357 160.75391296 279.47894714 160.46615601 278.66317749 C155.39305954 264.34678348 149.48361138 250.69014785 142.375 237.25 C141.94622559 236.43096191 141.51745117 235.61192383 141.07568359 234.76806641 C131.79039616 217.15753882 120.84819268 200.50013535 109.375 184.25 C108.61533936 183.16936279 108.61533936 183.16936279 107.84033203 182.06689453 C100.52874553 171.69474858 92.86068973 161.71509932 84.76757812 151.94238281 C82.91786922 149.69445467 81.11462447 147.41116617 79.3125 145.125 C70.78507884 134.4478088 61.72470749 124.21109187 52.375 114.25 C51.76269531 113.59515625 51.15039062 112.9403125 50.51953125 112.265625 C46.39478542 107.99391673 41.87244554 104.27864689 37.24609375 100.5625 C35.40913329 99.08293457 33.58710661 97.58450936 31.78515625 96.0625 C18.68058128 85.02706844 4.48231396 76.24904192 -10.625 68.25 C-11.73746094 67.64671875 -12.84992188 67.0434375 -13.99609375 66.421875 C-31.22721564 57.39504493 -49.61957274 50.38570845 -68.625 46.25 C-69.594375 46.03504883 -70.56375 45.82009766 -71.5625 45.59863281 C-104.77723677 38.32252954 -138.83910308 36.76304944 -172.625 41.25 Z M80.375 101.25 C82.45166228 102.31214607 84.52325414 103.31278109 86.671875 104.22265625 C94.50524321 107.70276728 100.52744041 112.9251172 104.3125 120.75 C105.19654317 123.66214221 105.5149174 125.71806401 105.6875 128.6875 C106.09398465 134.06418336 108.88015998 137.32765661 112.375 141.25 C114.51478616 140.46751414 114.51478616 140.46751414 114.98046875 138.5703125 C116.4843331 129.72580332 116.08178826 121.02816703 111.375 113.25 C106.666523 106.99011238 101.07820449 102.92134896 93.375 101.25 C89.01636592 100.96038976 84.73442349 101.00401372 80.375 101.25 Z M154.375 200.25 C155.03676281 203.31315833 155.03676281 203.31315833 157.1953125 204.35546875 C157.95585938 204.71253906 158.71640625 205.06960937 159.5 205.4375 C167.47320753 209.70931389 171.91449484 215.70361047 174.7421875 224.24609375 C175.66450974 228.62427773 175.48091153 232.82508808 175.31640625 237.27734375 C175.39561902 241.29607175 176.43548602 243.77503746 178.375 247.25 C182.79549846 243.74408743 184.21860704 239.60460216 185.375 234.25 C186.43214133 225.00715625 184.12598714 217.55530799 178.375 210.25 C172.92885101 204.48203312 167.30587057 200.72970277 159.25 200.078125 C157.62404324 200.06501245 155.99770734 200.14642294 154.375 200.25 Z M204.375 319.25 C204.25864895 321.54781554 204.25864895 321.54781554 205.375 324.25 C207.06904602 325.73606216 207.06904602 325.73606216 209.125 327.125 C216.47692607 332.30685845 219.6182978 338.48000208 221.375 347.25 C222.40899202 354.52577311 220.32227624 360.62158758 217.375 367.25 C216.88 367.745 216.88 367.745 216.375 368.25 C216.33436168 369.91617115 216.332279 371.58388095 216.375 373.25 C222.27294589 370.84713315 226.50660777 365.78896431 229.375 360.25 C231.88689438 350.61463078 232.21282882 341.80264552 227.1875 333 C222.15085416 325.68873991 215.71178282 321.31735656 206.9375 319.5625 C205.6690625 319.4078125 205.6690625 319.4078125 204.375 319.25 Z M237.375 435.25 C238.68881629 437.87763258 239.79607058 437.95509168 242.5 439 C251.43942619 442.88794092 255.77159792 448.22660472 259.375 457.25 C260.63113434 460.904209 260.34005863 464.2904181 260.1875 468.125 C260.12106155 473.92326445 260.39243279 477.01852234 264.375 481.25 C269.87874277 475.01242486 270.85494887 469.48815785 270.68359375 461.34375 C269.84141368 452.90062828 265.87329415 445.68734817 259.375 440.25 C252.20624215 435.66779242 245.77682284 434.51870014 237.375 435.25 Z M325.375 517.25 C327.46453508 518.31638342 329.55298747 519.32691921 331.70703125 520.2578125 C339.57074807 523.79958102 344.88113505 528.36204643 348.1875 536.4375 C350.50568472 541.66114289 355.31260665 543.24050035 360.375 545.25 C359.93886468 536.09115823 357.3089959 529.6683632 350.5 523.375 C342.24532407 516.78654569 335.75606017 516.86125017 325.375 517.25 Z M432.375 561.25 C432.375 561.58 432.375 561.91 432.375 562.25 C432.92027344 562.39695312 433.46554687 562.54390625 434.02734375 562.6953125 C440.5105634 564.62365476 447.88594067 567.47031731 451.74609375 573.33203125 C454.03287147 576.02461605 456.15343111 576.2668669 459.5625 577 C460.64917969 577.24234375 461.73585938 577.4846875 462.85546875 577.734375 C463.68691406 577.90453125 464.51835938 578.0746875 465.375 578.25 C462.97866 571.72165317 459.46657481 567.05501026 453.1875 563.875 C448.3479022 561.67952171 444.52900002 561.13849541 439.1875 561.1875 C437.91519531 561.19652344 436.64289062 561.20554687 435.33203125 561.21484375 C434.35621094 561.22644531 433.38039063 561.23804688 432.375 561.25 Z M-387.625 797.25 C-386.0223892 801.20498103 -383.29529803 803.92316363 -380.3125 806.875 C-379.78994629 807.39553955 -379.26739258 807.9160791 -378.72900391 808.45239258 C-367.44218153 819.8606427 -367.44218153 819.8606427 -353 824.3125 C-351.99710938 824.30347656 -350.99421875 824.29445313 -349.9609375 824.28515625 C-348.80464844 824.26775391 -348.80464844 824.26775391 -347.625 824.25 C-350.15248431 821.6378901 -352.70618244 819.34897285 -355.625 817.1875 C-364.2518269 810.55038606 -372.14780138 803.20881943 -379.1015625 794.83203125 C-379.60429687 794.30996094 -380.10703125 793.78789063 -380.625 793.25 C-383.75823425 793.25 -385.30520784 795.29649081 -387.625 797.25 Z " fill="#000000" transform="translate(471.625,13.75)"/>
<path d="M0 0 C3.51656033 1.69548444 5.3458331 2.92954507 7.375 6.25 C10.2482579 18.89233477 3.43363959 29.32360443 -2.36254883 40.09448242 C-4.8682739 44.76834735 -7.05202182 49.36915041 -8.87890625 54.3515625 C-10.83884185 58.98165426 -13.33367353 63.34244737 -15.72290039 67.76220703 C-17.70096027 71.4506133 -19.54524064 75.06676173 -21 79 C-23.05367217 84.54969085 -25.91519523 89.66334349 -28.74023438 94.84960938 C-33.2950773 103.24833347 -36.63587888 112.07176067 -40 121 C-40.44988281 122.17691406 -40.89976562 123.35382813 -41.36328125 124.56640625 C-43.72291686 130.90749192 -45.62291441 136.99877682 -46.640625 143.6953125 C-47 146 -47 146 -47.53125 147.87890625 C-49.21467685 155.49641275 -49.14361192 164.28449103 -45 171 C-41.04235154 176.23806414 -37.19505054 177.08718339 -31 178 C-26.97481147 178.29634373 -22.97247954 178.33222873 -18.9375 178.3125 C-17.80715332 178.31048584 -16.67680664 178.30847168 -15.51220703 178.30639648 C-5.70255577 178.19239427 3.84241451 177.10260829 13.54296875 175.7265625 C19.51283247 174.8881394 25.44441111 174.52860956 31.46484375 174.30859375 C34.2434204 174.06604397 36.58990907 173.66474919 39.2734375 173.01171875 C44.41337343 171.81056474 49.42128233 171.48825199 54.6875 171.375 C56.05358398 171.28798828 56.05358398 171.28798828 57.44726562 171.19921875 C61.31147088 171.12625627 63.92111564 171.08986837 66.95263672 173.6472168 C70.56296419 178.20218768 71.98127847 181.7944347 71.5703125 187.6015625 C70.53856354 191.94056154 68.50451284 194.34001951 65 197 C57.07179738 200.49961013 48.15863712 201.06939844 39.640625 202.04296875 C38.16381439 202.21749384 36.6870699 202.3925792 35.21038818 202.56819153 C32.12820835 202.93268233 29.04537712 203.29082115 25.96191406 203.64428711 C22.04983328 204.0931928 18.13974107 204.5573059 14.2300148 205.02622509 C11.18313229 205.39000257 8.13535808 205.74581626 5.08727264 206.09935951 C3.64720197 206.26725872 2.20739448 206.43743439 0.76789093 206.6101284 C-11.40687043 208.06302896 -23.68849244 209.10563173 -35.8125 206.75 C-36.53115234 206.61505127 -37.24980469 206.48010254 -37.99023438 206.34106445 C-43.43650927 205.25168603 -48.20473158 203.79170082 -53 201 C-54.11568359 200.36964844 -54.11568359 200.36964844 -55.25390625 199.7265625 C-66.30930714 192.95489563 -72.79893934 183.31977238 -76.3125 170.9375 C-83.15094101 133.49205603 -61.09908492 94.84554136 -45.125 62.625 C-43.08378684 58.49324706 -41.04570763 54.35995273 -39.0078125 50.2265625 C-38.25881683 48.71041351 -38.25881683 48.71041351 -37.49468994 47.16363525 C-33.52411026 39.11059457 -29.6407162 31.01771959 -25.82156372 22.89175415 C-13.92352164 -2.23770884 -13.92352164 -2.23770884 0 0 Z " fill="#020202" transform="translate(513,421)"/>
<path d="M0 0 C8.73242479 5.66740152 13.74082744 16.56502405 19.12109375 25.1875 C22.6957365 30.90185649 26.37189768 36.54756016 30.0625 42.1875 C31.01926636 43.65098877 31.01926636 43.65098877 31.99536133 45.14404297 C33.24767386 47.05938228 34.50019108 48.97458778 35.75292969 50.88964844 C66.19118395 97.45728506 66.19118395 97.45728506 70.5390625 109.14453125 C71.53895266 111.66051502 72.72999829 113.98508768 74 116.375 C76.97831466 122.20333269 78.76691998 128.26910344 80.5 134.5625 C80.72816406 135.31015625 80.95632812 136.0578125 81.19140625 136.828125 C84.26854634 148.10379918 83.88998364 161.71603499 78.140625 171.9921875 C74.48970741 177.73203216 70.23870435 182.80265922 64.5 186.5625 C63.84 186.5625 63.18 186.5625 62.5 186.5625 C62.5 187.2225 62.5 187.8825 62.5 188.5625 C61.64535156 188.83964844 60.79070312 189.11679687 59.91015625 189.40234375 C58.80542969 189.76457031 57.70070313 190.12679687 56.5625 190.5 C55.46035156 190.85964844 54.35820312 191.21929688 53.22265625 191.58984375 C50.61876525 192.30106668 50.61876525 192.30106668 49.5 193.5625 C34.60763786 197.60042906 19.49892777 196.55974185 4.26171875 195.79492188 C-0.03364975 195.58051456 -4.32995605 195.39970579 -8.62709045 195.22468567 C-12.3556905 195.07170179 -16.08386386 194.90974502 -19.8119812 194.74545288 C-21.63344878 194.66568574 -23.45500338 194.58787968 -25.27664185 194.51211548 C-27.8424544 194.40336585 -30.407498 194.28327724 -32.97265625 194.16015625 C-33.73179321 194.12988342 -34.49093018 194.0996106 -35.27307129 194.06842041 C-41.27092062 193.76211934 -47.58647072 193.28077903 -51.875 188.625 C-52.35710937 188.12097656 -52.83921875 187.61695313 -53.3359375 187.09765625 C-55.47918976 184.27115243 -55.65867778 181.54331545 -55.6875 178.125 C-55.70167969 177.36316406 -55.71585937 176.60132813 -55.73046875 175.81640625 C-55.31817533 171.78431632 -54.06844399 170.085946 -51.08203125 167.3359375 C-46.03813209 164.83873988 -41.73994453 165.05273193 -36.1875 165.1875 C-35.05957031 165.20039062 -33.93164062 165.21328125 -32.76953125 165.2265625 C-23.49457705 165.38751615 -14.25371107 165.95679424 -5 166.5625 C5.26753697 167.22959229 15.52162548 167.83732224 25.8125 168 C26.82441406 168.03416016 27.83632812 168.06832031 28.87890625 168.10351562 C36.84476654 168.15143858 45.00833078 166.29702855 51.27856445 161.08374023 C54.58612218 156.96433344 54.0242176 151.51760444 53.5 146.5625 C47.76147917 120.50493094 31.80353875 97.11144856 17.0546875 75.35546875 C12.28755913 68.31440881 7.70927659 61.1465438 3.08740234 54.00976562 C1.60034579 51.71720105 0.10789499 49.42826746 -1.38671875 47.140625 C-3.64554154 43.67964771 -5.88636855 40.2076661 -8.11328125 36.72607422 C-9.08039926 35.2171658 -10.05211794 33.71120051 -11.02734375 32.20751953 C-12.57493085 29.81425905 -14.10185324 27.40887077 -15.625 25 C-16.3358374 23.91114502 -16.3358374 23.91114502 -17.06103516 22.80029297 C-20.08226188 17.96208911 -21.28704809 14.2878643 -21.5 8.5625 C-20.25553848 4.24836674 -18.58158948 2.31533416 -14.75 0.1875 C-9.39544596 -2.1422694 -5.45769939 -2.24155511 0 0 Z " fill="#010202" transform="translate(139.5,443.4375)"/>
<path d="M0 0 C5.79885714 4.59909359 8.57083777 11.58728079 10.8125 18.4375 C10.8125 19.0975 10.8125 19.7575 10.8125 20.4375 C11.4725 20.4375 12.1325 20.4375 12.8125 20.4375 C14.14453125 22.265625 14.14453125 22.265625 15.625 24.6875 C19.32203824 30.36223098 22.39402931 33.40575774 29.14160156 35.01586914 C35.87932216 36.07949286 42.81811665 35.86774128 49.63012695 35.96923828 C51.69505031 36.00310121 53.75952662 36.04814539 55.82421875 36.09375 C57.04584717 36.11244141 58.26747559 36.13113281 59.52612305 36.15039062 C65.00142442 36.62873209 68.25764857 38.24785367 71.8125 42.4375 C73.37735295 47.13205886 73.56502836 52.72819196 71.8125 57.4375 C70.719375 58.13875 69.62625 58.84 68.5 59.5625 C64.42972773 62.27051076 63.47375406 65.16139458 61.90625 69.66796875 C59.44902984 75.89000124 55.71191638 82.9448664 49.8125 86.4375 C46.70716564 87.15411562 43.92911053 87.09215607 40.8125 86.4375 C35.38285915 81.99506657 32.95771148 74.99180572 30.8125 68.4375 C30.8125 67.1175 30.8125 65.7975 30.8125 64.4375 C29.554375 64.355 28.29625 64.2725 27 64.1875 C12.91433039 62.53425239 2.20044299 54.69054354 -7.1875 44.4375 C-7.64898437 44.86160156 -8.11046875 45.28570312 -8.5859375 45.72265625 C-17.04115003 53.32566356 -24.4815379 58.72761519 -35.59765625 61.7109375 C-38.0974413 62.18416717 -38.0974413 62.18416717 -39.1875 63.4375 C-46.28895171 64.68541629 -53.45869457 64.69135445 -60.65112305 64.73266602 C-62.05226702 64.74423764 -63.45336516 64.76477075 -64.85424805 64.79418945 C-79.52058094 65.10098782 -79.52058094 65.10098782 -85.1875 60.4375 C-88.23473132 56.8823968 -89.54027188 52.91540809 -89.1875 48.25 C-88.11457903 44.1594888 -87.2819281 42.28763115 -84.1875 39.4375 C-79.25486191 36.95332678 -75.67596051 36.06979554 -70.07421875 36.06640625 C-68.72981524 36.0490182 -67.38541425 36.03143388 -66.04101562 36.01367188 C-63.96129496 36.00364854 -61.88174567 35.99999444 -59.80200195 36.00170898 C-51.19718682 35.98639611 -43.94497511 35.45875231 -36.1875 31.4375 C-35.09646973 30.92932739 -35.09646973 30.92932739 -33.98339844 30.41088867 C-31.57731811 29.10677743 -31.25976143 27.95205818 -30.1875 25.4375 C-28.53112053 22.3216779 -26.86635165 19.2105836 -25.19726562 16.1015625 C-24.85501953 15.4621875 -24.51277344 14.8228125 -24.16015625 14.1640625 C-23.82387207 13.53749756 -23.48758789 12.91093262 -23.14111328 12.26538086 C-22.2557463 10.56831414 -21.4354418 8.8377353 -20.62109375 7.10546875 C-16.59577407 -0.38579376 -7.72346108 -1.98603285 0 0 Z M40.8125 64.4375 C42.4625 68.7275 44.1125 73.0175 45.8125 77.4375 C48.72767419 74.52232581 49.59323254 72.98521015 51 69.25 C51.598125 67.661875 52.19625 66.07375 52.8125 64.4375 C48.8525 64.4375 44.8925 64.4375 40.8125 64.4375 Z " fill="#020302" transform="translate(310.1875,210.5625)"/>
<path d="M0 0 C4.12932653 1.41554962 7.93769501 3.31333256 11.8125 5.3125 C12.82248047 5.81201172 13.83246094 6.31152344 14.87304688 6.82617188 C18.54708921 8.65713026 22.16801216 10.49501349 25.6784668 12.62573242 C27.84130481 13.90605792 29.54765808 14.54586261 32 15 C32 15.66 32 16.32 32 17 C32.79148437 17.23074219 33.58296875 17.46148437 34.3984375 17.69921875 C39.02182317 19.36905327 43.27310774 21.5394732 47.625 23.8125 C48.470625 24.23853516 49.31625 24.66457031 50.1875 25.10351562 C54.72479108 27.46877541 58.33769651 29.4494867 61 34 C61.93754286 38.64004265 61.53763458 43.96285407 59 48 C54.7763598 51.8987448 50.72009875 52.80693716 45.16381836 53.22802734 C38.97788321 52.78218558 33.85147342 49.60822972 28.5 46.6875 C27.26578157 46.03805126 26.03033211 45.39093694 24.79370117 44.74609375 C22.33176246 43.45722381 19.87822127 42.15427925 17.43115234 40.83740234 C14.39223627 39.21004484 11.33887869 37.61972944 8.26953125 36.05078125 C-14.72690982 24.26156383 -14.72690982 24.26156383 -18 18 C-18.63675935 12.93073401 -18.74649228 8.44174097 -16 4 C-10.96698632 -0.52971231 -6.46541042 -0.89128319 0 0 Z " fill="#020202" transform="translate(396,170)"/>
<path d="M0 0 C3.92203525 2.03548665 6.35492146 4.17163958 7.9765625 8.2734375 C8.51478569 13.29685397 8.12033496 16.29132572 4.9765625 20.2734375 C2.03995917 23.1853635 -0.76587241 25.78217999 -5.0234375 26.2734375 C-5.0234375 26.9334375 -5.0234375 27.5934375 -5.0234375 28.2734375 C-5.53680664 28.49475342 -6.05017578 28.71606934 -6.57910156 28.9440918 C-13.08259269 31.78703417 -19.4305294 34.90318999 -25.7734375 38.0859375 C-26.83602783 38.61421143 -27.89861816 39.14248535 -28.9934082 39.68676758 C-35.58844766 42.98019932 -35.58844766 42.98019932 -42.01953125 46.578125 C-49.14471805 50.78172358 -55.5995503 53.31004031 -64.0234375 52.2734375 C-67.64429605 49.78853457 -69.3056906 47.2323649 -71.0234375 43.2734375 C-71.71755539 38.83431149 -71.43018976 35.21636319 -69.6484375 31.0859375 C-63.08618082 24.0549482 -53.50605334 20.44753653 -44.9934082 16.24291992 C-38.05427039 12.81419217 -31.19948654 9.24399166 -24.37915039 5.58496094 C-8.30464589 -2.9819771 -8.30464589 -2.9819771 0 0 Z " fill="#010202" transform="translate(236.0234375,167.7265625)"/>
<path d="M0 0 C3.28283524 1.44569022 5.45972455 4.21140167 7.87231445 6.78955078 C13.31577358 12.43957498 19.04331476 17.27901012 25.3527832 21.92626953 C27.93481445 23.85205078 27.93481445 23.85205078 29.93481445 25.85205078 C19.34170184 26.33909044 9.22961731 25.7066121 -1.25268555 24.03955078 C-2.84584595 23.79156738 -2.84584595 23.79156738 -4.47119141 23.53857422 C-10.08929674 22.59099575 -14.95033121 21.3769223 -20.06518555 18.85205078 C-17.87003667 13.86163542 -14.10085991 10.72527485 -10.19018555 7.03955078 C-9.46959961 6.33378906 -8.74901367 5.62802734 -8.0065918 4.90087891 C-6.95665039 3.90797852 -6.95665039 3.90797852 -5.88549805 2.89501953 C-5.2488623 2.28682373 -4.61222656 1.67862793 -3.95629883 1.05200195 C-2.06518555 -0.14794922 -2.06518555 -0.14794922 0 0 Z " fill="#B8D8CF" transform="translate(83.065185546875,812.14794921875)"/>
<path d="M0 0 C5.57903737 1.07430041 9.30263458 4.5517059 12.4921875 9.15234375 C16.66661405 16.37731279 19.09611507 23.61405943 18 32 C15.27003765 42.15330823 15.27003765 42.15330823 11 45 C8.69779308 41.54668963 8.29168962 38.5630919 7.6875 34.5625 C6.29628372 25.99800032 4.25975101 17.66072197 2.0859375 9.265625 C1.2901854 6.1919159 0.57163102 3.12491627 0 0 Z " fill="#F0EA94" transform="translate(676,338)"/>
<path d="M0 0 C9.02213198 2.89997099 16.38468893 7.48614966 21 16 C24.01436712 22.40553012 24.88792725 28.96577112 24 36 C23.34 36.99 22.68 37.98 22 39 C15.7912074 31.01484984 10.81222219 22.67123501 5.99121094 13.80615234 C4.30821681 10.73945517 2.54027119 7.7205321 0.77734375 4.69921875 C0 3 0 3 0 0 Z " fill="#F2EC95" transform="translate(709,450)"/>
<path d="M0 0 C6.12130897 5.08936416 9.04631889 9.98654115 11.0390625 17.6953125 C7.73735301 17.02784461 5.13453853 15.80063578 2.1875 14.18359375 C1.25292969 13.67248047 0.31835938 13.16136719 -0.64453125 12.63476562 C-1.61519531 12.09787109 -2.58585938 11.56097656 -3.5859375 11.0078125 C-4.53339844 10.49025391 -5.48085938 9.97269531 -6.45703125 9.43945312 C-12.7150514 6.00225054 -18.86603607 2.41368517 -24.9609375 -1.3046875 C-24.6309375 -2.2946875 -24.3009375 -3.2846875 -23.9609375 -4.3046875 C-15.37541268 -8.14077306 -7.29757951 -5.3378055 0 0 Z " fill="#E8E28F" transform="translate(810.9609375,537.3046875)"/>
<path d="M0 0 C5.04697899 4.24468658 9.18174767 8.05865781 10.11328125 14.77734375 C6.01436235 13.4935457 2.24966376 11.96434466 -1.58203125 10.02734375 C-2.62746094 9.50140625 -3.67289062 8.97546875 -4.75 8.43359375 C-5.82636719 7.88703125 -6.90273438 7.34046875 -8.01171875 6.77734375 C-9.09582031 6.23078125 -10.17992187 5.68421875 -11.296875 5.12109375 C-13.30707532 4.1072968 -15.31644774 3.09185533 -17.32470703 2.07421875 C-19.5088133 0.96863723 -21.69602261 -0.13020678 -23.88671875 -1.22265625 C-23.19921875 -3.16015625 -23.19921875 -3.16015625 -21.88671875 -5.22265625 C-13.89457302 -7.54516014 -6.50297181 -4.72418378 0 0 Z " fill="#E5E08E" transform="translate(478.88671875,50.22265625)"/>
<path d="M0 0 C2.55866396 1.90499069 4.44177306 3.89103101 6.140625 6.59375 C6.140625 6.92375 6.140625 7.25375 6.140625 7.59375 C1.03712954 7.78325239 -3.14474067 7.18411159 -8.046875 5.78125 C-9.35392661 5.41450795 -10.66122247 5.04863541 -11.96875 4.68359375 C-12.94038086 4.40878174 -12.94038086 4.40878174 -13.93164062 4.12841797 C-16.8733044 3.31253098 -19.83382124 2.57749199 -22.796875 1.84375 C-23.77527344 1.60140625 -24.75367188 1.3590625 -25.76171875 1.109375 C-26.45394531 0.93921875 -27.14617188 0.7690625 -27.859375 0.59375 C-26.59659368 -3.19459395 -25.33824548 -3.62636278 -21.859375 -5.40625 C-14.09020168 -7.97443827 -6.4820875 -4.15832028 0 0 Z " fill="#E0DA8A" transform="translate(918.859375,581.40625)"/>
<path d="M0 0 C7.93325592 3.25830154 13.3962627 7.98268598 17.390625 15.6796875 C19.8724571 21.84931237 20.5159299 27.39323095 20 34 C19.01 34 18.02 34 17 34 C16.62713867 33.27409668 16.25427734 32.54819336 15.87011719 31.80029297 C14.16710877 28.48994483 12.4586104 25.18245996 10.75 21.875 C10.16347656 20.73289063 9.57695313 19.59078125 8.97265625 18.4140625 C8.39902344 17.30546875 7.82539062 16.196875 7.234375 15.0546875 C6.71069336 14.03874512 6.18701172 13.02280273 5.64746094 11.97607422 C4.00907005 8.90127557 4.00907005 8.90127557 1.79785156 5.80908203 C0 3 0 3 0 0 Z " fill="#F3EE97" transform="translate(628,217)"/>
<path d="M0 0 C8.41741715 0.35818796 14.28109222 4.87153249 19.875 10.9375 C24.72070454 16.84881086 26.34487867 22.5316168 27 30 C26.34 30.33 25.68 30.66 25 31 C24.35998047 30.195625 24.35998047 30.195625 23.70703125 29.375 C21.93648918 27.15543386 20.16095127 24.93994941 18.38330078 22.72607422 C17.3902671 21.48697289 16.39929715 20.2462166 15.40966797 19.00439453 C13.69444232 16.8533207 11.97265399 14.70762766 10.25 12.5625 C9.69546143 11.86447266 9.14092285 11.16644531 8.56958008 10.44726562 C5.90902322 7.14578018 3.46665291 4.48219079 0 2 C0 1.34 0 0.68 0 0 Z " fill="#F1EB95" transform="translate(552,116)"/>
<path d="M0 0 C0 0.33 0 0.66 0 1 C0.85464844 1.04898438 1.70929688 1.09796875 2.58984375 1.1484375 C4.24693359 1.26058594 4.24693359 1.26058594 5.9375 1.375 C7.03964844 1.44460937 8.14179688 1.51421875 9.27734375 1.5859375 C10.62505859 1.79089844 10.62505859 1.79089844 12 2 C12.495 2.99 12.495 2.99 13 4 C0.46 4 -12.08 4 -25 4 C-25 3.01 -25 2.02 -25 1 C-16.64399592 -0.10102642 -8.41192037 -0.10094304 0 0 Z " fill="#C8E6DD" transform="translate(336,53)"/>
<path d="M0 0 C0.33 0.99 0.66 1.98 1 3 C-1.43015556 4.22553971 -3.86719091 5.43041374 -6.3125 6.625 C-7.34793945 7.1509375 -7.34793945 7.1509375 -8.40429688 7.6875 C-10.42578125 8.6640625 -10.42578125 8.6640625 -14 10 C-14.99 9.34 -15.98 8.68 -17 8 C-14.54429825 6.66161267 -12.08570084 5.32913768 -9.625 4 C-8.92632812 3.6184375 -8.22765625 3.236875 -7.5078125 2.84375 C-2.2265625 0 -2.2265625 0 0 0 Z " fill="#C3E5DB" transform="translate(204,174)"/>
<path d="M0 0 C3.3 0 6.6 0 10 0 C9.01 0.33 8.02 0.66 7 1 C7 1.66 7 2.32 7 3 C-2.24 3 -11.48 3 -21 3 C-21 2.67 -21 2.34 -21 2 C-10.605 1.505 -10.605 1.505 0 1 C0 0.67 0 0.34 0 0 Z " fill="#C4E7DC" transform="translate(159,640)"/>
<path d="M0 0 C4.41151871 1.34796405 6.38808519 3.22723417 9 7 C9 7.33 9 7.66 9 8 C5.45124947 8.19715281 2.90442032 8.17831524 0 6 C-0.8125 3.4375 -0.8125 3.4375 -1 1 C-0.67 0.67 -0.34 0.34 0 0 Z " fill="#F0EC96" transform="translate(916,581)"/>
<path d="M0 0 C0.66 0.33 1.32 0.66 2 1 C0.10730953 2.91985828 -1.78899017 4.83591037 -3.6875 6.75 C-4.21794922 7.28882813 -4.74839844 7.82765625 -5.29492188 8.3828125 C-8.37931499 11.48612827 -11.51576273 14.33672402 -15 17 C-15.66 16.67 -16.32 16.34 -17 16 C-12.73502369 11.61507124 -8.34080571 7.46548545 -3.69921875 3.48046875 C-2.42270555 2.36828828 -1.19716986 1.19716986 0 0 Z " fill="#96B1A9" transform="translate(81,812)"/>
<path d="M0 0 C1.16337891 0.00966797 2.32675781 0.01933594 3.52539062 0.02929688 C4.74033203 0.05443359 5.95527344 0.07957031 7.20703125 0.10546875 C8.43357422 0.11900391 9.66011719 0.13253906 10.92382812 0.14648438 C13.95616789 0.18188134 16.98763121 0.23126115 20.01953125 0.29296875 C20.01953125 0.62296875 20.01953125 0.95296875 20.01953125 1.29296875 C19.35421387 1.3180249 18.68889648 1.34308105 18.00341797 1.36889648 C14.96695638 1.48548011 11.93075779 1.60792226 8.89453125 1.73046875 C7.8478125 1.76978516 6.80109375 1.80910156 5.72265625 1.84960938 C0.74759283 2.05427971 -4.08817024 2.28573082 -8.98046875 3.29296875 C-6.35613804 -0.15967879 -4.19378209 -0.06137242 0 0 Z " fill="#2F3735" transform="translate(97.98046875,608.70703125)"/>
<path d="M0 0 C4.12751449 0.60698743 7.3321148 2.03810791 11 4 C10.67 4.99 10.34 5.98 10 7 C6.2089881 5.55049545 2.6125362 3.84827434 -1 2 C-0.67 1.34 -0.34 0.68 0 0 Z " fill="#C1E3D8" transform="translate(413,217)"/>
<path d="M0 0 C0.33 0.99 0.66 1.98 1 3 C-1.97 4.32 -4.94 5.64 -8 7 C-8.66 6.34 -9.32 5.68 -10 5 C-8.71186658 4.16121545 -7.41936744 3.32913217 -6.125 2.5 C-5.40570312 2.0359375 -4.68640625 1.571875 -3.9453125 1.09375 C-2 0 -2 0 0 0 Z " fill="#C2E3D9" transform="translate(773,782)"/>
<path d="M0 0 C0.75 1.5625 0.75 1.5625 1 4 C-0.13084437 6.50286409 -1.52139516 8.67007722 -3 11 C-3.99 11 -4.98 11 -6 11 C-5.18993474 9.35296694 -4.3768779 7.70740494 -3.5625 6.0625 C-3.11003906 5.14597656 -2.65757812 4.22945313 -2.19140625 3.28515625 C-1 1 -1 1 0 0 Z " fill="#99AEA8" transform="translate(363,275)"/>
<path d="M0 0 C2.84383123 1.2748209 5.13754018 2.45137078 7 5 C6.67 6.32 6.34 7.64 6 9 C3.69 6.69 1.38 4.38 -1 2 C-0.67 1.34 -0.34 0.68 0 0 Z " fill="#F8F298" transform="translate(477,50)"/>
<path d="M0 0 C0.99 0.33 1.98 0.66 3 1 C0.14723863 3.93200474 -2.65079784 6.64315404 -6 9 C-4.68775452 5.06326356 -3.08089673 2.77280706 0 0 Z " fill="#000000" transform="translate(60,786)"/>
<path d="M0 0 C0 0.66 0 1.32 0 2 C-2.31 2.66 -4.62 3.32 -7 4 C-7.66 3.01 -8.32 2.02 -9 1 C-6.04335481 -0.4783226 -3.25770263 -0.06032783 0 0 Z " fill="#C4E3DA" transform="translate(500,422)"/>
<path d="M0 0 C0.66 0.33 1.32 0.66 2 1 C-5.11389522 7.70387244 -5.11389522 7.70387244 -10 8 C-7.92141021 5.81907964 -5.78143382 4.03609531 -3.3125 2.3125 C-2.68988281 1.87550781 -2.06726563 1.43851562 -1.42578125 0.98828125 C-0.95527344 0.66214844 -0.48476563 0.33601563 0 0 Z " fill="#96B1A9" transform="translate(296,260)"/>
<path d="M0 0 C3.96 0 7.92 0 12 0 C11.01 0.495 11.01 0.495 10 1 C10 1.66 10 2.32 10 3 C5.06071112 3.3367697 4.21507278 3.16130459 0 0 Z " fill="#D1F2EA" transform="translate(485,629)"/>
<path d="M0 0 C0.33 1.32 0.66 2.64 1 4 C-0.75 5.5625 -0.75 5.5625 -3 7 C-4.32 6.67 -5.64 6.34 -7 6 C-4.69 4.02 -2.38 2.04 0 0 Z " fill="#C0E1D9" transform="translate(268,239)"/>
<path d="M0 0 C0 0.66 0 1.32 0 2 C-2.3125 2.625 -2.3125 2.625 -5 3 C-5.99 2.34 -6.98 1.68 -8 1 C-4.93251126 -0.86240388 -3.40254489 -1.2151946 0 0 Z " fill="#C1E2D9" transform="translate(506,784)"/>
<path d="M0 0 C2.97 0 5.94 0 9 0 C8.67 0.66 8.34 1.32 8 2 C6.68 1.67 5.36 1.34 4 1 C4 1.66 4 2.32 4 3 C2.35 3 0.7 3 -1 3 C-0.67 2.01 -0.34 1.02 0 0 Z " fill="#C9EBE1" transform="translate(502,628)"/>
<path d="M0 0 C4.75 1.875 4.75 1.875 7 3 C6.67 3.99 6.34 4.98 6 6 C5.01 5.67 4.02 5.34 3 5 C3 4.34 3 3.68 3 3 C2.01 3 1.02 3 0 3 C0 2.01 0 1.02 0 0 Z " fill="#F5F097" transform="translate(804,534)"/>
<path d="M0 0 C2.86724686 0.57344937 3.8614515 0.8614515 6 3 C5.34 3.66 4.68 4.32 4 5 C1.875 4.625 1.875 4.625 0 4 C0 2.68 0 1.36 0 0 Z " fill="#D3D488" transform="translate(676,338)"/>
<path d="M0 0 C1.8871875 0.0309375 1.8871875 0.0309375 3.8125 0.0625 C3.4825 0.7225 3.1525 1.3825 2.8125 2.0625 C2.090625 2.041875 1.36875 2.02125 0.625 2 C-2.10675138 2.06070559 -4.53006091 2.45508535 -7.1875 3.0625 C-7.1875 2.4025 -7.1875 1.7425 -7.1875 1.0625 C-4.43671116 0.14557039 -2.82801087 -0.04636083 0 0 Z " fill="#C3E5DB" transform="translate(301.1875,55.9375)"/>
<path d="M0 0 C0.90105469 0.02707031 1.80210937 0.05414063 2.73046875 0.08203125 C3.76107422 0.13423828 3.76107422 0.13423828 4.8125 0.1875 C4.8125 0.5175 4.8125 0.8475 4.8125 1.1875 C2.9871875 1.4040625 2.9871875 1.4040625 1.125 1.625 C-2.01420377 2.01530953 -5.0950134 2.51101856 -8.1875 3.1875 C-5.67753317 0.01043235 -3.96125134 -0.15433447 0 0 Z " fill="#52615D" transform="translate(508.1875,420.8125)"/>
<path d="M0 0 C0.66 0.33 1.32 0.66 2 1 C0.69593116 3.01920337 -0.63823419 5.01924973 -2 7 C-2.33 7 -2.66 7 -3 7 C-3.1875 4.625 -3.1875 4.625 -3 2 C-2.01 1.34 -1.02 0.68 0 0 Z " fill="#F7EC9C" transform="translate(690,376)"/>
<path d="M0 0 C1.98 0 3.96 0 6 0 C6.33 0.99 6.66 1.98 7 3 C4.69 3 2.38 3 0 3 C0 2.01 0 1.02 0 0 Z " fill="#CDEEE5" transform="translate(311,54)"/>
<path d="M0 0 C0.33 0.99 0.66 1.98 1 3 C-0.65 4.65 -2.3 6.3 -4 8 C-4.66 7.67 -5.32 7.34 -6 7 C-4.02 4.69 -2.04 2.38 0 0 Z " fill="#9DB8B0" transform="translate(151,134)"/>
<path d="" fill="#000000" transform="translate(0,0)"/>
<path d="" fill="#FFFFFF" transform="translate(0,0)"/>
<path d="" fill="#000000" transform="translate(0,0)"/>
<path d="" fill="#00FF00" transform="translate(0,0)"/>
<path d="" fill="#00FF00" transform="translate(0,0)"/>
<path d="" fill="#000000" transform="translate(0,0)"/>
<path d="" fill="#000000" transform="translate(0,0)"/>
<path d="" fill="#00FFFF" transform="translate(0,0)"/>
<path d="" fill="#000000" transform="translate(0,0)"/>
<path d="" fill="#000000" transform="translate(0,0)"/>
<path d="" fill="#000000" transform="translate(0,0)"/>
<path d="" fill="#000000" transform="translate(0,0)"/>
<path d="" fill="#00FFFF" transform="translate(0,0)"/>
<path d="" fill="#000000" transform="translate(0,0)"/>
<path d="" fill="#00FF00" transform="translate(0,0)"/>
<path d="" fill="#000000" transform="translate(0,0)"/>
<path d="" fill="#000000" transform="translate(0,0)"/>
<path d="" fill="#000000" transform="translate(0,0)"/>
<path d="" fill="#000000" transform="translate(0,0)"/>
<path d="" fill="#FFFF00" transform="translate(0,0)"/>
<path d="" fill="#FFFF00" transform="translate(0,0)"/>
<path d="" fill="#000000" transform="translate(0,0)"/>
<path d="" fill="#000000" transform="translate(0,0)"/>
<path d="" fill="#00FFFF" transform="translate(0,0)"/>
<path d="" fill="#FFFF00" transform="translate(0,0)"/>
<path d="" fill="#FFFF00" transform="translate(0,0)"/>
<path d="" fill="#000000" transform="translate(0,0)"/>
</svg>
