<?xml version="1.0" encoding="UTF-8"?>
<svg version="1.1" xmlns="http://www.w3.org/2000/svg" width="546" height="546">
<path d="M0 0 C0.86286621 0.20898926 1.72573242 0.41797852 2.61474609 0.63330078 C38.46452046 9.67532776 74.41971684 31.40490549 98 60 C98.67289062 60.7734375 99.34578125 61.546875 100.0390625 62.34375 C125.71630209 92.46687206 143.55125635 133.98482009 142 174 C142.73500732 173.98187256 143.47001465 173.96374512 144.22729492 173.94506836 C151.41921274 173.84483856 158.22825771 174.34493321 165.3125 175.5625 C166.34084961 175.73885986 167.36919922 175.91521973 168.42871094 176.09692383 C208.99899173 183.48487472 248.61180987 204.88319584 275 237 C275.67160156 237.77214844 276.34320313 238.54429687 277.03515625 239.33984375 C294.25673659 259.53799354 306.80623413 283.86502892 313.75 309.4375 C313.9365918 310.11474121 314.12318359 310.79198242 314.31542969 311.48974609 C317.97711167 325.83735996 319.5061251 340.27470205 319.39111328 355.05224609 C319.37499842 357.50024056 319.39110419 359.94658521 319.41015625 362.39453125 C319.43287359 378.1600671 317.18860438 393.40527725 312.8125 408.5625 C312.51061768 409.61767822 312.20873535 410.67285645 311.89770508 411.76000977 C309.08216907 421.26902974 305.49079606 430.16803368 301 439 C300.63567871 439.72703125 300.27135742 440.4540625 299.89599609 441.203125 C292.48111996 455.80944148 283.34539403 470.06050186 271.53344727 481.5012207 C269.19397461 483.78780288 267.14633045 486.29269627 265.06640625 488.8125 C237.15383576 518.36077878 192.50685471 539.47816011 151.72429019 541.13291186 C150.58691777 541.13665405 149.44954535 541.14039624 148.2777071 541.14425182 C147.63600007 541.14769323 146.99429304 541.15113465 146.33314034 541.15468034 C144.19232509 541.16497117 142.05155733 541.16832393 139.91072083 541.17167664 C138.35660363 541.1776786 136.80248802 541.18410429 135.24837416 541.19091636 C130.98492699 541.20834511 126.72148231 541.21965352 122.4580127 541.22992671 C117.8574586 541.24206038 113.2569256 541.25981058 108.65638733 541.27679443 C99.64758863 541.30908606 90.63878164 541.33592473 81.62995914 541.36059722 C74.31036111 541.38066138 66.99076921 541.402258 59.67117882 541.42493629 C38.92589886 541.48902508 18.18061281 541.54894974 -2.56469413 541.60361841 C-4.24184656 541.60803896 -4.24184656 541.60803896 -5.95288086 541.61254883 C-7.63207596 541.61697343 -7.63207596 541.61697343 -9.3451942 541.62148742 C-27.50655032 541.66959831 -45.66785924 541.72767933 -63.82917079 541.79024651 C-82.47007754 541.85435049 -101.11099402 541.91098892 -119.75194722 541.95981437 C-130.22044308 541.98738971 -140.68890856 542.01809231 -151.15736961 542.05682945 C-160.06571194 542.08973634 -168.97404078 542.11574483 -177.88242837 542.13268574 C-182.42973184 542.141534 -186.97696522 542.15366839 -191.52423096 542.17449379 C-195.68330954 542.19346027 -199.8423023 542.2032225 -204.00142256 542.20551727 C-205.50935977 542.20799095 -207.01729587 542.21389276 -208.52520456 542.22349032 C-210.56851087 542.23599839 -212.61188667 542.2350069 -214.65523052 542.2332716 C-215.79211589 542.23652673 -216.92900125 542.23978186 -218.10033768 542.24313563 C-220.97164288 542.00237773 -222.61853456 541.5873376 -225 540 C-226.37787724 537.24424551 -226.12932976 535.034798 -226.13422108 531.94881248 C-226.13867892 530.64987442 -226.14313676 529.35093636 -226.14772969 528.01263654 C-226.14764039 526.55728299 -226.14745051 525.10192945 -226.14717102 523.64657593 C-226.15046866 522.11102856 -226.15419402 520.57548205 -226.1583125 519.03993666 C-226.16835395 514.80379704 -226.17205281 510.56767159 -226.17470181 506.33152175 C-226.17859912 501.76799524 -226.18817858 497.20448002 -226.19691467 492.64096069 C-226.21670656 481.60412722 -226.22675367 470.56729279 -226.23564246 459.53044599 C-226.2400253 454.32840855 -226.24539253 449.12637212 -226.25063133 443.92433548 C-226.26765457 426.61832325 -226.28214358 409.31231166 -226.28938007 392.00629234 C-226.29128991 387.51184463 -226.29321024 383.01739692 -226.29516602 378.52294922 C-226.29564976 377.40590452 -226.2961335 376.28885982 -226.2966319 375.13796528 C-226.3049126 357.08679916 -226.33021132 339.03569974 -226.36274669 320.98456268 C-226.39590774 302.43409858 -226.41383742 283.88366822 -226.41702431 265.33317435 C-226.41918223 254.92542686 -226.42782386 244.51777631 -226.45348549 234.11005783 C-226.47531722 225.2350614 -226.48318257 216.3601854 -226.47351871 207.48516516 C-226.46900836 202.96573917 -226.47066643 198.44656096 -226.49028015 193.9271698 C-226.6437386 156.44642452 -221.67727918 120.7258728 -202 88 C-201.50371094 87.16082031 -201.00742188 86.32164063 -200.49609375 85.45703125 C-193.33217241 73.77034512 -185.1389287 62.27807626 -175 53 C-174.195625 52.195625 -173.39125 51.39125 -172.5625 50.5625 C-171.716875 49.716875 -170.87125 48.87125 -170 48 C-169.45988281 47.401875 -168.91976562 46.80375 -168.36328125 46.1875 C-145.27579251 21.51246291 -112.31396895 6.85705457 -80 -1 C-79.28215332 -1.17934082 -78.56430664 -1.35868164 -77.82470703 -1.54345703 C-53.43169022 -7.33543249 -24.15921751 -5.87875794 0 0 Z " fill="#BBDCD2" transform="translate(227,4)"/>
<path d="M0 0 C0.86286621 0.20898926 1.72573242 0.41797852 2.61474609 0.63330078 C38.46452046 9.67532776 74.41971684 31.40490549 98 60 C98.67289062 60.7734375 99.34578125 61.546875 100.0390625 62.34375 C125.71630209 92.46687206 143.55125635 133.98482009 142 174 C142.73500732 173.98187256 143.47001465 173.96374512 144.22729492 173.94506836 C151.41921274 173.84483856 158.22825771 174.34493321 165.3125 175.5625 C166.34084961 175.73885986 167.36919922 175.91521973 168.42871094 176.09692383 C208.99899173 183.48487472 248.61180987 204.88319584 275 237 C275.67160156 237.77214844 276.34320313 238.54429687 277.03515625 239.33984375 C294.25673659 259.53799354 306.80623413 283.86502892 313.75 309.4375 C313.9365918 310.11474121 314.12318359 310.79198242 314.31542969 311.48974609 C317.97711167 325.83735996 319.5061251 340.27470205 319.39111328 355.05224609 C319.37499842 357.50024056 319.39110419 359.94658521 319.41015625 362.39453125 C319.43287359 378.1600671 317.18860438 393.40527725 312.8125 408.5625 C312.51061768 409.61767822 312.20873535 410.67285645 311.89770508 411.76000977 C309.08216907 421.26902974 305.49079606 430.16803368 301 439 C300.63567871 439.72703125 300.27135742 440.4540625 299.89599609 441.203125 C292.48111996 455.80944148 283.34539403 470.06050186 271.53344727 481.5012207 C269.19397461 483.78780288 267.14633045 486.29269627 265.06640625 488.8125 C237.15383576 518.36077878 192.50685471 539.47816011 151.72429019 541.13291186 C150.58691777 541.13665405 149.44954535 541.14039624 148.2777071 541.14425182 C147.63600007 541.14769323 146.99429304 541.15113465 146.33314034 541.15468034 C144.19232509 541.16497117 142.05155733 541.16832393 139.91072083 541.17167664 C138.35660363 541.1776786 136.80248802 541.18410429 135.24837416 541.19091636 C130.98492699 541.20834511 126.72148231 541.21965352 122.4580127 541.22992671 C117.8574586 541.24206038 113.2569256 541.25981058 108.65638733 541.27679443 C99.64758863 541.30908606 90.63878164 541.33592473 81.62995914 541.36059722 C74.31036111 541.38066138 66.99076921 541.402258 59.67117882 541.42493629 C38.92589886 541.48902508 18.18061281 541.54894974 -2.56469413 541.60361841 C-4.24184656 541.60803896 -4.24184656 541.60803896 -5.95288086 541.61254883 C-7.63207596 541.61697343 -7.63207596 541.61697343 -9.3451942 541.62148742 C-27.50655032 541.66959831 -45.66785924 541.72767933 -63.82917079 541.79024651 C-82.47007754 541.85435049 -101.11099402 541.91098892 -119.75194722 541.95981437 C-130.22044308 541.98738971 -140.68890856 542.01809231 -151.15736961 542.05682945 C-160.06571194 542.08973634 -168.97404078 542.11574483 -177.88242837 542.13268574 C-182.42973184 542.141534 -186.97696522 542.15366839 -191.52423096 542.17449379 C-195.68330954 542.19346027 -199.8423023 542.2032225 -204.00142256 542.20551727 C-205.50935977 542.20799095 -207.01729587 542.21389276 -208.52520456 542.22349032 C-210.56851087 542.23599839 -212.61188667 542.2350069 -214.65523052 542.2332716 C-215.79211589 542.23652673 -216.92900125 542.23978186 -218.10033768 542.24313563 C-220.97164288 542.00237773 -222.61853456 541.5873376 -225 540 C-226.37787724 537.24424551 -226.12932976 535.034798 -226.13422108 531.94881248 C-226.13867892 530.64987442 -226.14313676 529.35093636 -226.14772969 528.01263654 C-226.14764039 526.55728299 -226.14745051 525.10192945 -226.14717102 523.64657593 C-226.15046866 522.11102856 -226.15419402 520.57548205 -226.1583125 519.03993666 C-226.16835395 514.80379704 -226.17205281 510.56767159 -226.17470181 506.33152175 C-226.17859912 501.76799524 -226.18817858 497.20448002 -226.19691467 492.64096069 C-226.21670656 481.60412722 -226.22675367 470.56729279 -226.23564246 459.53044599 C-226.2400253 454.32840855 -226.24539253 449.12637212 -226.25063133 443.92433548 C-226.26765457 426.61832325 -226.28214358 409.31231166 -226.28938007 392.00629234 C-226.29128991 387.51184463 -226.29321024 383.01739692 -226.29516602 378.52294922 C-226.29564976 377.40590452 -226.2961335 376.28885982 -226.2966319 375.13796528 C-226.3049126 357.08679916 -226.33021132 339.03569974 -226.36274669 320.98456268 C-226.39590774 302.43409858 -226.41383742 283.88366822 -226.41702431 265.33317435 C-226.41918223 254.92542686 -226.42782386 244.51777631 -226.45348549 234.11005783 C-226.47531722 225.2350614 -226.48318257 216.3601854 -226.47351871 207.48516516 C-226.46900836 202.96573917 -226.47066643 198.44656096 -226.49028015 193.9271698 C-226.6437386 156.44642452 -221.67727918 120.7258728 -202 88 C-201.50371094 87.16082031 -201.00742188 86.32164063 -200.49609375 85.45703125 C-193.33217241 73.77034512 -185.1389287 62.27807626 -175 53 C-174.195625 52.195625 -173.39125 51.39125 -172.5625 50.5625 C-171.716875 49.716875 -170.87125 48.87125 -170 48 C-169.45988281 47.401875 -168.91976562 46.80375 -168.36328125 46.1875 C-145.27579251 21.51246291 -112.31396895 6.85705457 -80 -1 C-79.28215332 -1.17934082 -78.56430664 -1.35868164 -77.82470703 -1.54345703 C-53.43169022 -7.33543249 -24.15921751 -5.87875794 0 0 Z M-78 13 C-78.91056152 13.20979492 -79.82112305 13.41958984 -80.75927734 13.63574219 C-111.33906878 20.99706851 -138.22562237 36.49895019 -161 58 C-161.84820312 58.77214844 -162.69640625 59.54429688 -163.5703125 60.33984375 C-192.04208067 87.27596262 -210.19512985 127.03966948 -213 166 C-213.01222267 167.38542379 -213.01532016 168.77094609 -213.01126099 170.15641785 C-213.00754486 171.42479996 -213.00382874 172.69318207 -213 174 C-212.11632342 174.00423194 -211.23264685 174.00846388 -210.32219219 174.01282406 C-188.84056129 174.11603731 -167.35896373 174.224661 -145.87739086 174.33933926 C-135.48915425 174.39466524 -125.10091421 174.44814623 -114.71264648 174.49731445 C-105.66038752 174.54016392 -96.60815378 174.58644387 -87.55593377 174.63687855 C-82.76092688 174.66347332 -77.96592496 174.68832627 -73.1708889 174.70907402 C-68.6606861 174.72864345 -64.15053128 174.7527882 -59.64037132 174.78049088 C-57.98231883 174.78985968 -56.32425581 174.79753558 -54.66618729 174.80341911 C-52.40758825 174.81168318 -50.14910558 174.82596071 -47.89054871 174.84178162 C-45.99211606 174.85146044 -45.99211606 174.85146044 -44.05533123 174.8613348 C-41 175 -41 175 -38 176 C-36.66154936 182.44889853 -36.66154936 182.44889853 -38.04743671 184.70554829 C-40.98620433 186.6538041 -43.42466547 186.38604151 -46.92851257 186.39872742 C-47.63753041 186.40537424 -48.34654824 186.41202107 -49.07705146 186.41886932 C-51.45865772 186.43755825 -53.8397642 186.43489016 -56.22143555 186.43237305 C-57.92629713 186.44138664 -59.63115221 186.45171286 -61.33599854 186.46325684 C-65.9699876 186.49090039 -70.60385395 186.50012131 -75.2379148 186.50611091 C-80.0786476 186.51547548 -84.91928805 186.54167726 -89.75996399 186.56611633 C-98.92903976 186.60983789 -108.09809767 186.63835008 -117.26724607 186.66143972 C-127.70489674 186.68846111 -138.14245477 186.73237447 -148.58003938 186.77772844 C-170.0533229 186.87065576 -191.52659729 186.9400693 -213 187 C-213 210.43 -213 233.86 -213 258 C-206.07 258.66 -199.14 259.32 -192 260 C-188.22141476 260.61818325 -184.63408559 261.23735523 -180.9375 262.125 C-179.58954346 262.44150513 -179.58954346 262.44150513 -178.21435547 262.7644043 C-168.41191173 265.1991384 -159.19267774 268.85701479 -150 273 C-149.29681641 273.31308105 -148.59363281 273.62616211 -147.86914062 273.94873047 C-132.25884544 281.00323946 -117.83960957 290.68472764 -105 302 C-104.03964844 302.83917969 -103.07929687 303.67835938 -102.08984375 304.54296875 C-48.65643157 351.94790713 -22.35163355 423.10021514 -14.3125 492.5625 C-14.13328003 494.08387573 -14.13328003 494.08387573 -13.95043945 495.63598633 C-13.1647536 502.90173143 -12.77590307 510.15331343 -12.46166992 517.45288086 C-12.41674156 518.4694854 -12.3718132 519.48608994 -12.32552338 520.53350067 C-12.21571825 523.02227984 -12.10724357 525.51110936 -12 528 C7.94262312 528.07045254 27.88522057 528.12316408 47.82794285 528.15543652 C57.09017184 528.17082737 66.35232298 528.19176569 75.61450195 528.22631836 C83.69860977 528.25646153 91.78266114 528.27563133 99.86682361 528.28226548 C104.13716854 528.28613611 108.40735214 528.29506458 112.67764473 528.31719017 C166.61068846 528.58556898 216.10688215 517.78151817 255.6875 478.625 C256.18096924 478.13717041 256.67443848 477.64934082 257.18286133 477.14672852 C259.97362934 474.29817657 261.96983813 471.40838444 264 468 C265.71875 466.4453125 265.71875 466.4453125 267.5 465.125 C270.46842342 462.6862123 271.70988643 460.74792716 273.01171875 457.08203125 C274.35896812 454.24375491 276.23448638 452.02123436 278.1875 449.5625 C283.58779461 442.52548725 287.32932337 435.04666922 291 427 C291.30679687 426.34966797 291.61359375 425.69933594 291.9296875 425.02929688 C300.93932637 405.79718313 304.71437089 385.07988425 306 364 C305.18660156 363.91548584 304.37320313 363.83097168 303.53515625 363.74389648 C252.46014361 358.26080141 205.17855014 338.20331736 171.78076172 297.81176758 C151.87894731 273.08538379 137.79021802 244.03173172 132.3125 212.6875 C132.09609863 211.45201416 131.87969727 210.21652832 131.65673828 208.94360352 C130.11992201 199.42881509 129.54642065 190.06591204 129.375 180.4375 C128.48997315 131.34616664 109.20252297 88.65726965 73.9765625 54.56640625 C62.39287645 43.70247007 49.09273731 35.22714236 35 28 C33.94941406 27.45988281 32.89882813 26.91976563 31.81640625 26.36328125 C28.58193219 24.79342823 25.32374826 23.37118328 22 22 C21.32114746 21.71914551 20.64229492 21.43829102 19.94287109 21.14892578 C-10.30454261 8.91244171 -46.05873133 5.59935871 -78 13 Z " fill="#020202" transform="translate(227,4)"/>
<path d="M0 0 C7.95778445 0 14.83244602 0.11836125 22.5 1.5625 C23.43924316 1.73813477 24.37848633 1.91376953 25.34619141 2.09472656 C55.26711924 8.06586594 82.25076186 23.7221469 104.30859375 44.51953125 C106.93788527 47.00307243 106.93788527 47.00307243 109.65234375 49.109375 C112.4588821 51.36954898 114.62640217 53.84921862 116.94921875 56.58984375 C118.38169102 58.27333973 119.84548648 59.93045999 121.33203125 61.56640625 C150.78174661 94.72493134 168.57376539 136.37109487 179 179 C179.32097656 180.26368408 179.64195312 181.52736816 179.97265625 182.8293457 C182.4443283 192.73034011 184.16272284 202.61402695 185.43798828 212.73657227 C185.74794001 215.17131826 186.08216094 217.60190559 186.41796875 220.03320312 C188.04123434 232.64123807 188 244.04237309 188 257 C125.96 257 63.92 257 0 257 C0 172.19 0 87.38 0 0 Z " fill="#FEFEFE" transform="translate(14,275)"/>
<path d="M0 0 C32.38502863 3.11394506 64.57754801 21.05007582 87.53320312 43.57275391 C89.06824716 45.06640694 90.63341214 46.52334934 92.203125 47.98046875 C100.81537328 56.11070729 107.54194569 65.09997729 114 75 C114.6185083 75.93150879 114.6185083 75.93150879 115.24951172 76.88183594 C130.1539626 99.51201662 141.4912103 129.56254087 141.0625 157 C141.05347656 157.763125 141.04445313 158.52625 141.03515625 159.3125 C141.02355469 159.869375 141.01195312 160.42625 141 161 C139.02 161 137.04 161 135 161 C134.4121875 159.2984375 134.4121875 159.2984375 133.8125 157.5625 C129.46394881 146.20015656 123.50106846 138.29112335 112.25 133 C102.63098188 129.394396 93.79902866 130.04500796 84.390625 133.91015625 C81.54776431 135.20616627 78.74890126 136.51410743 76 138 C75.97421875 137.17757812 75.9484375 136.35515625 75.921875 135.5078125 C75.31288278 123.52173843 72.26358002 113.75888287 63.3125 105.375 C55.44432491 98.752253 47.28096026 96.83386775 37.125 96.9375 C35.97257812 96.94652344 34.82015625 96.95554687 33.6328125 96.96484375 C32.76398438 96.97644531 31.89515625 96.98804688 31 97 C31.28875 96.36835938 31.5775 95.73671875 31.875 95.0859375 C35.81366335 85.5948529 36.60077163 76.16288625 33.5625 66.25 C29.51174129 56.66649768 22.51083989 50.38090389 13.15234375 46.1171875 C8.19592903 44.36063904 3.21779689 43.53658195 -2 43 C-1.57847656 42.19175781 -1.15695312 41.38351563 -0.72265625 40.55078125 C0.09912109 38.94783203 0.09912109 38.94783203 0.9375 37.3125 C1.48277344 36.25675781 2.02804687 35.20101562 2.58984375 34.11328125 C5.95176442 26.69097994 6.5259588 16.9871108 4.140625 9.19140625 C3.17764014 7.06655922 2.1229557 5.0429676 1 3 C0.67 2.01 0.34 1.02 0 0 Z " fill="#FCBCE5" transform="translate(392,194)"/>
<path d="M0 0 C6.92461733 3.21906725 11.07833503 6.85081844 14.11328125 13.96484375 C16.5720101 21.42581405 15.36589263 26.81982097 12.46875 33.890625 C11.31256831 36.06764939 10.13582418 37.46512093 8.30078125 39.08984375 C4.09128369 37.56787438 2.06928476 34.50723113 -0.38671875 30.96484375 C-0.81662109 30.35318359 -1.24652344 29.74152344 -1.68945312 29.11132812 C-4.93205873 24.40646406 -7.88312054 19.56024838 -10.69921875 14.58984375 C-11.07264404 13.93226074 -11.44606934 13.27467773 -11.83081055 12.59716797 C-13.8976307 8.85156419 -15.47753653 5.21302124 -16.69921875 1.08984375 C-11.33800611 -1.95796892 -5.80453938 -1.957247 0 0 Z " fill="#F8F399" transform="translate(399.69921875,250.91015625)"/>
<path d="M0 0 C4.64727656 2.29875993 7.38896784 5.4336695 9.07421875 10.33984375 C10.03856717 15.39024577 9.20375135 19.49539377 6.3984375 23.796875 C3.5568827 27.10783118 0.34555162 28.86590421 -3.91015625 29.75390625 C-8.67852659 30.10506531 -11.76977021 28.81931508 -15.44921875 25.8203125 C-18.92329919 22.33704137 -19.82801777 19.21971503 -20.36328125 14.40234375 C-20.16847963 9.97272433 -18.71265424 6.75852335 -15.92578125 3.33984375 C-11.0507262 -0.98122777 -6.13767514 -2.10399006 0 0 Z " fill="#040404" transform="translate(189.92578125,117.66015625)"/>
<path d="M0 0 C6.98480839 3.65647687 11.3735768 8.41080663 13.9609375 15.92578125 C14.80488335 19.64316176 14.68973347 23.30801445 14.453125 27.09375 C8.69379783 26.21232254 5.10615777 23.44337299 0.453125 20.09375 C-0.5265625 19.39507812 -1.50625 18.69640625 -2.515625 17.9765625 C-8.71701924 13.45079751 -14.32733776 8.7277799 -19.546875 3.09375 C-14.63720813 -2.28350419 -6.62001092 -2.35558671 0 0 Z " fill="#F7F199" transform="translate(440.546875,303.90625)"/>
<path d="M0 0 C6.25426905 2.29573512 11.02214273 5.81162592 14.4375 11.625 C17.0888194 17.65386977 17.33935622 24.5135842 14.9765625 30.6640625 C13.07040662 34.21066769 11.07366773 37.35483287 8 40 C7.34 40 6.68 40 6 40 C2.96849365 26.66471257 0.22181967 13.71248898 0 0 Z " fill="#F2ED95" transform="translate(369,192)"/>
<path d="M0 0 C5.63567069 3.56892204 8.76469114 7.60906795 11.125 13.875 C-1.79758548 12.3924431 -13.80993982 8.65075299 -25.875 3.875 C-19.0864334 -3.33785201 -8.71059749 -4.50047537 0 0 Z " fill="#EFEA95" transform="translate(501.875,339.125)"/>
<path d="M0 0 C0.67804688 0.70382812 1.35609375 1.40765625 2.0546875 2.1328125 C5.21843887 5.29211728 8.63262978 8.08878623 12.125 10.875 C13.10762817 11.66173096 13.10762817 11.66173096 14.11010742 12.46435547 C18.86818479 16.22326559 23.72523046 19.57031786 28.92578125 22.6953125 C31 24 31 24 33 26 C27.24067283 25.11857254 23.65303277 22.34962299 19 19 C18.0203125 18.30132812 17.040625 17.60265625 16.03125 16.8828125 C9.82985576 12.35704751 4.21953724 7.6340299 -1 2 C-0.67 1.34 -0.34 0.68 0 0 Z " fill="#527890" transform="translate(422,305)"/>
<path d="M0 0 C3.69876091 1.37287342 6.9514476 3.06355453 10.3125 5.125 C11.19550781 5.66382813 12.07851563 6.20265625 12.98828125 6.7578125 C13.65214844 7.16773438 14.31601562 7.57765625 15 8 C12 9 12 9 9.58984375 7.890625 C8.71457031 7.34921875 7.83929688 6.8078125 6.9375 6.25 C6.05964844 5.71890625 5.18179687 5.1878125 4.27734375 4.640625 C2 3 2 3 0 0 Z " fill="#476E8C" transform="translate(440,322)"/>
</svg>
